<svg width="33" height="32" viewBox="0 0 33 32" fill="none" xmlns="http://www.w3.org/2000/svg">
<path d="M12.3346 13.3333C16.0165 13.3333 19.0013 10.3486 19.0013 6.66667C19.0013 2.98477 16.0165 0 12.3346 0C8.65273 0 5.66797 2.98477 5.66797 6.66667C5.66797 10.3486 8.65273 13.3333 12.3346 13.3333Z" fill="#00778E"/>
<path d="M13.0006 23.3333C13.0006 20.492 14.1246 17.9133 15.942 16H6.66731C4.98826 16.0021 3.37858 16.6701 2.19131 17.8573C1.00404 19.0446 0.336101 20.6543 0.333984 22.3333L0.333984 27C0.333984 27.552 0.781984 28 1.33398 28H14.09C13.375 26.5481 13.0023 24.9517 13.0006 23.3333Z" fill="#00778E"/>
<path d="M23.6667 14.6665C18.888 14.6665 15 18.5545 15 23.3332C15 28.1118 18.888 31.9998 23.6667 31.9998C28.4453 31.9998 32.3333 28.1118 32.3333 23.3332C32.3333 18.5545 28.4453 14.6665 23.6667 14.6665ZM26.6093 26.2758C26.4858 26.4001 26.3389 26.4987 26.1771 26.566C26.0153 26.6332 25.8419 26.6679 25.6667 26.6679C25.4914 26.6679 25.318 26.6332 25.1562 26.566C24.9944 26.4987 24.8475 26.4001 24.724 26.2758L22.724 24.2758C22.5999 24.1522 22.5016 24.0053 22.4345 23.8435C22.3675 23.6817 22.3331 23.5083 22.3333 23.3332V19.9998C22.3333 19.6462 22.4738 19.3071 22.7238 19.057C22.9739 18.807 23.313 18.6665 23.6667 18.6665C24.0203 18.6665 24.3594 18.807 24.6095 19.057C24.8595 19.3071 25 19.6462 25 19.9998V22.7812L26.6093 24.3905C26.7332 24.5142 26.8316 24.6612 26.8986 24.8229C26.9657 24.9847 27.0003 25.1581 27.0003 25.3332C27.0003 25.5083 26.9657 25.6817 26.8986 25.8434C26.8316 26.0052 26.7332 26.1521 26.6093 26.2758Z" fill="#00778E"/>
</svg>