<svg width="205" height="59" viewBox="0 0 205 59" fill="none" xmlns="http://www.w3.org/2000/svg">
<path d="M203.096 52.1957C203.096 55.3399 200.496 57.8868 197.28 57.8868H6.95798C3.74369 57.8868 1.13464 55.3399 1.13464 52.1957V6.81165C1.13464 3.66895 3.74369 1.11319 6.95798 1.11319H197.279C200.496 1.11319 203.095 3.66895 203.095 6.81165L203.096 52.1957Z" fill="black"/>
<path d="M196.667 1.18185C200.169 1.18185 203.019 3.96038 203.019 7.375V51.625C203.019 55.0396 200.169 57.8182 196.667 57.8182H7.5641C4.06192 57.8182 1.21215 55.0396 1.21215 51.625V7.375C1.21215 3.96038 4.06192 1.18185 7.5641 1.18185H196.667ZM196.667 5.4802e-06H7.5641C3.40574 5.4802e-06 0 3.3206 0 7.375V51.625C0 55.6794 3.40574 59 7.5641 59H196.667C200.825 59 204.231 55.6794 204.231 51.625V7.375C204.231 3.3206 200.825 5.4802e-06 196.667 5.4802e-06Z" fill="#A6A6A6"/>
<g clip-path="url(#clip0_104_2)">
<path d="M52.724 19.6631C52.7253 18.2083 52.5837 16.775 52.2384 15.3617C52.0638 14.6457 51.8151 13.9557 51.4776 13.3C50.6901 11.768 49.4879 10.6845 47.9059 10.0159C46.9529 9.61343 45.9571 9.37583 44.9353 9.22717C44.0908 9.10383 43.2423 9.01165 42.3926 9.00971C36.6274 8.99607 30.8622 9.00192 25.0976 8.99997C23.7675 8.99932 22.4387 8.99477 21.1124 9.14928C19.9297 9.2869 18.7709 9.5141 17.6654 9.96462C16.247 10.5417 15.0934 11.4447 14.2807 12.758C13.6977 13.6992 13.34 14.7256 13.1096 15.8051C12.846 17.0405 12.7259 18.2869 12.7266 19.5488C12.7305 25.6944 12.7311 31.84 12.724 37.9857C12.7227 39.1405 12.7675 40.2882 12.9564 41.4308C13.1115 42.3714 13.3348 43.2893 13.7055 44.1696C14.5806 46.2469 16.1308 47.5803 18.2496 48.2801C18.9209 48.5021 19.6083 48.6579 20.3088 48.7702C20.969 48.876 21.6324 48.9772 22.2971 48.9811C25.7734 48.998 29.2497 48.9889 32.7253 48.9889V48.9941C35.7426 48.9941 38.7592 48.9889 41.7759 48.9967C42.9106 49 44.0382 48.9519 45.1606 48.7656C46.1402 48.602 47.0944 48.3644 48.0046 47.9659C49.7567 47.1985 50.9998 45.9268 51.7424 44.1663C52.1157 43.2802 52.3494 42.3578 52.4942 41.4074C52.6396 40.4473 52.724 39.4852 52.7233 38.5128C52.7181 32.2295 52.7149 25.9463 52.7233 19.6637L52.724 19.6631ZM24.3095 25.5847C24.538 25.2244 24.8055 24.8927 25.1054 24.5876C25.2684 24.4214 25.282 24.4234 25.4306 24.6123C26.3135 25.7373 27.136 26.9058 27.9169 28.1035C29.0173 29.7906 30.0144 31.5369 30.894 33.35C30.9855 33.5383 31.0783 33.7272 31.1608 33.92C31.1881 33.9855 31.2822 34.0595 31.2075 34.127C31.1498 34.1796 31.0719 34.1102 31.0102 34.0784C30.5837 33.8609 30.1559 33.646 29.7346 33.4201C28.4395 32.7268 27.1613 32.0056 25.9571 31.1597C25.4092 30.7748 24.8834 30.3645 24.4154 29.8815C23.846 29.2934 23.5461 28.6001 23.5455 27.6296C23.5364 26.9538 23.885 26.254 24.3102 25.5834L24.3095 25.5847ZM30.6986 31.5336C30.0429 30.4749 29.4217 29.3953 28.879 28.2723C28.4609 27.4082 28.0948 26.5247 27.9065 25.5808C27.6865 24.476 27.8592 23.4496 28.6505 22.5966C29.0465 22.1701 29.5444 21.8923 30.115 21.7586C30.3571 21.7015 30.6012 21.6508 30.8453 21.606C31.1491 21.5508 31.2231 21.595 31.3536 21.8728C31.7697 22.7602 31.98 23.7061 32.128 24.6668C32.3364 26.0223 32.4176 27.3875 32.4091 28.8286C32.4208 29.8471 32.3475 30.9319 32.2871 32.0179C32.2624 32.4619 32.2098 32.904 32.1689 33.3474C32.1663 33.3734 32.1644 33.4 32.1566 33.4246C32.1391 33.4779 32.1501 33.559 32.08 33.5707C32.0118 33.5824 31.9859 33.509 31.9547 33.4617C31.5347 32.8203 31.1024 32.186 30.6986 31.5336ZM33.0817 28.4138C33.1102 26.9402 33.2011 25.4692 33.4848 24.019C33.6347 23.2529 33.8392 22.4999 34.1891 21.7956C34.2521 21.669 34.3287 21.5742 34.4884 21.5937C35.3206 21.693 36.1236 21.8748 36.7423 22.4941C37.3622 23.1153 37.7232 23.8502 37.6485 24.6779C37.6719 25.6542 37.3843 26.4825 37.0539 27.2985C36.5014 28.6644 35.7705 29.938 35.0084 31.1935C34.5591 31.9329 34.0963 32.6645 33.6036 33.376C33.551 33.4526 33.5114 33.5882 33.4043 33.5616C33.3121 33.5383 33.3348 33.4 33.329 33.3162C33.2855 32.7287 33.2251 32.1432 33.1914 31.5551C33.1316 30.5086 33.0622 29.4628 33.0823 28.4144L33.0817 28.4138ZM34.343 33.9122C35.1349 32.2172 36.034 30.582 37.0227 28.9941C37.9491 27.5069 38.9423 26.0677 40.0186 24.6856C40.2412 24.4 40.2458 24.3935 40.4853 24.661C41.0994 25.3458 41.6207 26.0891 41.8531 26.996C41.9206 27.2596 41.9966 27.5277 41.9706 27.8101C41.9343 28.7611 41.5233 29.5284 40.8197 30.1542C39.5616 31.274 38.1165 32.1127 36.6579 32.9326C35.9496 33.3312 35.231 33.7116 34.504 34.0745C34.4429 34.105 34.3722 34.179 34.3073 34.1231C34.2274 34.0537 34.3118 33.9777 34.3423 33.9128L34.343 33.9122ZM22.1141 30.1061C22.1504 29.9516 22.2102 29.9354 22.3452 30.0088C23.9233 30.8657 25.4956 31.7336 27.0496 32.6346C28.1896 33.2955 29.3243 33.9641 30.4246 34.6899C30.4629 34.7152 30.5032 34.7379 30.5389 34.7671C30.5915 34.8106 30.6992 34.8314 30.6752 34.9125C30.6479 35.0054 30.5408 34.9703 30.4668 34.9703C30.0605 34.9742 29.6534 34.9729 29.2471 34.9735H28.0864C27.3522 34.9742 26.6173 34.9761 25.8831 34.9735C23.9837 34.9671 22.3809 33.6129 22.0459 31.7427C21.9472 31.1896 21.9855 30.6475 22.1147 30.1061H22.1141ZM23.8584 44.4597C23.2897 44.4481 23.3663 44.5097 23.3618 43.967C23.3592 43.6457 23.3572 43.325 23.3624 43.0037C23.365 42.8459 23.2981 42.7732 23.1417 42.7739C22.6438 42.7752 22.1459 42.7758 21.6473 42.7739C21.476 42.7732 21.4208 42.8583 21.4227 43.0205C21.4286 43.4269 21.4195 43.8333 21.4273 44.2397C21.4299 44.402 21.3675 44.4617 21.2078 44.4591C20.586 44.4487 20.6872 44.5324 20.6846 43.943C20.6794 42.8745 20.6833 41.806 20.6833 40.7374C20.6833 40.4492 20.6833 40.4466 20.9631 40.4486C21.4941 40.4518 21.4201 40.3901 21.4253 40.9069C21.4279 41.2217 21.4312 41.5366 21.424 41.8508C21.4201 42.0221 21.4766 42.1039 21.6603 42.102C22.1517 42.0955 22.6431 42.0968 23.1352 42.102C23.3072 42.1033 23.3663 42.028 23.3644 41.8637C23.3585 41.4639 23.3676 41.0633 23.3598 40.6641C23.3566 40.5018 23.4169 40.4434 23.5779 40.4466C24.1972 40.459 24.0986 40.3733 24.1044 40.9621C24.1089 41.4606 24.1051 41.9585 24.1051 42.4571C24.1051 43.04 24.0999 43.6243 24.1077 44.2072C24.1102 44.3929 24.0499 44.4649 23.859 44.461L23.8584 44.4597ZM24.0719 35.9226C23.9765 35.7655 23.9953 35.7324 24.1771 35.7272C24.2888 35.724 24.3998 35.7266 24.5114 35.7266C24.5114 35.7233 24.5114 35.7207 24.5114 35.7175C25.7163 35.6798 26.9211 35.6493 28.1253 35.6013C28.8842 35.5708 29.643 35.5318 30.4039 35.5292C30.459 35.5292 30.5363 35.5052 30.559 35.576C30.5785 35.635 30.5116 35.6617 30.4694 35.6909C29.5963 36.2959 28.7128 36.8808 27.7728 37.3826C26.6829 37.9642 25.7494 37.6754 24.9503 36.9769C24.603 36.6731 24.3115 36.318 24.0719 35.9226ZM28.7978 41.8378H28.7894C28.7894 42.2182 28.7939 42.5979 28.7888 42.9783C28.7784 43.6788 28.3804 44.2676 27.6975 44.4091C27.0445 44.5435 26.3576 44.5928 25.8221 44.0352C25.5579 43.7593 25.4151 43.4178 25.4079 43.0413C25.3923 42.2487 25.4053 41.4554 25.3995 40.6628C25.3982 40.4999 25.4599 40.4427 25.6195 40.446C26.2427 40.4583 26.1376 40.3713 26.1434 40.9614C26.1499 41.584 26.1519 42.2065 26.1447 42.829C26.135 43.6165 26.8737 44.0034 27.5534 43.708C27.9942 43.5165 28.0688 43.1075 28.074 42.6875C28.0838 42.0066 28.0805 41.3249 28.0714 40.6433C28.0701 40.4966 28.1097 40.4382 28.2571 40.4466C28.3876 40.4544 28.5193 40.4499 28.6505 40.4486C28.7686 40.4473 28.803 40.4999 28.8011 40.6199C28.7926 41.0263 28.7978 41.432 28.7978 41.8384V41.8378ZM33.3108 44.4247C33.2452 44.4214 33.1797 44.4247 33.1141 44.4247C32.7318 44.4162 32.7616 44.4974 32.5786 44.0586C32.3332 43.4704 32.4448 43.5665 31.834 43.5593C31.4542 43.5548 31.0738 43.5626 30.694 43.5568C30.5363 43.5542 30.4337 43.6132 30.376 43.7619C30.3097 43.9333 30.2338 44.1001 30.1598 44.2682C30.1338 44.328 30.1124 44.4149 30.0462 44.4188C29.832 44.4331 29.6151 44.4416 29.4016 44.4247C29.31 44.4175 29.3723 44.3293 29.3925 44.2832C29.606 43.7976 29.8229 43.3133 30.0371 42.8277C30.3571 42.1033 30.6804 41.3788 30.9927 40.6511C31.0563 40.5037 31.1413 40.457 31.2997 40.4395C31.6405 40.4012 31.8151 40.5128 31.9534 40.8478C32.4228 41.9858 32.9343 43.1062 33.4361 44.2306C33.5062 44.387 33.4673 44.4331 33.3095 44.424L33.3108 44.4247ZM39.2084 40.6388C38.9118 41.4794 38.6229 42.3227 38.3314 43.1647C38.2107 43.5113 38.0854 43.8567 37.9731 44.2059C37.9237 44.3604 37.8426 44.4292 37.6751 44.424C37.1792 44.4098 37.2772 44.4799 37.1214 44.0293C36.8812 43.336 36.6222 42.6492 36.4112 41.9468C36.3956 41.8949 36.3735 41.8423 36.3099 41.8417C36.2223 41.8417 36.2152 41.9196 36.1944 41.9793C35.9412 42.7102 35.6822 43.4393 35.4407 44.1741C35.3784 44.363 35.2888 44.4331 35.0902 44.4266C34.713 44.4136 34.7156 44.4234 34.5942 44.0754C34.2028 42.9563 33.8094 41.8371 33.416 40.7186C33.403 40.6816 33.3971 40.6414 33.3796 40.6063C33.3141 40.4732 33.3803 40.4447 33.4978 40.4499C33.5763 40.4525 33.6555 40.4499 33.7341 40.4499C33.7866 40.4499 33.8399 40.457 33.8912 40.4486C34.0814 40.4181 34.158 40.5232 34.2086 40.6868C34.4494 41.4626 34.6961 42.2364 34.9408 43.0108C34.959 43.0673 34.9753 43.1316 35.0493 43.1322C35.1233 43.1322 35.1395 43.0692 35.1583 43.0115C35.4206 42.2156 35.6854 41.4197 35.9438 40.6219C35.9821 40.5044 36.0386 40.4512 36.1645 40.446C36.5988 40.4271 36.6072 40.4207 36.7475 40.827C36.9948 41.5457 37.2304 42.2682 37.4713 42.9887C37.4908 43.0472 37.4862 43.1354 37.5764 43.1303C37.6556 43.1251 37.6647 43.0478 37.6849 42.9848C37.9367 42.1981 38.1912 41.4126 38.4411 40.6258C38.4807 40.5012 38.5489 40.4401 38.6826 40.4486C38.8137 40.4557 38.9449 40.4531 39.076 40.4492C39.2227 40.4447 39.2578 40.4947 39.2071 40.6394L39.2084 40.6388ZM37.9224 37.4806C36.8903 36.9814 35.9607 36.3199 35.0129 35.685C34.9727 35.6578 34.909 35.6318 34.9363 35.5669C34.9571 35.5156 35.0155 35.5312 35.0596 35.5305C35.1778 35.5279 35.2959 35.5299 35.4141 35.5299C35.4141 35.5325 35.4141 35.5344 35.4141 35.537C36.678 35.5753 37.9413 35.6045 39.2045 35.6545C39.892 35.6811 40.5782 35.7253 41.2663 35.7279C41.5162 35.7285 41.5337 35.7564 41.4007 35.9642C41.0021 36.5841 40.5288 37.1262 39.8498 37.4592C39.2091 37.7734 38.5762 37.7974 37.9237 37.4819L37.9224 37.4806ZM42.8353 44.4266C41.9959 44.4188 41.1566 44.4201 40.3172 44.4266C40.1478 44.4279 40.0848 44.3727 40.0868 44.2001C40.0945 43.61 40.09 43.0199 40.09 42.4292C40.09 41.8521 40.0952 41.275 40.0868 40.6972C40.0842 40.5154 40.1335 40.4408 40.3289 40.4427C41.1423 40.4512 41.9557 40.4492 42.7684 40.444C42.9346 40.4427 43.0047 40.4947 43.0015 40.6693C42.9924 41.1763 43.0398 41.1107 42.5581 41.1133C42.066 41.1159 41.574 41.1192 41.0826 41.1107C40.893 41.1075 40.8184 41.1789 40.8313 41.3652C40.8398 41.4898 40.832 41.6145 40.8326 41.7391C40.8339 42.0033 40.8521 42.0228 41.1092 42.0234C41.4506 42.0247 41.7914 42.028 42.1323 42.0221C42.29 42.0195 42.3711 42.0624 42.3341 42.2377C42.3205 42.3006 42.329 42.3688 42.3309 42.4344C42.3387 42.6862 42.3393 42.6869 42.0946 42.6875C41.7531 42.6888 41.4123 42.694 41.0715 42.6856C40.8911 42.681 40.8235 42.7563 40.8313 42.9316C40.8398 43.1212 40.8313 43.312 40.8339 43.5022C40.8359 43.7528 40.8709 43.7898 41.1176 43.7905C41.6752 43.7924 42.2329 43.7905 42.7905 43.7911C43.0742 43.7911 43.0768 43.795 43.0781 44.0754C43.0781 44.1085 43.0748 44.1416 43.0781 44.1741C43.0995 44.3578 43.0287 44.4299 42.8359 44.4279L42.8353 44.4266ZM43.4507 31.7492C43.1631 33.2364 42.2958 34.2406 40.8696 34.7593C40.3484 34.9489 39.8024 34.956 39.2604 34.9664C38.5723 34.9807 37.8835 34.9697 37.1947 34.9697V34.971C36.467 34.971 35.7393 34.9716 35.0116 34.9697C34.9441 34.9697 34.8448 35.0021 34.8214 34.9164C34.8 34.8359 34.8967 34.8041 34.9538 34.7658C36.0178 34.0699 37.1052 33.4117 38.2035 32.7709C39.6473 31.929 41.1072 31.1169 42.5717 30.3126C42.7671 30.2055 42.9671 30.1061 43.1579 29.9912C43.2956 29.9081 43.352 29.9477 43.389 30.0919C43.5318 30.6404 43.5559 31.198 43.4494 31.7485L43.4507 31.7492ZM44.8432 40.9802C44.8496 42.0416 44.8457 43.1036 44.8444 44.165C44.8444 44.4136 44.8347 44.4214 44.5932 44.424C44.2868 44.4266 44.1338 44.2752 44.1343 43.9696V42.4363H44.1232C44.1232 41.8202 44.1252 41.2042 44.1213 40.5888C44.1206 40.4979 44.146 40.4512 44.2388 40.4499C44.2518 40.4499 44.2647 40.4486 44.2784 40.4486C44.9587 40.4551 44.8399 40.3661 44.8438 40.9809L44.8432 40.9802ZM32.0183 42.7031C32.0781 42.8401 32.0391 42.9212 31.882 42.9238C31.7243 42.9264 31.5672 42.9245 31.4094 42.9245C31.2588 42.9245 31.1082 42.9258 30.9569 42.9245C30.8141 42.9232 30.7629 42.855 30.8193 42.7219C30.981 42.3422 31.1452 41.9631 31.3094 41.5846C31.3302 41.5372 31.3523 41.4833 31.4179 41.4866C31.4789 41.4898 31.5055 41.5379 31.5276 41.5872C31.6912 41.9592 31.8547 42.3305 32.017 42.7031H32.0183Z" fill="url(#paint0_linear_104_2)"/>
<path d="M30.6752 34.9132C30.648 35.006 30.5408 34.971 30.4668 34.971C30.0605 34.9749 29.6534 34.9736 29.2471 34.9742H28.0864C27.3522 34.9749 26.6173 34.9768 25.8831 34.9742C23.9837 34.9677 22.3809 33.6136 22.0459 31.7433C21.9473 31.1903 21.9856 30.6482 22.1147 30.1068C22.1511 29.9523 22.2108 29.9361 22.3458 30.0094C23.9239 30.8663 25.4962 31.7343 27.0503 32.6353C28.1902 33.2961 29.325 33.9648 30.4253 34.6905C30.4636 34.7159 30.5038 34.7386 30.5395 34.7678C30.5921 34.8113 30.6999 34.8321 30.6759 34.9132H30.6752Z" fill="white"/>
<path d="M24.1063 44.2053C24.1089 44.3909 24.0486 44.463 23.8577 44.4591C23.2891 44.4474 23.3657 44.5091 23.3611 43.9664C23.3585 43.6451 23.3566 43.3244 23.3618 43.003C23.3644 42.8453 23.2975 42.7726 23.141 42.7732C22.6431 42.7745 22.1452 42.7752 21.6467 42.7732C21.4753 42.7726 21.4201 42.8576 21.4221 43.0199C21.4279 43.4263 21.4188 43.8327 21.4266 44.239C21.4292 44.4013 21.3669 44.461 21.2072 44.4585C20.5853 44.4481 20.6866 44.5318 20.684 43.9424C20.6788 42.8739 20.6827 41.8053 20.6827 40.7368C20.6827 40.4486 20.6827 40.446 20.9625 40.4479C21.4935 40.4512 21.4195 40.3895 21.4247 40.9062C21.4273 41.2211 21.4305 41.5359 21.4234 41.8501C21.4195 42.0215 21.4759 42.1033 21.6597 42.1013C22.1511 42.0949 22.6425 42.0962 23.1346 42.1013C23.3066 42.1026 23.3657 42.0273 23.3637 41.8631C23.3579 41.4632 23.367 41.0627 23.3592 40.6635C23.3559 40.5012 23.4163 40.4427 23.5773 40.446C24.1966 40.4583 24.0979 40.3726 24.1037 40.9614C24.1083 41.46 24.1044 41.9579 24.1044 42.4564C24.1044 43.0394 24.0992 43.6236 24.107 44.2066L24.1063 44.2053Z" fill="white"/>
<path d="M31.2082 34.1271C31.1504 34.1796 31.0725 34.1102 31.0108 34.0784C30.5843 33.8609 30.1565 33.646 29.7352 33.4201C28.4402 32.7268 27.162 32.0056 25.9578 31.1597C25.4099 30.7748 24.8841 30.3645 24.416 29.8816C23.8467 29.2934 23.5468 28.6001 23.5461 27.6296C23.537 26.9538 23.8856 26.254 24.3108 25.5835C24.5393 25.2232 24.8068 24.8915 25.1067 24.5863C25.2697 24.4202 25.2833 24.4221 25.4319 24.611C26.3148 25.736 27.1373 26.9045 27.9182 28.1022C29.0186 29.7894 30.0157 31.5356 30.8953 33.3487C30.9868 33.537 31.0796 33.7259 31.1621 33.9187C31.1894 33.9842 31.2835 34.0583 31.2088 34.1258L31.2082 34.1271Z" fill="white"/>
<path d="M28.7979 41.8378H28.7894C28.7894 42.2182 28.794 42.598 28.7888 42.9784C28.7784 43.6788 28.3804 44.2676 27.6975 44.4091C27.0445 44.5435 26.3577 44.5928 25.8221 44.0352C25.5579 43.7593 25.4151 43.4178 25.4079 43.0413C25.3924 42.2487 25.4053 41.4554 25.3995 40.6628C25.3982 40.4999 25.4599 40.4427 25.6196 40.446C26.2428 40.4583 26.1376 40.3713 26.1434 40.9614C26.1499 41.584 26.1519 42.2065 26.1447 42.8291C26.135 43.6165 26.8737 44.0034 27.5534 43.708C27.9942 43.5165 28.0688 43.1076 28.074 42.6875C28.0838 42.0066 28.0805 41.325 28.0714 40.6433C28.0701 40.4966 28.1097 40.4382 28.2571 40.4466C28.3876 40.4544 28.5194 40.4499 28.6505 40.4486C28.7686 40.4473 28.803 40.4999 28.8011 40.62C28.7927 41.0263 28.7979 41.4321 28.7979 41.8384V41.8378Z" fill="white"/>
<path d="M37.6485 24.6779C37.6719 25.6542 37.3843 26.4825 37.0538 27.2985C36.5014 28.6644 35.7705 29.938 35.0083 31.1935C34.5591 31.9329 34.0963 32.6645 33.6036 33.376C33.551 33.4526 33.5114 33.5883 33.4043 33.5616C33.3121 33.5383 33.3348 33.4 33.329 33.3163C33.2855 32.7288 33.2251 32.1432 33.1913 31.5551C33.1316 30.5086 33.0622 29.4628 33.0823 28.4144C33.1108 26.9408 33.2017 25.4698 33.4854 24.0196C33.6354 23.2536 33.8399 22.5006 34.1898 21.7962C34.2527 21.6697 34.3293 21.5749 34.489 21.5944C35.3212 21.6937 36.1243 21.8754 36.7429 22.4947C37.3628 23.116 37.7238 23.8508 37.6491 24.6785L37.6485 24.6779Z" fill="white"/>
<path d="M41.9706 27.8094C41.9343 28.7604 41.5234 29.5278 40.8197 30.1535C39.5616 31.2733 38.1166 32.1121 36.6579 32.932C35.9497 33.3305 35.231 33.7109 34.504 34.0738C34.443 34.1043 34.3722 34.1783 34.3073 34.1225C34.2274 34.0531 34.3118 33.9771 34.3423 33.9122C35.1343 32.2172 36.0334 30.582 37.0221 28.9941C37.9484 27.5069 38.9416 26.0677 40.0179 24.6857C40.2406 24.4 40.2452 24.3935 40.4847 24.661C41.0988 25.3459 41.6201 26.0892 41.8525 26.996C41.92 27.2596 41.9959 27.5277 41.97 27.8101L41.9706 27.8094Z" fill="white"/>
<path d="M32.2871 32.0173C32.2624 32.4613 32.2098 32.9034 32.1689 33.3468C32.1663 33.3727 32.1644 33.3994 32.1566 33.424C32.139 33.4773 32.1501 33.5584 32.08 33.5701C32.0118 33.5818 31.9858 33.5084 31.9547 33.461C31.5347 32.8197 31.1023 32.1854 30.6986 31.533C30.0429 30.4742 29.4217 29.3947 28.879 28.2716C28.4609 27.4076 28.0948 26.5241 27.9065 25.5802C27.6864 24.4753 27.8591 23.449 28.6505 22.596C29.0464 22.1695 29.5443 21.8917 30.115 21.7579C30.3571 21.7008 30.6012 21.6502 30.8453 21.6054C31.1491 21.5502 31.2231 21.5944 31.3536 21.8722C31.7697 22.7596 31.98 23.7054 32.128 24.6662C32.3364 26.0216 32.4175 27.3868 32.4091 28.828C32.4208 29.8465 32.3474 30.9312 32.2871 32.0173Z" fill="white"/>
<path d="M30.4694 35.6902C29.5963 36.2953 28.7128 36.8802 27.7728 37.382C26.6829 37.9636 25.7494 37.6747 24.9503 36.9762C24.603 36.6724 24.3115 36.3173 24.072 35.922C23.9765 35.7649 23.9954 35.7318 24.1771 35.7266C24.2888 35.7233 24.3998 35.7259 24.5114 35.7259C24.5114 35.7227 24.5114 35.7201 24.5114 35.7169C25.7163 35.6792 26.9211 35.6487 28.1253 35.6007C28.8842 35.5701 29.6431 35.5312 30.4039 35.5286C30.459 35.5286 30.5363 35.5046 30.559 35.5753C30.5785 35.6344 30.5116 35.661 30.4694 35.6902Z" fill="white"/>
<path d="M43.4507 31.7492C43.1631 33.2364 42.2958 34.2407 40.8696 34.7593C40.3484 34.9489 39.8024 34.956 39.2604 34.9664C38.5723 34.9807 37.8835 34.9697 37.1947 34.9697V34.971C36.467 34.971 35.7393 34.9716 35.0116 34.9697C34.9441 34.9697 34.8448 35.0021 34.8214 34.9164C34.8 34.8359 34.8967 34.8041 34.9538 34.7658C36.0178 34.0699 37.1052 33.4117 38.2035 32.771C39.6473 31.929 41.1072 31.1169 42.5717 30.3126C42.7671 30.2055 42.9671 30.1062 43.1579 29.9913C43.2956 29.9082 43.352 29.9478 43.389 30.0919C43.5318 30.6404 43.5559 31.198 43.4494 31.7485L43.4507 31.7492Z" fill="white"/>
<path d="M42.8353 44.4266C41.9959 44.4189 41.1566 44.4201 40.3172 44.4266C40.1478 44.4279 40.0848 44.3728 40.0868 44.2001C40.0946 43.61 40.09 43.0199 40.09 42.4292C40.09 41.8521 40.0952 41.275 40.0868 40.6972C40.0842 40.5154 40.1335 40.4408 40.3289 40.4427C41.1423 40.4512 41.9557 40.4492 42.7684 40.444C42.9346 40.4427 43.0047 40.4947 43.0015 40.6693C42.9924 41.1763 43.0398 41.1107 42.5581 41.1133C42.0661 41.1159 41.574 41.1192 41.0826 41.1107C40.893 41.1075 40.8184 41.1789 40.8314 41.3652C40.8398 41.4898 40.832 41.6145 40.8327 41.7391C40.8339 42.0033 40.8521 42.0228 41.1092 42.0234C41.4507 42.0247 41.7915 42.028 42.1323 42.0222C42.29 42.0196 42.3712 42.0624 42.3342 42.2377C42.3205 42.3006 42.329 42.3688 42.3309 42.4344C42.3387 42.6862 42.3394 42.6869 42.0946 42.6875C41.7532 42.6888 41.4124 42.694 41.0715 42.6856C40.8911 42.681 40.8236 42.7564 40.8314 42.9316C40.8398 43.1212 40.8314 43.312 40.8339 43.5022C40.8359 43.7528 40.871 43.7898 41.1176 43.7905C41.6753 43.7924 42.2329 43.7905 42.7905 43.7911C43.0742 43.7911 43.0768 43.795 43.0781 44.0754C43.0781 44.1086 43.0749 44.1417 43.0781 44.1741C43.0995 44.3578 43.0288 44.4299 42.836 44.4279L42.8353 44.4266Z" fill="white"/>
<path d="M44.8432 40.9802C44.8496 42.0416 44.8458 43.1037 44.8445 44.165C44.8445 44.4137 44.8347 44.4214 44.5932 44.424C44.2868 44.4266 44.1338 44.2752 44.1343 43.9696V42.4363H44.1232C44.1232 41.8203 44.1252 41.2042 44.1213 40.5888C44.1206 40.4979 44.146 40.4512 44.2388 40.4499C44.2518 40.4499 44.2648 40.4486 44.2784 40.4486C44.9587 40.4551 44.8399 40.3661 44.8438 40.9809L44.8432 40.9802Z" fill="white"/>
<path d="M41.3994 35.9635C41.0008 36.5835 40.5276 37.1255 39.8485 37.4586C39.2078 37.7728 38.5749 37.7968 37.9225 37.4813C36.8903 36.9821 35.9607 36.3206 35.0129 35.6857C34.9727 35.6584 34.9091 35.6325 34.9363 35.5676C34.9571 35.5163 35.0155 35.5318 35.0597 35.5312C35.1778 35.5286 35.296 35.5306 35.4141 35.5306C35.4141 35.5331 35.4141 35.5351 35.4141 35.5377C36.678 35.576 37.9413 35.6052 39.2046 35.6552C39.892 35.6818 40.5782 35.7259 41.2663 35.7285C41.5162 35.7292 41.5338 35.7571 41.4007 35.9648L41.3994 35.9635Z" fill="white"/>
<path d="M33.4374 44.2313C32.9356 43.1069 32.424 41.9858 31.9547 40.8485C31.8164 40.5129 31.6418 40.4019 31.301 40.4402C31.142 40.4577 31.0569 40.5044 30.9939 40.6518C30.6817 41.3795 30.3591 42.1033 30.0384 42.8284C29.8242 43.314 29.6073 43.7983 29.3938 44.2838C29.373 44.3306 29.3113 44.4182 29.4028 44.4254C29.6164 44.4422 29.8332 44.4338 30.0475 44.4195C30.1137 44.415 30.1351 44.3286 30.1611 44.2689C30.2344 44.1014 30.3104 43.9339 30.3772 43.7626C30.435 43.6133 30.5376 43.5548 30.6953 43.5574C31.0757 43.5626 31.4555 43.5548 31.8353 43.56C32.4468 43.5672 32.3345 43.4711 32.5798 44.0592C32.7623 44.4974 32.733 44.4169 33.1154 44.4254C33.181 44.4254 33.2465 44.4221 33.3121 44.4254C33.4698 44.4351 33.5088 44.389 33.4387 44.2319L33.4374 44.2313ZM31.8826 42.9238C31.7249 42.9264 31.5678 42.9245 31.4101 42.9245C31.2595 42.9245 31.1088 42.9258 30.9576 42.9245C30.8148 42.9232 30.7635 42.855 30.82 42.722C30.9816 42.3422 31.1458 41.9631 31.3101 41.5846C31.3309 41.5372 31.3529 41.4834 31.4185 41.4866C31.4795 41.4898 31.5061 41.5379 31.5282 41.5872C31.6918 41.9592 31.8554 42.3305 32.0177 42.7031C32.0774 42.8401 32.0384 42.9212 31.8813 42.9238H31.8826Z" fill="white"/>
<path d="M39.2084 40.6388C38.9118 41.4795 38.6229 42.3227 38.3314 43.1647C38.2107 43.5113 38.0854 43.8567 37.9731 44.2059C37.9238 44.3604 37.8426 44.4292 37.6751 44.4241C37.1792 44.4098 37.2772 44.4799 37.1214 44.0294C36.8812 43.3361 36.6222 42.6492 36.4112 41.9469C36.3956 41.8949 36.3736 41.8423 36.3099 41.8417C36.2223 41.8417 36.2152 41.9196 36.1944 41.9793C35.9412 42.7103 35.6822 43.4393 35.4407 44.1741C35.3784 44.363 35.2888 44.4331 35.0902 44.4266C34.713 44.4137 34.7156 44.4234 34.5942 44.0755C34.2028 42.9563 33.8094 41.8371 33.416 40.7186C33.403 40.6816 33.3972 40.6414 33.3796 40.6063C33.3141 40.4733 33.3803 40.4447 33.4978 40.4499C33.5763 40.4525 33.6555 40.4499 33.7341 40.4499C33.7867 40.4499 33.8399 40.457 33.8912 40.4486C34.0814 40.4181 34.158 40.5232 34.2086 40.6868C34.4494 41.4626 34.6961 42.2364 34.9409 43.0108C34.959 43.0673 34.9753 43.1316 35.0493 43.1322C35.1233 43.1322 35.1395 43.0693 35.1583 43.0115C35.4206 42.2156 35.6855 41.4197 35.9438 40.6219C35.9821 40.5044 36.0386 40.4512 36.1645 40.446C36.5988 40.4272 36.6073 40.4207 36.7475 40.8271C36.9948 41.5457 37.2305 42.2682 37.4713 42.9888C37.4908 43.0472 37.4862 43.1355 37.5765 43.1303C37.6557 43.1251 37.6647 43.0478 37.6849 42.9849C37.9367 42.1981 38.1912 41.4126 38.4411 40.6258C38.4807 40.5012 38.5489 40.4402 38.6826 40.4486C38.8138 40.4557 38.9449 40.4531 39.076 40.4492C39.2227 40.4447 39.2578 40.4947 39.2071 40.6394L39.2084 40.6388Z" fill="white"/>
<path d="M42.6237 13.8823C42.4238 14.1387 42.2271 14.3978 42.0232 14.6516C40.4996 16.5523 38.5658 17.8584 36.2509 18.5946C34.5527 19.1347 32.8136 19.2658 31.0453 19.0321C29.1783 18.7854 27.4749 18.1175 25.9136 17.0755C25.1541 16.5686 24.4595 15.9817 23.8526 15.2988C23.4936 14.8944 23.1307 14.4912 22.8282 14.0401C22.7905 13.9836 22.7665 13.9076 22.6899 13.8823C22.5406 13.6311 22.3887 13.3818 22.2439 13.128C22.0894 12.8573 22.1537 12.5924 22.3997 12.4522C22.6231 12.325 22.8782 12.4055 23.0333 12.6554C23.1781 12.8872 23.3066 13.1286 23.4806 13.3409C23.7656 13.8226 24.1291 14.2439 24.5076 14.6509C25.9812 16.2368 27.7631 17.317 29.858 17.8675C31.1959 18.2187 32.5559 18.307 33.9314 18.1454C36.6534 17.8253 38.9326 16.6354 40.8073 14.6509C41.1547 14.2835 41.4675 13.8888 41.7571 13.4747C41.7856 13.4331 41.8337 13.4 41.8259 13.339C41.9999 13.1345 42.1336 12.904 42.2693 12.6742C42.3524 12.534 42.4614 12.4243 42.6321 12.4022C42.8178 12.3782 42.9684 12.4438 43.0742 12.597C43.1807 12.7502 43.1917 12.9164 43.0995 13.0787C42.945 13.3494 42.7821 13.6155 42.6231 13.8836L42.6237 13.8823Z" fill="#FEFEFE"/>
<path d="M42.6237 13.8823C42.7827 13.6142 42.945 13.3481 43.1002 13.0774C43.193 12.9151 43.1813 12.7489 43.0749 12.5957C42.969 12.4431 42.8184 12.3769 42.6328 12.4009C42.462 12.423 42.353 12.5327 42.2699 12.6729C42.1342 12.9027 41.9998 13.1332 41.8265 13.3377C41.7097 13.2728 41.6681 13.1501 41.646 13.0391C41.5071 12.3315 41.8934 11.7329 42.5711 11.6025C43.2975 11.4629 43.9402 12.0342 43.9402 12.7359C43.9402 13.3831 43.4721 13.8278 42.873 13.9258C42.7847 13.9401 42.7074 13.8908 42.6237 13.8817V13.8823Z" fill="#D4313E"/>
<path d="M23.4812 13.3403C23.3072 13.128 23.1787 12.8865 23.0339 12.6548C22.8781 12.4055 22.6237 12.3243 22.4003 12.4516C22.1543 12.5918 22.0907 12.8567 22.2445 13.1274C22.3893 13.3812 22.5412 13.6305 22.6905 13.8817C22.005 13.968 21.4876 13.513 21.3721 12.88C21.2773 12.3613 21.7726 11.6693 22.2978 11.607C22.9632 11.5278 23.4085 11.7907 23.648 12.4022C23.7597 12.6879 23.6708 13.1877 23.4806 13.3409L23.4812 13.3403Z" fill="#D4313E"/>
</g>
<path d="M67.1094 45H64.5469L70.3047 29H73.0938L78.8516 45H76.2891L71.7656 31.9062H71.6406L67.1094 45ZM67.5391 38.7344H75.8516V40.7656H67.5391V38.7344ZM80.9746 49.5V33H83.2559V34.9453H83.4512C83.5866 34.6953 83.7819 34.4062 84.0371 34.0781C84.2923 33.75 84.6465 33.4635 85.0996 33.2187C85.5527 32.9688 86.1517 32.8438 86.8965 32.8438C87.8652 32.8438 88.7298 33.0885 89.4902 33.5781C90.2507 34.0677 90.847 34.7734 91.2793 35.6953C91.7168 36.6172 91.9355 37.7266 91.9355 39.0234C91.9355 40.3203 91.7194 41.4323 91.2871 42.3594C90.8548 43.2812 90.2611 43.9922 89.5059 44.4922C88.7507 44.987 87.8887 45.2344 86.9199 45.2344C86.1908 45.2344 85.5944 45.112 85.1309 44.8672C84.6725 44.6224 84.3132 44.3359 84.0527 44.0078C83.7923 43.6797 83.5918 43.388 83.4512 43.1328H83.3105V49.5H80.9746ZM83.2637 39C83.2637 39.8437 83.3861 40.5833 83.6309 41.2188C83.8757 41.8542 84.2298 42.3516 84.6934 42.7109C85.1569 43.0651 85.7246 43.2422 86.3965 43.2422C87.0944 43.2422 87.6777 43.0573 88.1465 42.6875C88.6152 42.3125 88.9694 41.8047 89.209 41.1641C89.4538 40.5234 89.5762 39.8021 89.5762 39C89.5762 38.2083 89.4564 37.4974 89.2168 36.8672C88.9824 36.237 88.6283 35.7396 88.1543 35.375C87.6855 35.0104 87.0996 34.8281 86.3965 34.8281C85.7194 34.8281 85.1465 35.0026 84.6777 35.3516C84.2142 35.7005 83.8626 36.1875 83.623 36.8125C83.3835 37.4375 83.2637 38.1667 83.2637 39ZM94.5527 49.5V33H96.834V34.9453H97.0293C97.1647 34.6953 97.36 34.4062 97.6152 34.0781C97.8704 33.75 98.2246 33.4635 98.6777 33.2187C99.1309 32.9688 99.7298 32.8438 100.475 32.8438C101.443 32.8438 102.308 33.0885 103.068 33.5781C103.829 34.0677 104.425 34.7734 104.857 35.6953C105.295 36.6172 105.514 37.7266 105.514 39.0234C105.514 40.3203 105.298 41.4323 104.865 42.3594C104.433 43.2812 103.839 43.9922 103.084 44.4922C102.329 44.987 101.467 45.2344 100.498 45.2344C99.7689 45.2344 99.1725 45.112 98.709 44.8672C98.2507 44.6224 97.8913 44.3359 97.6309 44.0078C97.3704 43.6797 97.1699 43.388 97.0293 43.1328H96.8887V49.5H94.5527ZM96.8418 39C96.8418 39.8437 96.9642 40.5833 97.209 41.2188C97.4538 41.8542 97.8079 42.3516 98.2715 42.7109C98.735 43.0651 99.3027 43.2422 99.9746 43.2422C100.673 43.2422 101.256 43.0573 101.725 42.6875C102.193 42.3125 102.548 41.8047 102.787 41.1641C103.032 40.5234 103.154 39.8021 103.154 39C103.154 38.2083 103.035 37.4974 102.795 36.8672C102.561 36.237 102.206 35.7396 101.732 35.375C101.264 35.0104 100.678 34.8281 99.9746 34.8281C99.2975 34.8281 98.7246 35.0026 98.2559 35.3516C97.7923 35.7005 97.4408 36.1875 97.2012 36.8125C96.9616 37.4375 96.8418 38.1667 96.8418 39ZM124.969 34.0547C124.818 33.5807 124.615 33.1562 124.359 32.7812C124.109 32.401 123.81 32.0781 123.461 31.8125C123.112 31.5417 122.714 31.3359 122.266 31.1953C121.823 31.0547 121.336 30.9844 120.805 30.9844C119.904 30.9844 119.091 31.2161 118.367 31.6797C117.643 32.1432 117.07 32.8229 116.648 33.7187C116.232 34.6094 116.023 35.7005 116.023 36.9922C116.023 38.2891 116.234 39.3854 116.656 40.2812C117.078 41.1771 117.656 41.8568 118.391 42.3203C119.125 42.7839 119.961 43.0156 120.898 43.0156C121.768 43.0156 122.526 42.8385 123.172 42.4844C123.823 42.1302 124.326 41.6302 124.68 40.9844C125.039 40.3333 125.219 39.5677 125.219 38.6875L125.844 38.8047H121.266V36.8125H127.555V38.6328C127.555 39.9766 127.268 41.1432 126.695 42.1328C126.128 43.1172 125.341 43.8776 124.336 44.4141C123.336 44.9505 122.19 45.2187 120.898 45.2187C119.451 45.2187 118.18 44.8854 117.086 44.2188C115.997 43.5521 115.148 42.6068 114.539 41.3828C113.93 40.1536 113.625 38.6953 113.625 37.0078C113.625 35.7318 113.802 34.5859 114.156 33.5703C114.51 32.5547 115.008 31.6927 115.648 30.9844C116.294 30.2708 117.052 29.7266 117.922 29.3516C118.797 28.9714 119.753 28.7812 120.789 28.7812C121.654 28.7812 122.458 28.9089 123.203 29.1641C123.953 29.4193 124.62 29.7812 125.203 30.25C125.792 30.7187 126.279 31.276 126.664 31.9219C127.049 32.5625 127.31 33.2734 127.445 34.0547H124.969ZM133.924 45.2656C133.163 45.2656 132.476 45.125 131.861 44.8437C131.247 44.5573 130.76 44.1432 130.4 43.6016C130.046 43.0599 129.869 42.3958 129.869 41.6094C129.869 40.9323 129.999 40.375 130.26 39.9375C130.52 39.5 130.872 39.1536 131.314 38.8984C131.757 38.6432 132.252 38.4505 132.799 38.3203C133.346 38.1901 133.903 38.0911 134.471 38.0234C135.189 37.9401 135.773 37.8724 136.221 37.8203C136.669 37.763 136.994 37.6719 137.197 37.5469C137.4 37.4219 137.502 37.2187 137.502 36.9375V36.8828C137.502 36.2005 137.309 35.6719 136.924 35.2969C136.544 34.9219 135.976 34.7344 135.221 34.7344C134.434 34.7344 133.814 34.9089 133.361 35.2578C132.913 35.6016 132.604 35.9844 132.432 36.4062L130.236 35.9062C130.497 35.1771 130.877 34.5885 131.377 34.1406C131.882 33.6875 132.463 33.3594 133.119 33.1562C133.775 32.9479 134.465 32.8438 135.189 32.8438C135.669 32.8438 136.176 32.901 136.713 33.0156C137.255 33.125 137.76 33.3281 138.229 33.625C138.702 33.9219 139.09 34.3464 139.393 34.8984C139.695 35.4453 139.846 36.1563 139.846 37.0313V45H137.564V43.3594H137.471C137.32 43.6615 137.093 43.9583 136.791 44.25C136.489 44.5417 136.101 44.7839 135.627 44.9766C135.153 45.1693 134.585 45.2656 133.924 45.2656ZM134.432 43.3906C135.077 43.3906 135.63 43.263 136.088 43.0078C136.551 42.7526 136.903 42.4193 137.143 42.0078C137.387 41.5911 137.51 41.1458 137.51 40.6719V39.125C137.426 39.2083 137.265 39.2865 137.025 39.3594C136.791 39.4271 136.523 39.487 136.221 39.5391C135.919 39.5859 135.624 39.6302 135.338 39.6719C135.051 39.7083 134.812 39.7396 134.619 39.7656C134.166 39.8229 133.752 39.9193 133.377 40.0547C133.007 40.1901 132.71 40.3854 132.486 40.6406C132.268 40.8906 132.158 41.224 132.158 41.6406C132.158 42.2187 132.372 42.6562 132.799 42.9531C133.226 43.2448 133.77 43.3906 134.432 43.3906ZM145.293 29V45H142.957V29H145.293ZM150.771 29V45H148.436V29H150.771ZM157.406 45.2656C156.646 45.2656 155.958 45.125 155.344 44.8437C154.729 44.5573 154.242 44.1432 153.883 43.6016C153.529 43.0599 153.352 42.3958 153.352 41.6094C153.352 40.9323 153.482 40.375 153.742 39.9375C154.003 39.5 154.354 39.1536 154.797 38.8984C155.24 38.6432 155.734 38.4505 156.281 38.3203C156.828 38.1901 157.385 38.0911 157.953 38.0234C158.672 37.9401 159.255 37.8724 159.703 37.8203C160.151 37.763 160.477 37.6719 160.68 37.5469C160.883 37.4219 160.984 37.2187 160.984 36.9375V36.8828C160.984 36.2005 160.792 35.6719 160.406 35.2969C160.026 34.9219 159.458 34.7344 158.703 34.7344C157.917 34.7344 157.297 34.9089 156.844 35.2578C156.396 35.6016 156.086 35.9844 155.914 36.4062L153.719 35.9062C153.979 35.1771 154.359 34.5885 154.859 34.1406C155.365 33.6875 155.945 33.3594 156.602 33.1562C157.258 32.9479 157.948 32.8438 158.672 32.8438C159.151 32.8438 159.659 32.901 160.195 33.0156C160.737 33.125 161.242 33.3281 161.711 33.625C162.185 33.9219 162.573 34.3464 162.875 34.8984C163.177 35.4453 163.328 36.1563 163.328 37.0313V45H161.047V43.3594H160.953C160.802 43.6615 160.576 43.9583 160.273 44.25C159.971 44.5417 159.583 44.7839 159.109 44.9766C158.635 45.1693 158.068 45.2656 157.406 45.2656ZM157.914 43.3906C158.56 43.3906 159.112 43.263 159.57 43.0078C160.034 42.7526 160.385 42.4193 160.625 42.0078C160.87 41.5911 160.992 41.1458 160.992 40.6719V39.125C160.909 39.2083 160.747 39.2865 160.508 39.3594C160.273 39.4271 160.005 39.487 159.703 39.5391C159.401 39.5859 159.107 39.6302 158.82 39.6719C158.534 39.7083 158.294 39.7396 158.102 39.7656C157.648 39.8229 157.234 39.9193 156.859 40.0547C156.49 40.1901 156.193 40.3854 155.969 40.6406C155.75 40.8906 155.641 41.224 155.641 41.6406C155.641 42.2187 155.854 42.6562 156.281 42.9531C156.708 43.2448 157.253 43.3906 157.914 43.3906ZM166.439 45V33H168.697V34.9062H168.822C169.041 34.2604 169.426 33.7526 169.979 33.3828C170.536 33.0078 171.166 32.8203 171.869 32.8203C172.015 32.8203 172.187 32.8255 172.385 32.8359C172.588 32.8464 172.747 32.8594 172.861 32.875V35.1094C172.768 35.0833 172.601 35.0547 172.361 35.0234C172.122 34.987 171.882 34.9687 171.643 34.9687C171.09 34.9687 170.598 35.0859 170.166 35.3203C169.739 35.5495 169.4 35.8698 169.15 36.2812C168.9 36.6875 168.775 37.151 168.775 37.6719V45H166.439ZM176.725 49.5C176.376 49.5 176.058 49.4714 175.771 49.4141C175.485 49.362 175.271 49.3047 175.131 49.2422L175.693 47.3281C176.12 47.4427 176.501 47.4922 176.834 47.4766C177.167 47.4609 177.462 47.3359 177.717 47.1016C177.977 46.8672 178.206 46.4844 178.404 45.9531L178.693 45.1563L174.303 33H176.803L179.842 42.3125H179.967L183.006 33H185.514L180.568 46.6016C180.339 47.2266 180.048 47.7552 179.693 48.1875C179.339 48.625 178.917 48.9531 178.428 49.1719C177.938 49.3906 177.37 49.5 176.725 49.5Z" fill="white"/>
<path d="M67.2614 23H65.3977L69.5852 11.3636H71.6136L75.8011 23H73.9375L70.6477 13.4773H70.5568L67.2614 23ZM67.5739 18.4432H73.6193V19.9205H67.5739V18.4432ZM83.7173 14.2727L80.5526 23H78.7344L75.5639 14.2727H77.3878L79.598 20.9886H79.6889L81.8935 14.2727H83.7173ZM87.6037 23.1932C87.0507 23.1932 86.5507 23.0909 86.1037 22.8864C85.6567 22.678 85.3026 22.3769 85.0412 21.983C84.7836 21.589 84.6548 21.1061 84.6548 20.5341C84.6548 20.0417 84.7495 19.6364 84.9389 19.3182C85.1283 19 85.384 18.7481 85.706 18.5625C86.0279 18.3769 86.3878 18.2367 86.7855 18.142C87.1832 18.0473 87.5885 17.9754 88.0014 17.9261C88.5241 17.8655 88.9484 17.8163 89.2741 17.7784C89.5999 17.7367 89.8366 17.6705 89.9844 17.5795C90.1321 17.4886 90.206 17.3409 90.206 17.1364V17.0966C90.206 16.6004 90.0658 16.2159 89.7855 15.9432C89.509 15.6705 89.0961 15.5341 88.5469 15.5341C87.9749 15.5341 87.5241 15.661 87.1946 15.9148C86.8688 16.1648 86.6435 16.4432 86.5185 16.75L84.9219 16.3864C85.1113 15.8561 85.3878 15.428 85.7514 15.1023C86.1188 14.7727 86.5412 14.5341 87.0185 14.3864C87.4957 14.2348 87.9976 14.1591 88.5241 14.1591C88.8726 14.1591 89.242 14.2008 89.6321 14.2841C90.026 14.3636 90.3935 14.5114 90.7344 14.7273C91.0791 14.9432 91.3613 15.2519 91.581 15.6534C91.8007 16.0511 91.9105 16.5682 91.9105 17.2045V23H90.2514V21.8068H90.1832C90.0734 22.0265 89.9086 22.2424 89.6889 22.4545C89.4692 22.6667 89.187 22.8428 88.8423 22.983C88.4976 23.1231 88.0848 23.1932 87.6037 23.1932ZM87.973 21.8295C88.4427 21.8295 88.8442 21.7367 89.1776 21.5511C89.5147 21.3655 89.7704 21.1231 89.9446 20.8239C90.1226 20.5208 90.2116 20.197 90.2116 19.8523V18.7273C90.151 18.7879 90.0336 18.8447 89.8594 18.8977C89.6889 18.947 89.4938 18.9905 89.2741 19.0284C89.0545 19.0625 88.8404 19.0947 88.6321 19.125C88.4238 19.1515 88.2495 19.1742 88.1094 19.1932C87.7798 19.2348 87.4787 19.3049 87.206 19.4034C86.937 19.5019 86.7211 19.6439 86.5582 19.8295C86.3991 20.0114 86.3196 20.2538 86.3196 20.5568C86.3196 20.9773 86.4749 21.2955 86.7855 21.5114C87.0961 21.7235 87.492 21.8295 87.973 21.8295ZM94.1733 23V14.2727H95.8722V23H94.1733ZM95.0312 12.9261C94.7358 12.9261 94.482 12.8277 94.2699 12.6307C94.0616 12.4299 93.9574 12.1913 93.9574 11.9148C93.9574 11.6345 94.0616 11.3958 94.2699 11.1989C94.482 10.9981 94.7358 10.8977 95.0312 10.8977C95.3267 10.8977 95.5786 10.9981 95.7869 11.1989C95.9991 11.3958 96.1051 11.6345 96.1051 11.9148C96.1051 12.1913 95.9991 12.4299 95.7869 12.6307C95.5786 12.8277 95.3267 12.9261 95.0312 12.9261ZM99.8565 11.3636V23H98.1577V11.3636H99.8565ZM104.682 23.1932C104.129 23.1932 103.629 23.0909 103.182 22.8864C102.735 22.678 102.381 22.3769 102.119 21.983C101.862 21.589 101.733 21.1061 101.733 20.5341C101.733 20.0417 101.828 19.6364 102.017 19.3182C102.206 19 102.462 18.7481 102.784 18.5625C103.106 18.3769 103.466 18.2367 103.864 18.142C104.261 18.0473 104.667 17.9754 105.08 17.9261C105.602 17.8655 106.027 17.8163 106.352 17.7784C106.678 17.7367 106.915 17.6705 107.062 17.5795C107.21 17.4886 107.284 17.3409 107.284 17.1364V17.0966C107.284 16.6004 107.144 16.2159 106.864 15.9432C106.587 15.6705 106.174 15.5341 105.625 15.5341C105.053 15.5341 104.602 15.661 104.273 15.9148C103.947 16.1648 103.722 16.4432 103.597 16.75L102 16.3864C102.189 15.8561 102.466 15.428 102.83 15.1023C103.197 14.7727 103.619 14.5341 104.097 14.3864C104.574 14.2348 105.076 14.1591 105.602 14.1591C105.951 14.1591 106.32 14.2008 106.71 14.2841C107.104 14.3636 107.472 14.5114 107.812 14.7273C108.157 14.9432 108.439 15.2519 108.659 15.6534C108.879 16.0511 108.989 16.5682 108.989 17.2045V23H107.33V21.8068H107.261C107.152 22.0265 106.987 22.2424 106.767 22.4545C106.547 22.6667 106.265 22.8428 105.92 22.983C105.576 23.1231 105.163 23.1932 104.682 23.1932ZM105.051 21.8295C105.521 21.8295 105.922 21.7367 106.256 21.5511C106.593 21.3655 106.848 21.1231 107.023 20.8239C107.201 20.5208 107.29 20.197 107.29 19.8523V18.7273C107.229 18.7879 107.112 18.8447 106.938 18.8977C106.767 18.947 106.572 18.9905 106.352 19.0284C106.133 19.0625 105.919 19.0947 105.71 19.125C105.502 19.1515 105.328 19.1742 105.188 19.1932C104.858 19.2348 104.557 19.3049 104.284 19.4034C104.015 19.5019 103.799 19.6439 103.636 19.8295C103.477 20.0114 103.398 20.2538 103.398 20.5568C103.398 20.9773 103.553 21.2955 103.864 21.5114C104.174 21.7235 104.57 21.8295 105.051 21.8295ZM111.388 23V11.3636H113.087V15.6875H113.189C113.287 15.5057 113.429 15.2955 113.615 15.0568C113.801 14.8182 114.058 14.6098 114.388 14.4318C114.717 14.25 115.153 14.1591 115.695 14.1591C116.399 14.1591 117.028 14.3371 117.581 14.6932C118.134 15.0492 118.568 15.5625 118.882 16.233C119.2 16.9034 119.359 17.7102 119.359 18.6534C119.359 19.5966 119.202 20.4053 118.888 21.0795C118.573 21.75 118.142 22.267 117.592 22.6307C117.043 22.9905 116.416 23.1705 115.712 23.1705C115.181 23.1705 114.748 23.0814 114.411 22.9034C114.077 22.7254 113.816 22.517 113.626 22.2784C113.437 22.0398 113.291 21.8277 113.189 21.642H113.047V23H111.388ZM113.053 18.6364C113.053 19.25 113.142 19.7879 113.32 20.25C113.498 20.7121 113.755 21.0739 114.092 21.3352C114.429 21.5928 114.842 21.7216 115.331 21.7216C115.839 21.7216 116.263 21.5871 116.604 21.3182C116.945 21.0455 117.202 20.6761 117.376 20.2102C117.554 19.7443 117.643 19.2197 117.643 18.6364C117.643 18.0606 117.556 17.5436 117.382 17.0852C117.212 16.6269 116.954 16.2652 116.609 16C116.268 15.7348 115.842 15.6023 115.331 15.6023C114.839 15.6023 114.422 15.7292 114.081 15.983C113.744 16.2367 113.488 16.5909 113.314 17.0455C113.14 17.5 113.053 18.0303 113.053 18.6364ZM122.966 11.3636V23H121.267V11.3636H122.966ZM129.013 23.1761C128.153 23.1761 127.412 22.9924 126.791 22.625C126.174 22.2538 125.696 21.733 125.359 21.0625C125.026 20.3883 124.859 19.5985 124.859 18.6932C124.859 17.7992 125.026 17.0114 125.359 16.3295C125.696 15.6477 126.166 15.1155 126.768 14.733C127.375 14.3504 128.083 14.1591 128.893 14.1591C129.386 14.1591 129.863 14.2405 130.325 14.4034C130.787 14.5663 131.202 14.822 131.57 15.1705C131.937 15.5189 132.227 15.9716 132.439 16.5284C132.651 17.0814 132.757 17.7538 132.757 18.5455V19.1477H125.82V17.875H131.092C131.092 17.428 131.001 17.0322 130.82 16.6875C130.638 16.339 130.382 16.0644 130.053 15.8636C129.727 15.6629 129.344 15.5625 128.905 15.5625C128.428 15.5625 128.011 15.6799 127.655 15.9148C127.303 16.1458 127.03 16.4489 126.837 16.8239C126.647 17.1951 126.553 17.5985 126.553 18.0341V19.0284C126.553 19.6117 126.655 20.108 126.859 20.517C127.068 20.9261 127.357 21.2386 127.729 21.4545C128.1 21.6667 128.534 21.7727 129.03 21.7727C129.352 21.7727 129.645 21.7273 129.911 21.6364C130.176 21.5417 130.405 21.4015 130.598 21.2159C130.791 21.0303 130.939 20.8011 131.041 20.5284L132.649 20.8182C132.52 21.2917 132.289 21.7064 131.956 22.0625C131.626 22.4148 131.212 22.6894 130.712 22.8864C130.215 23.0795 129.649 23.1761 129.013 23.1761ZM142.553 23.1761C141.734 23.1761 141.02 22.9886 140.411 22.6136C139.801 22.2386 139.327 21.714 138.99 21.0398C138.653 20.3655 138.484 19.5777 138.484 18.6761C138.484 17.7708 138.653 16.9792 138.99 16.3011C139.327 15.6231 139.801 15.0966 140.411 14.7216C141.02 14.3466 141.734 14.1591 142.553 14.1591C143.371 14.1591 144.085 14.3466 144.695 14.7216C145.304 15.0966 145.778 15.6231 146.115 16.3011C146.452 16.9792 146.621 17.7708 146.621 18.6761C146.621 19.5777 146.452 20.3655 146.115 21.0398C145.778 21.714 145.304 22.2386 144.695 22.6136C144.085 22.9886 143.371 23.1761 142.553 23.1761ZM142.558 21.75C143.089 21.75 143.528 21.6098 143.876 21.3295C144.225 21.0492 144.482 20.6761 144.649 20.2102C144.82 19.7443 144.905 19.2311 144.905 18.6705C144.905 18.1136 144.82 17.6023 144.649 17.1364C144.482 16.6667 144.225 16.2898 143.876 16.0057C143.528 15.7216 143.089 15.5795 142.558 15.5795C142.024 15.5795 141.581 15.7216 141.229 16.0057C140.88 16.2898 140.621 16.6667 140.45 17.1364C140.284 17.6023 140.2 18.1136 140.2 18.6705C140.2 19.2311 140.284 19.7443 140.45 20.2102C140.621 20.6761 140.88 21.0492 141.229 21.3295C141.581 21.6098 142.024 21.75 142.558 21.75ZM150.216 17.8182V23H148.517V14.2727H150.148V15.6932H150.256C150.456 15.2311 150.771 14.8598 151.199 14.5795C151.631 14.2992 152.174 14.1591 152.83 14.1591C153.424 14.1591 153.945 14.2841 154.392 14.5341C154.839 14.7803 155.186 15.1477 155.432 15.6364C155.678 16.125 155.801 16.7292 155.801 17.4489V23H154.102V17.6534C154.102 17.0208 153.938 16.5265 153.608 16.1705C153.278 15.8106 152.826 15.6307 152.25 15.6307C151.856 15.6307 151.506 15.7159 151.199 15.8864C150.896 16.0568 150.655 16.3068 150.477 16.6364C150.303 16.9621 150.216 17.3561 150.216 17.8182ZM166.388 14.2727V15.6364H161.621V14.2727H166.388ZM162.899 12.1818H164.598V20.4375C164.598 20.767 164.647 21.0152 164.746 21.1818C164.844 21.3447 164.971 21.4564 165.126 21.517C165.286 21.5739 165.458 21.6023 165.643 21.6023C165.78 21.6023 165.899 21.5928 166.001 21.5739C166.104 21.5549 166.183 21.5398 166.24 21.5284L166.547 22.9318C166.448 22.9697 166.308 23.0076 166.126 23.0455C165.945 23.0871 165.717 23.1098 165.445 23.1136C164.998 23.1212 164.581 23.0417 164.195 22.875C163.808 22.7083 163.496 22.4508 163.257 22.1023C163.018 21.7538 162.899 21.3163 162.899 20.7898V12.1818ZM170.153 17.8182V23H168.455V11.3636H170.131V15.6932H170.239C170.443 15.2235 170.756 14.8504 171.176 14.5739C171.597 14.2973 172.146 14.1591 172.824 14.1591C173.422 14.1591 173.945 14.2822 174.392 14.5284C174.843 14.7746 175.191 15.142 175.438 15.6307C175.688 16.1155 175.812 16.7216 175.812 17.4489V23H174.114V17.6534C174.114 17.0133 173.949 16.517 173.619 16.1648C173.29 15.8087 172.831 15.6307 172.244 15.6307C171.843 15.6307 171.483 15.7159 171.165 15.8864C170.85 16.0568 170.602 16.3068 170.42 16.6364C170.242 16.9621 170.153 17.3561 170.153 17.8182ZM181.841 23.1761C180.981 23.1761 180.241 22.9924 179.619 22.625C179.002 22.2538 178.525 21.733 178.188 21.0625C177.854 20.3883 177.688 19.5985 177.688 18.6932C177.688 17.7992 177.854 17.0114 178.188 16.3295C178.525 15.6477 178.994 15.1155 179.597 14.733C180.203 14.3504 180.911 14.1591 181.722 14.1591C182.214 14.1591 182.691 14.2405 183.153 14.4034C183.616 14.5663 184.03 14.822 184.398 15.1705C184.765 15.5189 185.055 15.9716 185.267 16.5284C185.479 17.0814 185.585 17.7538 185.585 18.5455V19.1477H178.648V17.875H183.92C183.92 17.428 183.83 17.0322 183.648 16.6875C183.466 16.339 183.21 16.0644 182.881 15.8636C182.555 15.6629 182.172 15.5625 181.733 15.5625C181.256 15.5625 180.839 15.6799 180.483 15.9148C180.131 16.1458 179.858 16.4489 179.665 16.8239C179.475 17.1951 179.381 17.5985 179.381 18.0341V19.0284C179.381 19.6117 179.483 20.108 179.688 20.517C179.896 20.9261 180.186 21.2386 180.557 21.4545C180.928 21.6667 181.362 21.7727 181.858 21.7727C182.18 21.7727 182.473 21.7273 182.739 21.6364C183.004 21.5417 183.233 21.4015 183.426 21.2159C183.619 21.0303 183.767 20.8011 183.869 20.5284L185.477 20.8182C185.348 21.2917 185.117 21.7064 184.784 22.0625C184.455 22.4148 184.04 22.6894 183.54 22.8864C183.044 23.0795 182.477 23.1761 181.841 23.1761Z" fill="white"/>
<defs>
<linearGradient id="paint0_linear_104_2" x1="32.724" y1="48.9967" x2="32.724" y2="8.99997" gradientUnits="userSpaceOnUse">
<stop offset="0.44" stop-color="#D4313E"/>
<stop offset="0.57" stop-color="#E2455C"/>
</linearGradient>
<clipPath id="clip0_104_2">
<rect width="40" height="39.9968" fill="white" transform="translate(12.724 9)"/>
</clipPath>
</defs>
</svg>
