<svg width="66" height="66" viewBox="0 0 66 66" fill="none" xmlns="http://www.w3.org/2000/svg">
<path d="M33.0059 12.3962C44.3851 12.3962 53.6101 21.6206 53.6104 32.9998C53.6104 44.3791 44.3852 53.6042 33.0059 53.6042C21.6266 53.6041 12.4023 44.379 12.4023 32.9998C12.4026 21.6207 21.6267 12.3964 33.0059 12.3962ZM40.1113 25.8953C39.3628 25.1467 38.1489 25.1468 37.4004 25.8953L33.0059 30.2898L28.6113 25.8953C27.8628 25.147 26.6488 25.1478 25.9004 25.8962C25.1524 26.6447 25.1523 27.8578 25.9004 28.6062L30.2949 33.0007L25.9004 37.3943C25.1521 38.1428 25.152 39.3568 25.9004 40.1052C26.6488 40.8537 27.8628 40.8535 28.6113 40.1052L33.0059 35.7107L37.4004 40.1052C38.1489 40.8537 39.3628 40.8538 40.1113 40.1052C40.8596 39.3567 40.8597 38.1437 40.1113 37.3953L35.7168 33.0007L40.1113 28.6052C40.8596 27.8567 40.8597 26.6437 40.1113 25.8953Z" fill="#00778E"/>
</svg>
