<svg width="56" height="56" viewBox="0 0 56 56" fill="none" xmlns="http://www.w3.org/2000/svg">
<path d="M28.0013 53.0846C14.1646 53.0846 2.91797 41.838 2.91797 28.0013C2.91797 14.1646 14.1646 2.91797 28.0013 2.91797C41.838 2.91797 53.0846 14.1646 53.0846 28.0013C53.0846 41.838 41.838 53.0846 28.0013 53.0846ZM28.0013 6.41797C16.1013 6.41797 6.41797 16.1013 6.41797 28.0013C6.41797 39.9013 16.1013 49.5846 28.0013 49.5846C39.9013 49.5846 49.5846 39.9013 49.5846 28.0013C49.5846 16.1013 39.9013 6.41797 28.0013 6.41797Z" fill="#555555"/>
<path d="M21.3965 36.3532C20.9532 36.3532 20.5098 36.1898 20.1598 35.8398C19.4832 35.1632 19.4832 34.0432 20.1598 33.3665L33.3665 20.1598C34.0432 19.4832 35.1632 19.4832 35.8398 20.1598C36.5165 20.8365 36.5165 21.9565 35.8398 22.6332L22.6332 35.8398C22.3065 36.1898 21.8398 36.3532 21.3965 36.3532Z" fill="#555555"/>
<path d="M34.6032 36.3532C34.1598 36.3532 33.7165 36.1898 33.3665 35.8398L20.1598 22.6332C19.4832 21.9565 19.4832 20.8365 20.1598 20.1598C20.8365 19.4832 21.9565 19.4832 22.6332 20.1598L35.8398 33.3665C36.5165 34.0432 36.5165 35.1632 35.8398 35.8398C35.4898 36.1898 35.0465 36.3532 34.6032 36.3532Z" fill="#555555"/>
</svg>
