<svg width="60" height="60" viewBox="0 0 60 60" fill="none" xmlns="http://www.w3.org/2000/svg">
<path d="M20 1H40C50.4934 1 59 9.50659 59 20V40C59 50.4934 50.4934 59 40 59H20C9.50659 59 1 50.4934 1 40V20C1 9.50659 9.50659 1 20 1Z" fill="#CFD6DC"/>
<path d="M20 1H40C50.4934 1 59 9.50659 59 20V40C59 50.4934 50.4934 59 40 59H20C9.50659 59 1 50.4934 1 40V20C1 9.50659 9.50659 1 20 1Z" stroke="white" stroke-width="2"/>
<path d="M37.5 17.5H22.5C20.425 17.5 18.75 19.1625 18.75 21.2125V34.85C18.75 36.9 20.425 38.575 22.5 38.575H23.45C24.4375 38.575 25.4 38.9625 26.1 39.6625L28.2375 41.775C29.2125 42.7375 30.7875 42.7375 31.7625 41.775L33.9 39.6625C34.6 38.9625 35.5625 38.575 36.55 38.575H37.5C39.575 38.575 41.25 36.9 41.25 34.85V21.2125C41.25 19.1625 39.575 17.5 37.5 17.5ZM30 21.9375C31.35 21.9375 32.4375 23.0375 32.4375 24.375C32.4375 25.7 31.3875 26.7625 30.0875 26.8125C30.0375 26.8125 29.9625 26.8125 29.9 26.8125C28.5875 26.7625 27.55 25.7 27.55 24.375C27.5625 23.0375 28.65 21.9375 30 21.9375ZM33.4375 33.3625C31.55 34.625 28.45 34.625 26.5625 33.3625C24.9 32.2625 24.9 30.4375 26.5625 29.325C28.4625 28.0625 31.5625 28.0625 33.4375 29.325C35.1 30.4375 35.1 32.25 33.4375 33.3625Z" fill="#6C7C89"/>
</svg>
