<svg width="24" height="24" viewBox="0 0 24 24" fill="none" xmlns="http://www.w3.org/2000/svg">
<path d="M20 15.75C20.4142 15.75 20.75 16.0858 20.75 16.5C20.75 17.1367 20.7182 17.699 20.6133 18.1768C20.5065 18.663 20.3137 19.1081 19.9609 19.4609C19.6081 19.8137 19.163 20.0065 18.6768 20.1133C18.199 20.2182 17.6367 20.25 17 20.25H7C6.36332 20.25 5.80097 20.2182 5.32324 20.1133C4.837 20.0065 4.39187 19.8137 4.03906 19.4609C3.68626 19.1081 3.49354 18.663 3.38672 18.1768C3.28178 17.699 3.25 17.1367 3.25 16.5C3.25 16.0858 3.58579 15.75 4 15.75C4.41421 15.75 4.75 16.0858 4.75 16.5C4.75 17.104 4.78286 17.5371 4.85254 17.8545C4.92041 18.1634 5.01266 18.3134 5.09961 18.4004C5.18656 18.4873 5.33657 18.5796 5.64551 18.6475C5.96291 18.7171 6.39595 18.75 7 18.75H17C17.604 18.75 18.0371 18.7171 18.3545 18.6475C18.6634 18.5796 18.8134 18.4873 18.9004 18.4004C18.9873 18.3134 19.0796 18.1634 19.1475 17.8545C19.2171 17.5371 19.25 17.104 19.25 16.5C19.25 16.0858 19.5858 15.75 20 15.75ZM12 3.75C12.4142 3.75 12.75 4.08579 12.75 4.5V12.9619C12.7519 12.9596 12.7539 12.9574 12.7559 12.9551C12.9665 12.7064 13.1733 12.443 13.3662 12.1973C13.3811 12.1783 13.3964 12.1594 13.4111 12.1406C13.6032 11.8961 13.8049 11.6391 13.9619 11.4775C14.2505 11.1806 14.7254 11.1735 15.0225 11.4619C15.3194 11.7505 15.3265 12.2254 15.0381 12.5225C14.9494 12.6137 14.803 12.796 14.5898 13.0674C14.5745 13.0869 14.5588 13.1068 14.543 13.127C14.3529 13.3691 14.1301 13.6537 13.9004 13.9248C13.6544 14.2151 13.3788 14.5165 13.1035 14.751C12.9656 14.8684 12.8098 14.9847 12.6426 15.0742C12.4811 15.1606 12.2583 15.25 12 15.25C11.7417 15.25 11.5189 15.1606 11.3574 15.0742C11.1902 14.9847 11.0344 14.8684 10.8965 14.751C10.6212 14.5165 10.3456 14.2151 10.0996 13.9248C9.86988 13.6537 9.6471 13.3691 9.45703 13.127C9.44119 13.1068 9.42552 13.0869 9.41016 13.0674C9.19696 12.796 9.05062 12.6137 8.96191 12.5225C8.67349 12.2254 8.68061 11.7505 8.97754 11.4619C9.27458 11.1735 9.74948 11.1806 10.0381 11.4775C10.1951 11.6391 10.3968 11.8961 10.5889 12.1406C10.6036 12.1594 10.6189 12.1783 10.6338 12.1973C10.8267 12.443 11.0335 12.7064 11.2441 12.9551C11.2461 12.9574 11.2481 12.9596 11.25 12.9619V4.5C11.25 4.08579 11.5858 3.75 12 3.75Z" fill="white"/>
<path d="M20.6133 18.1768L20.711 18.1982V18.1982L20.6133 18.1768ZM19.9609 19.4609L20.0316 19.5316V19.5316L19.9609 19.4609ZM18.6768 20.1133L18.6982 20.211H18.6982L18.6768 20.1133ZM5.32324 20.1133L5.30179 20.211H5.30179L5.32324 20.1133ZM4.03906 19.4609L3.96835 19.5316L4.03906 19.4609ZM3.38672 18.1768L3.28905 18.1982L3.28905 18.1982L3.38672 18.1768ZM4.85254 17.8545L4.75487 17.8759L4.75487 17.8759L4.85254 17.8545ZM5.64551 18.6475L5.62405 18.7451L5.62406 18.7451L5.64551 18.6475ZM18.3545 18.6475L18.3759 18.7451L18.3759 18.7451L18.3545 18.6475ZM18.9004 18.4004L18.9711 18.4711H18.9711L18.9004 18.4004ZM19.1475 17.8545L19.2451 17.8759L19.2451 17.8759L19.1475 17.8545ZM12.75 12.9619H12.65C12.65 13.0039 12.6762 13.0413 12.7155 13.0558C12.7549 13.0702 12.7991 13.0586 12.8262 13.0266L12.75 12.9619ZM12.7559 12.9551L12.8322 13.0197L12.8322 13.0197L12.7559 12.9551ZM13.3662 12.1973L13.4449 12.259L13.4449 12.259L13.3662 12.1973ZM13.4111 12.1406L13.3325 12.0789L13.4111 12.1406ZM13.9619 11.4775L13.8902 11.4078L13.8902 11.4079L13.9619 11.4775ZM15.0225 11.4619L15.0922 11.3902L15.0921 11.3902L15.0225 11.4619ZM15.0381 12.5225L15.1098 12.5922L15.1098 12.5921L15.0381 12.5225ZM14.5898 13.0674L14.5112 13.0056L14.5898 13.0674ZM14.543 13.127L14.6216 13.1887L14.543 13.127ZM13.9004 13.9248L13.9767 13.9895L13.9767 13.9895L13.9004 13.9248ZM13.1035 14.751L13.1684 14.8271L13.1684 14.8271L13.1035 14.751ZM12.6426 15.0742L12.6898 15.1624L12.6898 15.1624L12.6426 15.0742ZM12 15.25V15.35V15.25ZM11.3574 15.0742L11.3102 15.1624L11.3102 15.1624L11.3574 15.0742ZM10.8965 14.751L10.8316 14.8271L10.8316 14.8271L10.8965 14.751ZM10.0996 13.9248L10.0233 13.9895L10.0233 13.9895L10.0996 13.9248ZM9.45703 13.127L9.53569 13.0652L9.53569 13.0652L9.45703 13.127ZM9.41016 13.0674L9.4888 13.0056L9.4888 13.0056L9.41016 13.0674ZM8.96191 12.5225L8.89017 12.5921L8.89021 12.5922L8.96191 12.5225ZM8.97754 11.4619L8.90788 11.3902L8.90784 11.3902L8.97754 11.4619ZM10.0381 11.4775L10.1098 11.4079L10.1098 11.4078L10.0381 11.4775ZM10.5889 12.1406L10.5102 12.2024L10.5889 12.1406ZM10.6338 12.1973L10.7124 12.1355V12.1355L10.6338 12.1973ZM11.2441 12.9551L11.1678 13.0197L11.1678 13.0197L11.2441 12.9551ZM11.25 12.9619L11.1738 13.0266C11.2009 13.0586 11.2451 13.0702 11.2845 13.0558C11.3238 13.0413 11.35 13.0039 11.35 12.9619H11.25ZM20 15.75V15.85C20.359 15.85 20.65 16.141 20.65 16.5H20.75H20.85C20.85 16.0306 20.4694 15.65 20 15.65V15.75ZM20.75 16.5H20.65C20.65 17.1346 20.6182 17.6883 20.5156 18.1553L20.6133 18.1768L20.711 18.1982C20.8182 17.7098 20.85 17.1388 20.85 16.5H20.75ZM20.6133 18.1768L20.5156 18.1553C20.4114 18.6297 20.2253 19.0551 19.8902 19.3902L19.9609 19.4609L20.0316 19.5316C20.4021 19.1612 20.6015 18.6963 20.711 18.1982L20.6133 18.1768ZM19.9609 19.4609L19.8902 19.3902C19.5551 19.7253 19.1297 19.9114 18.6553 20.0156L18.6768 20.1133L18.6982 20.211C19.1963 20.1015 19.6612 19.9021 20.0316 19.5316L19.9609 19.4609ZM18.6768 20.1133L18.6553 20.0156C18.1883 20.1182 17.6346 20.15 17 20.15V20.25V20.35C17.6388 20.35 18.2098 20.3182 18.6982 20.211L18.6768 20.1133ZM17 20.25V20.15H7V20.25V20.35H17V20.25ZM7 20.25V20.15C6.36543 20.15 5.81171 20.1182 5.3447 20.0156L5.32324 20.1133L5.30179 20.211C5.79023 20.3182 6.3612 20.35 7 20.35V20.25ZM5.32324 20.1133L5.3447 20.0156C4.87034 19.9114 4.44489 19.7253 4.10977 19.3902L4.03906 19.4609L3.96835 19.5316C4.33885 19.9021 4.80366 20.1015 5.30179 20.211L5.32324 20.1133ZM4.03906 19.4609L4.10977 19.3902C3.77466 19.0551 3.5886 18.6297 3.48439 18.1553L3.38672 18.1768L3.28905 18.1982C3.39848 18.6963 3.59786 19.1612 3.96835 19.5316L4.03906 19.4609ZM3.38672 18.1768L3.48439 18.1553C3.38181 17.6883 3.35 17.1346 3.35 16.5H3.25H3.15C3.15 17.1388 3.18176 17.7098 3.28905 18.1982L3.38672 18.1768ZM3.25 16.5H3.35C3.35 16.141 3.64101 15.85 4 15.85V15.75V15.65C3.53056 15.65 3.15 16.0306 3.15 16.5H3.25ZM4 15.75V15.85C4.35899 15.85 4.65 16.141 4.65 16.5H4.75H4.85C4.85 16.0306 4.46944 15.65 4 15.65V15.75ZM4.75 16.5H4.65C4.65 17.1063 4.68284 17.5479 4.75487 17.8759L4.85254 17.8545L4.95021 17.833C4.88287 17.5263 4.85 17.1018 4.85 16.5H4.75ZM4.85254 17.8545L4.75487 17.8759C4.82532 18.1966 4.92419 18.3664 5.0289 18.4711L5.09961 18.4004L5.17032 18.3297C5.10114 18.2605 5.0155 18.1302 4.95021 17.833L4.85254 17.8545ZM5.09961 18.4004L5.0289 18.4711C5.13361 18.5758 5.30336 18.6747 5.62405 18.7451L5.64551 18.6475L5.66696 18.5498C5.36977 18.4845 5.2395 18.3989 5.17032 18.3297L5.09961 18.4004ZM5.64551 18.6475L5.62406 18.7451C5.95213 18.8172 6.39374 18.85 7 18.85V18.75V18.65C6.39816 18.65 5.9737 18.6171 5.66695 18.5498L5.64551 18.6475ZM7 18.75V18.85H17V18.75V18.65H7V18.75ZM17 18.75V18.85C17.6063 18.85 18.0479 18.8172 18.3759 18.7451L18.3545 18.6475L18.333 18.5498C18.0263 18.6171 17.6018 18.65 17 18.65V18.75ZM18.3545 18.6475L18.3759 18.7451C18.6966 18.6747 18.8664 18.5758 18.9711 18.4711L18.9004 18.4004L18.8297 18.3297C18.7605 18.3989 18.6302 18.4845 18.333 18.5498L18.3545 18.6475ZM18.9004 18.4004L18.9711 18.4711C19.0758 18.3664 19.1747 18.1966 19.2451 17.8759L19.1475 17.8545L19.0498 17.833C18.9845 18.1302 18.8989 18.2605 18.8297 18.3297L18.9004 18.4004ZM19.1475 17.8545L19.2451 17.8759C19.3172 17.5479 19.35 17.1063 19.35 16.5H19.25H19.15C19.15 17.1018 19.1171 17.5263 19.0498 17.833L19.1475 17.8545ZM19.25 16.5H19.35C19.35 16.141 19.641 15.85 20 15.85V15.75V15.65C19.5306 15.65 19.15 16.0306 19.15 16.5H19.25ZM12 3.75V3.85C12.359 3.85 12.65 4.14101 12.65 4.5H12.75H12.85C12.85 4.03056 12.4694 3.65 12 3.65V3.75ZM12.75 4.5H12.65V12.9619H12.75H12.85V4.5H12.75ZM12.75 12.9619L12.8262 13.0266C12.8269 13.0258 12.8277 13.025 12.8287 13.0238C12.8296 13.0227 12.8309 13.0212 12.8322 13.0197L12.7559 12.9551L12.6796 12.8904C12.6789 12.8912 12.6782 12.892 12.6772 12.8932C12.6762 12.8943 12.675 12.8957 12.6738 12.8972L12.75 12.9619ZM12.7559 12.9551L12.8322 13.0197C13.0443 12.7694 13.2522 12.5045 13.4449 12.259L13.3662 12.1973L13.2876 12.1355C13.0944 12.3815 12.8888 12.6435 12.6796 12.8904L12.7559 12.9551ZM13.3662 12.1973L13.4449 12.259C13.4521 12.2499 13.4594 12.2407 13.4669 12.2312C13.4744 12.2218 13.4822 12.2121 13.4898 12.2024L13.4111 12.1406L13.3325 12.0789C13.3254 12.0879 13.3181 12.097 13.3105 12.1065C13.303 12.1159 13.2953 12.1257 13.2876 12.1355L13.3662 12.1973ZM13.4111 12.1406L13.4898 12.2024C13.6832 11.9561 13.8812 11.7041 14.0336 11.5472L13.9619 11.4775L13.8902 11.4079C13.7287 11.5741 13.5232 11.8361 13.3325 12.0789L13.4111 12.1406ZM13.9619 11.4775L14.0336 11.5472C14.2838 11.2898 14.6954 11.2837 14.9528 11.5337L15.0225 11.4619L15.0921 11.3902C14.7554 11.0632 14.2173 11.0714 13.8902 11.4078L13.9619 11.4775ZM15.0225 11.4619L14.9528 11.5336C15.2102 11.7838 15.2163 12.1954 14.9663 12.4528L15.0381 12.5225L15.1098 12.5921C15.4368 12.2554 15.4286 11.7173 15.0922 11.3902L15.0225 11.4619ZM15.0381 12.5225L14.9664 12.4528C14.8731 12.5487 14.723 12.736 14.5112 13.0056L14.5898 13.0674L14.6685 13.1292C14.8831 12.8559 15.0257 12.6787 15.1098 12.5922L15.0381 12.5225ZM14.5898 13.0674L14.5112 13.0056C14.4966 13.0242 14.4796 13.0457 14.4643 13.0652L14.543 13.127L14.6216 13.1887C14.638 13.1679 14.6524 13.1497 14.6685 13.1292L14.5898 13.0674ZM14.543 13.127L14.4643 13.0652C14.274 13.3077 14.0524 13.5907 13.8241 13.8602L13.9004 13.9248L13.9767 13.9895C14.2078 13.7167 14.4318 13.4305 14.6216 13.1887L14.543 13.127ZM13.9004 13.9248L13.8241 13.8602C13.5792 14.1491 13.3078 14.4456 13.0387 14.6749L13.1035 14.751L13.1684 14.8271C13.4498 14.5873 13.7295 14.2812 13.9767 13.9895L13.9004 13.9248ZM13.1035 14.751L13.0387 14.6748C12.9039 14.7896 12.7541 14.9011 12.5954 14.9861L12.6426 15.0742L12.6898 15.1624C12.8655 15.0683 13.0273 14.9472 13.1684 14.8271L13.1035 14.751ZM12.6426 15.0742L12.5954 14.986C12.4416 15.0684 12.2355 15.15 12 15.15V15.25V15.35C12.2811 15.35 12.5207 15.2529 12.6898 15.1624L12.6426 15.0742ZM12 15.25V15.15C11.7645 15.15 11.5584 15.0684 11.4046 14.986L11.3574 15.0742L11.3102 15.1624C11.4793 15.2529 11.7189 15.35 12 15.35V15.25ZM11.3574 15.0742L11.4046 14.9861C11.2459 14.9011 11.0961 14.7896 10.9613 14.6748L10.8965 14.751L10.8316 14.8271C10.9727 14.9472 11.1345 15.0683 11.3102 15.1624L11.3574 15.0742ZM10.8965 14.751L10.9613 14.6749C10.6922 14.4456 10.4208 14.1491 10.1759 13.8602L10.0996 13.9248L10.0233 13.9895C10.2705 14.2812 10.5502 14.5873 10.8316 14.8271L10.8965 14.751ZM10.0996 13.9248L10.1759 13.8602C9.9476 13.5907 9.72601 13.3077 9.53569 13.0652L9.45703 13.127L9.37837 13.1887C9.56819 13.4305 9.79215 13.7166 10.0233 13.9895L10.0996 13.9248ZM9.45703 13.127L9.53569 13.0652C9.5204 13.0457 9.50336 13.0242 9.4888 13.0056L9.41016 13.0674L9.33151 13.1292C9.34768 13.1497 9.36199 13.1678 9.37837 13.1887L9.45703 13.127ZM9.41016 13.0674L9.4888 13.0056C9.27702 12.736 9.12688 12.5487 9.03362 12.4528L8.96191 12.5225L8.89021 12.5922C8.97435 12.6787 9.11691 12.8559 9.33151 13.1292L9.41016 13.0674ZM8.96191 12.5225L9.03366 12.4528C8.78374 12.1954 8.78985 11.7838 9.04724 11.5336L8.97754 11.4619L8.90784 11.3902C8.57137 11.7173 8.56324 12.2554 8.89017 12.5921L8.96191 12.5225ZM8.97754 11.4619L9.0472 11.5337C9.30459 11.2837 9.7162 11.2898 9.96638 11.5472L10.0381 11.4775L10.1098 11.4078C9.78275 11.0714 9.24458 11.0632 8.90788 11.3902L8.97754 11.4619ZM10.0381 11.4775L9.96637 11.5472C10.1188 11.7041 10.3168 11.9561 10.5102 12.2024L10.5889 12.1406L10.6675 12.0789C10.4768 11.8361 10.2713 11.5741 10.1098 11.4079L10.0381 11.4775ZM10.5889 12.1406L10.5102 12.2024C10.5178 12.2121 10.5256 12.2218 10.5331 12.2312C10.5406 12.2407 10.5479 12.2499 10.5551 12.259L10.6338 12.1973L10.7124 12.1355C10.7047 12.1257 10.697 12.1159 10.6895 12.1065C10.6819 12.097 10.6746 12.0879 10.6675 12.0789L10.5889 12.1406ZM10.6338 12.1973L10.5551 12.259C10.7478 12.5045 10.9557 12.7694 11.1678 13.0197L11.2441 12.9551L11.3204 12.8904C11.1112 12.6435 10.9056 12.3815 10.7124 12.1355L10.6338 12.1973ZM11.2441 12.9551L11.1678 13.0197C11.1691 13.0212 11.1704 13.0227 11.1713 13.0238C11.1724 13.025 11.1731 13.0258 11.1738 13.0266L11.25 12.9619L11.3262 12.8972C11.325 12.8957 11.3238 12.8943 11.3228 12.8932C11.3218 12.892 11.3211 12.8912 11.3204 12.8904L11.2441 12.9551ZM11.25 12.9619H11.35V4.5H11.25H11.15V12.9619H11.25ZM11.25 4.5H11.35C11.35 4.14101 11.641 3.85 12 3.85V3.75V3.65C11.5306 3.65 11.15 4.03056 11.15 4.5H11.25Z" fill="white"/>
</svg>
