<svg width="25" height="24" viewBox="0 0 25 24" fill="none" xmlns="http://www.w3.org/2000/svg">
<path d="M20.5 15.75C20.9142 15.75 21.25 16.0858 21.25 16.5C21.25 17.1367 21.2182 17.699 21.1133 18.1768C21.0065 18.663 20.8137 19.1081 20.4609 19.4609C20.1081 19.8137 19.663 20.0065 19.1768 20.1133C18.699 20.2182 18.1367 20.25 17.5 20.25H7.5C6.86332 20.25 6.30097 20.2182 5.82324 20.1133C5.337 20.0065 4.89187 19.8137 4.53906 19.4609C4.18626 19.1081 3.99354 18.663 3.88672 18.1768C3.78178 17.699 3.75 17.1367 3.75 16.5C3.75 16.0858 4.08579 15.75 4.5 15.75C4.91421 15.75 5.25 16.0858 5.25 16.5C5.25 17.104 5.28286 17.5371 5.35254 17.8545C5.42041 18.1634 5.51266 18.3134 5.59961 18.4004C5.68656 18.4873 5.83657 18.5796 6.14551 18.6475C6.46291 18.7171 6.89595 18.75 7.5 18.75H17.5C18.104 18.75 18.5371 18.7171 18.8545 18.6475C19.1634 18.5796 19.3134 18.4873 19.4004 18.4004C19.4873 18.3134 19.5796 18.1634 19.6475 17.8545C19.7171 17.5371 19.75 17.104 19.75 16.5C19.75 16.0858 20.0858 15.75 20.5 15.75ZM12.5 3.75C12.9142 3.75 13.25 4.08579 13.25 4.5V12.9619C13.2519 12.9596 13.2539 12.9574 13.2559 12.9551C13.4665 12.7064 13.6733 12.443 13.8662 12.1973C13.8811 12.1783 13.8964 12.1594 13.9111 12.1406C14.1032 11.8961 14.3049 11.6391 14.4619 11.4775C14.7505 11.1806 15.2254 11.1735 15.5225 11.4619C15.8194 11.7505 15.8265 12.2254 15.5381 12.5225C15.4494 12.6137 15.303 12.796 15.0898 13.0674C15.0745 13.0869 15.0588 13.1068 15.043 13.127C14.8529 13.3691 14.6301 13.6537 14.4004 13.9248C14.1544 14.2151 13.8788 14.5165 13.6035 14.751C13.4656 14.8684 13.3098 14.9847 13.1426 15.0742C12.9811 15.1606 12.7583 15.25 12.5 15.25C12.2417 15.25 12.0189 15.1606 11.8574 15.0742C11.6902 14.9847 11.5344 14.8684 11.3965 14.751C11.1212 14.5165 10.8456 14.2151 10.5996 13.9248C10.3699 13.6537 10.1471 13.3691 9.95703 13.127C9.94119 13.1068 9.92552 13.0869 9.91016 13.0674C9.69696 12.796 9.55062 12.6137 9.46191 12.5225C9.17349 12.2254 9.18061 11.7505 9.47754 11.4619C9.77458 11.1735 10.2495 11.1806 10.5381 11.4775C10.6951 11.6391 10.8968 11.8961 11.0889 12.1406C11.1036 12.1594 11.1189 12.1783 11.1338 12.1973C11.3267 12.443 11.5335 12.7064 11.7441 12.9551C11.7461 12.9574 11.7481 12.9596 11.75 12.9619V4.5C11.75 4.08579 12.0858 3.75 12.5 3.75Z" fill="#00778E"/>
<path d="M21.1133 18.1768L21.211 18.1982V18.1982L21.1133 18.1768ZM20.4609 19.4609L20.5316 19.5316V19.5316L20.4609 19.4609ZM19.1768 20.1133L19.1982 20.211H19.1982L19.1768 20.1133ZM5.82324 20.1133L5.80179 20.211H5.80179L5.82324 20.1133ZM4.53906 19.4609L4.46835 19.5316L4.53906 19.4609ZM3.88672 18.1768L3.78905 18.1982L3.78905 18.1982L3.88672 18.1768ZM5.35254 17.8545L5.25487 17.8759L5.25487 17.8759L5.35254 17.8545ZM6.14551 18.6475L6.12405 18.7451L6.12406 18.7451L6.14551 18.6475ZM18.8545 18.6475L18.8759 18.7451L18.8759 18.7451L18.8545 18.6475ZM19.4004 18.4004L19.4711 18.4711H19.4711L19.4004 18.4004ZM19.6475 17.8545L19.7451 17.8759L19.7451 17.8759L19.6475 17.8545ZM13.25 12.9619H13.15C13.15 13.0039 13.1762 13.0413 13.2155 13.0558C13.2549 13.0702 13.2991 13.0586 13.3262 13.0266L13.25 12.9619ZM13.2559 12.9551L13.3322 13.0197L13.3322 13.0197L13.2559 12.9551ZM13.8662 12.1973L13.9449 12.259L13.9449 12.259L13.8662 12.1973ZM13.9111 12.1406L13.8325 12.0789L13.9111 12.1406ZM14.4619 11.4775L14.3902 11.4078L14.3902 11.4079L14.4619 11.4775ZM15.5225 11.4619L15.5922 11.3902L15.5921 11.3902L15.5225 11.4619ZM15.5381 12.5225L15.6098 12.5922L15.6098 12.5921L15.5381 12.5225ZM15.0898 13.0674L15.0112 13.0056L15.0898 13.0674ZM15.043 13.127L15.1216 13.1887L15.043 13.127ZM14.4004 13.9248L14.4767 13.9895L14.4767 13.9895L14.4004 13.9248ZM13.6035 14.751L13.6684 14.8271L13.6684 14.8271L13.6035 14.751ZM13.1426 15.0742L13.1898 15.1624L13.1898 15.1624L13.1426 15.0742ZM12.5 15.25V15.35V15.25ZM11.8574 15.0742L11.8102 15.1624L11.8102 15.1624L11.8574 15.0742ZM11.3965 14.751L11.3316 14.8271L11.3316 14.8271L11.3965 14.751ZM10.5996 13.9248L10.5233 13.9895L10.5233 13.9895L10.5996 13.9248ZM9.95703 13.127L10.0357 13.0652L10.0357 13.0652L9.95703 13.127ZM9.91016 13.0674L9.9888 13.0056L9.9888 13.0056L9.91016 13.0674ZM9.46191 12.5225L9.39017 12.5921L9.39021 12.5922L9.46191 12.5225ZM9.47754 11.4619L9.40788 11.3902L9.40784 11.3902L9.47754 11.4619ZM10.5381 11.4775L10.6098 11.4079L10.6098 11.4078L10.5381 11.4775ZM11.0889 12.1406L11.0102 12.2024L11.0889 12.1406ZM11.1338 12.1973L11.2124 12.1355V12.1355L11.1338 12.1973ZM11.7441 12.9551L11.6678 13.0197L11.6678 13.0197L11.7441 12.9551ZM11.75 12.9619L11.6738 13.0266C11.7009 13.0586 11.7451 13.0702 11.7845 13.0558C11.8238 13.0413 11.85 13.0039 11.85 12.9619H11.75ZM20.5 15.75V15.85C20.859 15.85 21.15 16.141 21.15 16.5H21.25H21.35C21.35 16.0306 20.9694 15.65 20.5 15.65V15.75ZM21.25 16.5H21.15C21.15 17.1346 21.1182 17.6883 21.0156 18.1553L21.1133 18.1768L21.211 18.1982C21.3182 17.7098 21.35 17.1388 21.35 16.5H21.25ZM21.1133 18.1768L21.0156 18.1553C20.9114 18.6297 20.7253 19.0551 20.3902 19.3902L20.4609 19.4609L20.5316 19.5316C20.9021 19.1612 21.1015 18.6963 21.211 18.1982L21.1133 18.1768ZM20.4609 19.4609L20.3902 19.3902C20.0551 19.7253 19.6297 19.9114 19.1553 20.0156L19.1768 20.1133L19.1982 20.211C19.6963 20.1015 20.1612 19.9021 20.5316 19.5316L20.4609 19.4609ZM19.1768 20.1133L19.1553 20.0156C18.6883 20.1182 18.1346 20.15 17.5 20.15V20.25V20.35C18.1388 20.35 18.7098 20.3182 19.1982 20.211L19.1768 20.1133ZM17.5 20.25V20.15H7.5V20.25V20.35H17.5V20.25ZM7.5 20.25V20.15C6.86543 20.15 6.31171 20.1182 5.8447 20.0156L5.82324 20.1133L5.80179 20.211C6.29023 20.3182 6.8612 20.35 7.5 20.35V20.25ZM5.82324 20.1133L5.8447 20.0156C5.37034 19.9114 4.94489 19.7253 4.60977 19.3902L4.53906 19.4609L4.46835 19.5316C4.83885 19.9021 5.30366 20.1015 5.80179 20.211L5.82324 20.1133ZM4.53906 19.4609L4.60977 19.3902C4.27466 19.0551 4.0886 18.6297 3.98439 18.1553L3.88672 18.1768L3.78905 18.1982C3.89848 18.6963 4.09786 19.1612 4.46835 19.5316L4.53906 19.4609ZM3.88672 18.1768L3.98439 18.1553C3.88181 17.6883 3.85 17.1346 3.85 16.5H3.75H3.65C3.65 17.1388 3.68176 17.7098 3.78905 18.1982L3.88672 18.1768ZM3.75 16.5H3.85C3.85 16.141 4.14101 15.85 4.5 15.85V15.75V15.65C4.03056 15.65 3.65 16.0306 3.65 16.5H3.75ZM4.5 15.75V15.85C4.85899 15.85 5.15 16.141 5.15 16.5H5.25H5.35C5.35 16.0306 4.96944 15.65 4.5 15.65V15.75ZM5.25 16.5H5.15C5.15 17.1063 5.18284 17.5479 5.25487 17.8759L5.35254 17.8545L5.45021 17.833C5.38287 17.5263 5.35 17.1018 5.35 16.5H5.25ZM5.35254 17.8545L5.25487 17.8759C5.32532 18.1966 5.42419 18.3664 5.5289 18.4711L5.59961 18.4004L5.67032 18.3297C5.60114 18.2605 5.5155 18.1302 5.45021 17.833L5.35254 17.8545ZM5.59961 18.4004L5.5289 18.4711C5.63361 18.5758 5.80336 18.6747 6.12405 18.7451L6.14551 18.6475L6.16696 18.5498C5.86977 18.4845 5.7395 18.3989 5.67032 18.3297L5.59961 18.4004ZM6.14551 18.6475L6.12406 18.7451C6.45213 18.8172 6.89374 18.85 7.5 18.85V18.75V18.65C6.89816 18.65 6.4737 18.6171 6.16695 18.5498L6.14551 18.6475ZM7.5 18.75V18.85H17.5V18.75V18.65H7.5V18.75ZM17.5 18.75V18.85C18.1063 18.85 18.5479 18.8172 18.8759 18.7451L18.8545 18.6475L18.833 18.5498C18.5263 18.6171 18.1018 18.65 17.5 18.65V18.75ZM18.8545 18.6475L18.8759 18.7451C19.1966 18.6747 19.3664 18.5758 19.4711 18.4711L19.4004 18.4004L19.3297 18.3297C19.2605 18.3989 19.1302 18.4845 18.833 18.5498L18.8545 18.6475ZM19.4004 18.4004L19.4711 18.4711C19.5758 18.3664 19.6747 18.1966 19.7451 17.8759L19.6475 17.8545L19.5498 17.833C19.4845 18.1302 19.3989 18.2605 19.3297 18.3297L19.4004 18.4004ZM19.6475 17.8545L19.7451 17.8759C19.8172 17.5479 19.85 17.1063 19.85 16.5H19.75H19.65C19.65 17.1018 19.6171 17.5263 19.5498 17.833L19.6475 17.8545ZM19.75 16.5H19.85C19.85 16.141 20.141 15.85 20.5 15.85V15.75V15.65C20.0306 15.65 19.65 16.0306 19.65 16.5H19.75ZM12.5 3.75V3.85C12.859 3.85 13.15 4.14101 13.15 4.5H13.25H13.35C13.35 4.03056 12.9694 3.65 12.5 3.65V3.75ZM13.25 4.5H13.15V12.9619H13.25H13.35V4.5H13.25ZM13.25 12.9619L13.3262 13.0266C13.3269 13.0258 13.3277 13.025 13.3287 13.0238C13.3296 13.0227 13.3309 13.0212 13.3322 13.0197L13.2559 12.9551L13.1796 12.8904C13.1789 12.8912 13.1782 12.892 13.1772 12.8932C13.1762 12.8943 13.175 12.8957 13.1738 12.8972L13.25 12.9619ZM13.2559 12.9551L13.3322 13.0197C13.5443 12.7694 13.7522 12.5045 13.9449 12.259L13.8662 12.1973L13.7876 12.1355C13.5944 12.3815 13.3888 12.6435 13.1796 12.8904L13.2559 12.9551ZM13.8662 12.1973L13.9449 12.259C13.9521 12.2499 13.9594 12.2407 13.9669 12.2312C13.9744 12.2218 13.9822 12.2121 13.9898 12.2024L13.9111 12.1406L13.8325 12.0789C13.8254 12.0879 13.8181 12.097 13.8105 12.1065C13.803 12.1159 13.7953 12.1257 13.7876 12.1355L13.8662 12.1973ZM13.9111 12.1406L13.9898 12.2024C14.1832 11.9561 14.3812 11.7041 14.5336 11.5472L14.4619 11.4775L14.3902 11.4079C14.2287 11.5741 14.0232 11.8361 13.8325 12.0789L13.9111 12.1406ZM14.4619 11.4775L14.5336 11.5472C14.7838 11.2898 15.1954 11.2837 15.4528 11.5337L15.5225 11.4619L15.5921 11.3902C15.2554 11.0632 14.7173 11.0714 14.3902 11.4078L14.4619 11.4775ZM15.5225 11.4619L15.4528 11.5336C15.7102 11.7838 15.7163 12.1954 15.4663 12.4528L15.5381 12.5225L15.6098 12.5921C15.9368 12.2554 15.9286 11.7173 15.5922 11.3902L15.5225 11.4619ZM15.5381 12.5225L15.4664 12.4528C15.3731 12.5487 15.223 12.736 15.0112 13.0056L15.0898 13.0674L15.1685 13.1292C15.3831 12.8559 15.5257 12.6787 15.6098 12.5922L15.5381 12.5225ZM15.0898 13.0674L15.0112 13.0056C14.9966 13.0242 14.9796 13.0457 14.9643 13.0652L15.043 13.127L15.1216 13.1887C15.138 13.1679 15.1524 13.1497 15.1685 13.1292L15.0898 13.0674ZM15.043 13.127L14.9643 13.0652C14.774 13.3077 14.5524 13.5907 14.3241 13.8602L14.4004 13.9248L14.4767 13.9895C14.7078 13.7167 14.9318 13.4305 15.1216 13.1887L15.043 13.127ZM14.4004 13.9248L14.3241 13.8602C14.0792 14.1491 13.8078 14.4456 13.5387 14.6749L13.6035 14.751L13.6684 14.8271C13.9498 14.5873 14.2295 14.2812 14.4767 13.9895L14.4004 13.9248ZM13.6035 14.751L13.5387 14.6748C13.4039 14.7896 13.2541 14.9011 13.0954 14.9861L13.1426 15.0742L13.1898 15.1624C13.3655 15.0683 13.5273 14.9472 13.6684 14.8271L13.6035 14.751ZM13.1426 15.0742L13.0954 14.986C12.9416 15.0684 12.7355 15.15 12.5 15.15V15.25V15.35C12.7811 15.35 13.0207 15.2529 13.1898 15.1624L13.1426 15.0742ZM12.5 15.25V15.15C12.2645 15.15 12.0584 15.0684 11.9046 14.986L11.8574 15.0742L11.8102 15.1624C11.9793 15.2529 12.2189 15.35 12.5 15.35V15.25ZM11.8574 15.0742L11.9046 14.9861C11.7459 14.9011 11.5961 14.7896 11.4613 14.6748L11.3965 14.751L11.3316 14.8271C11.4727 14.9472 11.6345 15.0683 11.8102 15.1624L11.8574 15.0742ZM11.3965 14.751L11.4613 14.6749C11.1922 14.4456 10.9208 14.1491 10.6759 13.8602L10.5996 13.9248L10.5233 13.9895C10.7705 14.2812 11.0502 14.5873 11.3316 14.8271L11.3965 14.751ZM10.5996 13.9248L10.6759 13.8602C10.4476 13.5907 10.226 13.3077 10.0357 13.0652L9.95703 13.127L9.87837 13.1887C10.0682 13.4305 10.2922 13.7166 10.5233 13.9895L10.5996 13.9248ZM9.95703 13.127L10.0357 13.0652C10.0204 13.0457 10.0034 13.0242 9.9888 13.0056L9.91016 13.0674L9.83151 13.1292C9.84768 13.1497 9.86199 13.1678 9.87837 13.1887L9.95703 13.127ZM9.91016 13.0674L9.9888 13.0056C9.77702 12.736 9.62688 12.5487 9.53362 12.4528L9.46191 12.5225L9.39021 12.5922C9.47435 12.6787 9.61691 12.8559 9.83151 13.1292L9.91016 13.0674ZM9.46191 12.5225L9.53366 12.4528C9.28374 12.1954 9.28985 11.7838 9.54724 11.5336L9.47754 11.4619L9.40784 11.3902C9.07137 11.7173 9.06324 12.2554 9.39017 12.5921L9.46191 12.5225ZM9.47754 11.4619L9.5472 11.5337C9.80459 11.2837 10.2162 11.2898 10.4664 11.5472L10.5381 11.4775L10.6098 11.4078C10.2827 11.0714 9.74458 11.0632 9.40788 11.3902L9.47754 11.4619ZM10.5381 11.4775L10.4664 11.5472C10.6188 11.7041 10.8168 11.9561 11.0102 12.2024L11.0889 12.1406L11.1675 12.0789C10.9768 11.8361 10.7713 11.5741 10.6098 11.4079L10.5381 11.4775ZM11.0889 12.1406L11.0102 12.2024C11.0178 12.2121 11.0256 12.2218 11.0331 12.2312C11.0406 12.2407 11.0479 12.2499 11.0551 12.259L11.1338 12.1973L11.2124 12.1355C11.2047 12.1257 11.197 12.1159 11.1895 12.1065C11.1819 12.097 11.1746 12.0879 11.1675 12.0789L11.0889 12.1406ZM11.1338 12.1973L11.0551 12.259C11.2478 12.5045 11.4557 12.7694 11.6678 13.0197L11.7441 12.9551L11.8204 12.8904C11.6112 12.6435 11.4056 12.3815 11.2124 12.1355L11.1338 12.1973ZM11.7441 12.9551L11.6678 13.0197C11.6691 13.0212 11.6704 13.0227 11.6713 13.0238C11.6724 13.025 11.6731 13.0258 11.6738 13.0266L11.75 12.9619L11.8262 12.8972C11.825 12.8957 11.8238 12.8943 11.8228 12.8932C11.8218 12.892 11.8211 12.8912 11.8204 12.8904L11.7441 12.9551ZM11.75 12.9619H11.85V4.5H11.75H11.65V12.9619H11.75ZM11.75 4.5H11.85C11.85 4.14101 12.141 3.85 12.5 3.85V3.75V3.65C12.0306 3.65 11.65 4.03056 11.65 4.5H11.75Z" fill="#00778E"/>
</svg>
