<svg width="22" height="22" viewBox="0 0 22 22" fill="none" xmlns="http://www.w3.org/2000/svg">
<path d="M5.07783 17.8946C4.51867 17.8946 3.99617 17.7021 3.62033 17.3446C3.14367 16.8954 2.9145 16.2171 2.997 15.4837L3.33617 12.5137C3.40033 11.9546 3.7395 11.2121 4.13367 10.8087L11.6595 2.84289C13.5387 0.853725 15.5003 0.798725 17.4895 2.67789C19.4787 4.55706 19.5337 6.51872 17.6545 8.50789L10.1287 16.4737C9.74367 16.8862 9.02867 17.2712 8.4695 17.3629L5.51783 17.8671C5.362 17.8762 5.2245 17.8946 5.07783 17.8946ZM14.602 2.66873C13.8962 2.66873 13.282 3.10872 12.6587 3.76872L5.13283 11.7437C4.9495 11.9362 4.73867 12.3946 4.702 12.6604L4.36283 15.6304C4.32617 15.9329 4.3995 16.1804 4.5645 16.3362C4.7295 16.4921 4.977 16.5471 5.2795 16.5012L8.23117 15.9971C8.497 15.9512 8.937 15.7129 9.12033 15.5204L16.6462 7.55456C17.7828 6.34456 18.1953 5.22622 16.5362 3.66789C15.8028 2.96206 15.1703 2.66873 14.602 2.66873Z" fill="#00778E"/>
<path d="M15.8951 10.0394C15.8767 10.0394 15.8492 10.0394 15.8309 10.0394C12.9709 9.75523 10.6701 7.58273 10.2301 4.74106C10.1751 4.36523 10.4317 4.0169 10.8076 3.95273C11.1834 3.89773 11.5317 4.1544 11.5959 4.53023C11.9442 6.74856 13.7409 8.45356 15.9776 8.67356C16.3534 8.71023 16.6284 9.0494 16.5917 9.42523C16.5459 9.77356 16.2434 10.0394 15.8951 10.0394Z" fill="#00778E"/>
<path d="M19.25 20.8555H2.75C2.37417 20.8555 2.0625 20.5438 2.0625 20.168C2.0625 19.7921 2.37417 19.4805 2.75 19.4805H19.25C19.6258 19.4805 19.9375 19.7921 19.9375 20.168C19.9375 20.5438 19.6258 20.8555 19.25 20.8555Z" fill="#00778E"/>
</svg>
