<svg width="60" height="60" viewBox="0 0 60 60" fill="none" xmlns="http://www.w3.org/2000/svg">
<rect x="1" y="1" width="58" height="58" rx="19" fill="#EFF3F5"/>
<rect x="1" y="1" width="58" height="58" rx="19" stroke="#824B97" stroke-width="2"/>
<path d="M35 20.3125C35 21.8625 33.7375 23.125 32.1875 23.125H27.8125C27.0375 23.125 26.3375 22.8125 25.825 22.3C25.3125 21.7875 25 21.0875 25 20.3125C25 18.7625 26.2625 17.5 27.8125 17.5H32.1875C32.9625 17.5 33.6625 17.8125 34.175 18.325C34.6875 18.8375 35 19.5375 35 20.3125Z" fill="#824B97"/>
<path d="M38.5375 21.2889C38.25 21.0514 37.925 20.8639 37.575 20.7264C37.2125 20.5889 36.85 20.8764 36.775 21.2514C36.35 23.3889 34.4625 25.0014 32.1875 25.0014H27.8125C26.5625 25.0014 25.3875 24.5139 24.5 23.6264C23.85 22.9764 23.4 22.1514 23.225 21.2639C23.15 20.8889 22.775 20.5889 22.4125 20.7389C20.9625 21.3264 20 22.6514 20 25.3139V37.5014C20 41.2514 22.2375 42.5014 25 42.5014H35C37.7625 42.5014 40 41.2514 40 37.5014V25.3139C40 23.2764 39.4375 22.0264 38.5375 21.2889ZM25 30.3139H30C30.5125 30.3139 30.9375 30.7389 30.9375 31.2514C30.9375 31.7639 30.5125 32.1889 30 32.1889H25C24.4875 32.1889 24.0625 31.7639 24.0625 31.2514C24.0625 30.7389 24.4875 30.3139 25 30.3139ZM35 37.1889H25C24.4875 37.1889 24.0625 36.7639 24.0625 36.2514C24.0625 35.7389 24.4875 35.3139 25 35.3139H35C35.5125 35.3139 35.9375 35.7389 35.9375 36.2514C35.9375 36.7639 35.5125 37.1889 35 37.1889Z" fill="#824B97"/>
</svg>
