<svg width="33" height="32" viewBox="0 0 33 32" fill="none" xmlns="http://www.w3.org/2000/svg">
<path d="M9.16602 15.125C4.51358 15.125 0.728516 18.9101 0.728516 23.5625C0.728516 28.2149 4.51358 32 9.16602 32C13.8185 32 17.6035 28.2149 17.6035 23.5625C17.6035 18.9101 13.8185 15.125 9.16602 15.125ZM12.8914 22.5379L8.51639 26.9129C8.33339 27.0959 8.09345 27.1875 7.85352 27.1875C7.61358 27.1875 7.37364 27.0959 7.19064 26.9129L5.31564 25.0379C4.94952 24.6718 4.94952 24.0782 5.31564 23.7121C5.6817 23.346 6.27533 23.346 6.64145 23.7121L7.85352 24.9242L11.5656 21.2121C11.9317 20.846 12.5253 20.846 12.8915 21.2121C13.2575 21.5782 13.2575 22.1718 12.8914 22.5379Z" fill="#00778E"/>
<path d="M25.416 8.125C24.8983 8.125 24.4785 7.70525 24.4785 7.1875V0H11.041C9.4902 0 8.22852 1.26169 8.22852 2.8125V13.2931C8.53739 13.2651 8.84995 13.25 9.16602 13.25C12.3615 13.25 15.2221 14.711 17.1151 17H27.291C27.8088 17 28.2285 17.4198 28.2285 17.9375C28.2285 18.4552 27.8088 18.875 27.291 18.875H18.3503C18.9493 20.0438 19.3177 21.3169 19.4355 22.625H27.291C27.8088 22.625 28.2285 23.0448 28.2285 23.5625C28.2285 24.0802 27.8088 24.5 27.291 24.5H19.4355C19.1551 27.5962 17.5008 30.3016 15.0884 32H29.791C31.3418 32 32.6035 30.7383 32.6035 29.1875V8.125H25.416ZM27.291 13.25H13.541C13.0233 13.25 12.6035 12.8302 12.6035 12.3125C12.6035 11.7948 13.0233 11.375 13.541 11.375H27.291C27.8088 11.375 28.2285 11.7948 28.2285 12.3125C28.2285 12.8302 27.8088 13.25 27.291 13.25Z" fill="#00778E"/>
<path d="M26.3535 0.548828V6.24989H32.0542L26.3535 0.548828Z" fill="#00778E"/>
</svg>