<svg width="371" height="62" viewBox="0 0 371 62" fill="none" xmlns="http://www.w3.org/2000/svg">
<g clip-path="url(#clip0_477_8884)">
<mask id="mask0_477_8884" style="mask-type:luminance" maskUnits="userSpaceOnUse" x="0" y="0" width="218" height="62">
<path d="M217.89 0H0.0351562V62H217.89V0Z" fill="white"/>
</mask>
<g mask="url(#mask0_477_8884)">
<path d="M79.0169 29.5186V18.0312H75.8173V29.6879C75.8173 32.306 74.8489 33.0814 73.2244 33.0814C72.4486 33.0814 71.8186 32.9592 71.2616 32.7899L70.9961 35.3353C71.6029 35.481 72.2824 35.5773 73.0319 35.5773C77.9727 35.5773 79.0169 32.6209 79.0169 29.5186Z" fill="white"/>
<path d="M106.406 16.1852C107.304 16.1852 108.007 15.433 108.007 14.5379C108.007 13.6166 107.304 12.8906 106.406 12.8906C105.508 12.8906 104.805 13.6428 104.805 14.5379C104.805 15.4593 105.511 16.1852 106.406 16.1852Z" fill="white"/>
<path d="M108.397 12.7469C109.246 12.7469 109.899 12.0676 109.899 11.2192C109.899 10.3708 109.246 9.69141 108.397 9.69141C107.571 9.69141 106.918 10.3708 106.918 11.2192C106.918 12.0676 107.571 12.7469 108.397 12.7469Z" fill="white"/>
<path d="M108.805 14.5379C108.805 15.4593 109.508 16.1852 110.429 16.1852C111.327 16.1852 112.03 15.433 112.03 14.5379C112.03 13.6166 111.327 12.8906 110.429 12.8906C109.508 12.8906 108.805 13.6399 108.805 14.5379Z" fill="white"/>
<path d="M115.011 16.1852C115.933 16.1852 116.636 15.433 116.636 14.5379C116.636 13.6166 115.933 12.8906 115.011 12.8906C114.113 12.8906 113.41 13.6428 113.41 14.5379C113.41 15.4593 114.113 16.1852 115.011 16.1852Z" fill="white"/>
<path d="M119.039 16.1852C119.937 16.1852 120.64 15.433 120.64 14.5379C120.64 13.6166 119.937 12.8906 119.039 12.8906C118.14 12.8906 117.438 13.6428 117.438 14.5379C117.438 15.4593 118.14 16.1852 119.039 16.1852Z" fill="white"/>
<path d="M140.611 23.7738C140.611 21.3743 140.296 18.9981 139.835 17.0592L136.708 17.4965C137.12 19.3392 137.411 21.5696 137.411 23.9925C137.411 24.7447 137.338 25.9313 137.242 26.8993H136.393C134.258 26.8993 133.727 26.22 133.727 24.2082V18.5141H130.671V24.3074C130.671 26.0509 130.283 27.0946 128.877 27.0946C127.448 27.0946 127.034 26.1004 127.034 24.284V19.485H123.834V23.8729C123.834 26.2724 123.228 26.9022 121.653 26.9022H121.242H120.877H119.083V18.0301H115.884V26.8993H112.853H112.489H110.476V18.0301H107.277V26.8993H104.273H103.882H102.21V23.4852C102.21 19.9456 100.513 17.7181 96.6105 17.7181C92.5359 17.7181 90.4271 20.5287 90.4271 23.9954C90.4271 26.1996 89.7737 26.9022 88.6073 26.9022H88.4877H88.1229H86.0639V12.3359H82.8672V29.4213H88.1258H88.4906H88.4935C89.946 29.4213 91.0863 28.8148 91.6929 27.5553C92.4192 28.7419 93.828 29.4213 96.6863 29.4213H103.885H104.275H112.491H112.856H120.88H121.244H121.63C123.423 29.4213 124.418 28.7915 124.855 27.6282C125.266 28.8878 126.527 29.6399 128.297 29.6399C129.825 29.6399 131.231 28.987 131.811 27.6282C132.345 28.9374 133.631 29.4213 135.74 29.4213H140.249C140.465 27.7011 140.611 25.5436 140.611 23.7738ZM99.0866 26.9022H97.0013C94.5046 26.9022 93.5831 25.8351 93.5831 23.7038C93.5831 21.6425 94.6241 20.2372 96.3945 20.2372C98.1651 20.2372 99.0866 21.3043 99.0866 23.8496V26.9022Z" fill="white"/>
<path d="M154.72 12.3359H151.52V26.9022H144.027V29.4213H154.72V12.3359Z" fill="white"/>
<path d="M149.748 25.083L146.207 12.1641L143.031 12.6014L146.499 25.083H149.748Z" fill="white"/>
<path d="M162.012 12.3359H158.812V29.4213H162.012V12.3359Z" fill="white"/>
<path d="M182.716 29.421V23.2894C182.716 19.8957 181.018 17.7148 177.235 17.7148C173.018 17.7148 170.906 20.5255 170.906 23.823C170.906 27.2401 172.677 29.421 177.405 29.421H182.716ZM174.109 23.5081C174.109 21.6188 175.176 20.2368 176.993 20.2368C178.618 20.2368 179.586 21.2544 179.586 23.6772V26.9019H177.743C175.226 26.9019 174.109 25.7852 174.109 23.5081Z" fill="white"/>
<path d="M179.031 16.1852C179.929 16.1852 180.632 15.433 180.632 14.5379C180.632 13.6166 179.929 12.8906 179.031 12.8906C178.133 12.8906 177.43 13.6428 177.43 14.5379C177.43 15.4593 178.133 16.1852 179.031 16.1852Z" fill="white"/>
<path d="M175.008 16.1852C175.929 16.1852 176.632 15.433 176.632 14.5379C176.632 13.6166 175.929 12.8906 175.008 12.8906C174.109 12.8906 173.406 13.6428 173.406 14.5379C173.406 15.4593 174.109 16.1852 175.008 16.1852Z" fill="white"/>
<path d="M189.481 29.5186V18.0312H186.281V29.6879C186.281 32.306 185.313 33.0814 183.688 33.0814C182.912 33.0814 182.282 32.9592 181.725 32.7899L181.457 35.3353C182.064 35.481 182.743 35.5773 183.493 35.5773C188.437 35.5773 189.481 32.6209 189.481 29.5186Z" fill="white"/>
<path d="M196.531 12.3359H193.332V29.4213H196.531V12.3359Z" fill="white"/>
<path d="M195.66 35.3353C196.267 35.481 196.946 35.5773 197.696 35.5773C202.643 35.5773 203.684 32.6209 203.684 29.5186V18.0312H200.484V29.6879C200.484 32.306 199.516 33.0814 197.891 33.0814C197.116 33.0814 196.486 32.9592 195.929 32.7899L195.66 35.3353Z" fill="white"/>
<path d="M202.088 15.9926C203.01 15.9926 203.763 15.2404 203.763 14.322C203.763 13.4007 203.01 12.6484 202.088 12.6484C201.167 12.6484 200.414 13.4007 200.414 14.322C200.414 15.2637 201.167 15.9926 202.088 15.9926Z" fill="white"/>
<path d="M212.824 17.7148C208.364 17.7148 206.398 20.6217 206.398 23.7968C206.398 27.2371 208.169 29.421 212.897 29.421H214.787V29.7855C214.787 32.0625 213.112 33.01 210.593 33.01C208.703 33.01 206.81 32.5988 206.81 32.5988L206.614 35.2172C206.614 35.2172 208.481 35.5319 210.301 35.5319C215.732 35.5319 217.89 32.8177 217.89 29.4734V18.5633C217.893 18.5633 215.685 17.7148 212.824 17.7148ZM214.79 26.9019H213.238C210.692 26.9019 209.601 25.7152 209.601 23.5081C209.601 21.6188 210.668 20.2368 212.485 20.2368C213.868 20.2368 214.79 20.6741 214.79 20.6741V26.9019Z" fill="white"/>
<path d="M79.534 38.6123L77.8132 43.7903C77.5625 44.5311 77.3963 45.0966 77.2504 45.8663H77.2211C77.0871 45.1548 76.909 44.4726 76.6728 43.7611L74.9928 38.6123H72.7384L71.1953 48.6245H73.1553L73.7184 44.012C73.8379 43.1374 73.9399 42.3501 74.0012 41.4608H74.0305C74.15 42.2628 74.4008 43.1665 74.6691 43.9829L76.1974 48.6245H78.1108L79.6973 43.595C79.9483 42.8078 80.1116 42.0964 80.2456 41.4579H80.2749C80.3478 42.1546 80.4382 42.8954 80.587 43.8459L81.2986 48.6217H83.3315L81.774 38.6094H79.534V38.6123Z" fill="white"/>
<path d="M85.7663 38.0078C85.1128 38.0078 84.5938 38.5266 84.5938 39.1506C84.5938 39.7891 85.1128 40.3082 85.7663 40.3082C86.4194 40.3082 86.9532 39.7891 86.9532 39.1506C86.9532 38.5122 86.4194 38.0078 85.7663 38.0078Z" fill="white"/>
<path d="M86.7111 41.2578H84.8125V48.6312H86.7111V41.2578Z" fill="white"/>
<path d="M92.9764 41.0938C91.7746 41.0938 90.9142 41.7031 90.4681 42.5777L90.4533 42.5633C90.5263 42.1783 90.5584 41.5981 90.5584 41.257H88.7617V48.6306H90.6606V45.0707C90.6606 43.7791 91.4188 42.6827 92.3815 42.6827C93.0783 42.6827 93.2856 43.1435 93.2856 43.9132V48.6306H95.1697V43.4523C95.1726 42.1607 94.6387 41.0938 92.9764 41.0938Z" fill="white"/>
<path d="M99.133 41.2578H97.2344V48.6312H99.133V41.2578Z" fill="white"/>
<path d="M98.18 38.0078C97.5269 38.0078 97.0078 38.5266 97.0078 39.1506C97.0078 39.7891 97.5269 40.3082 98.18 40.3082C98.8334 40.3082 99.3673 39.7891 99.3673 39.1506C99.3673 38.5122 98.8334 38.0078 98.18 38.0078Z" fill="white"/>
<path d="M102.721 43.2891C102.721 42.8286 103.076 42.5342 103.817 42.5342C104.278 42.5342 104.768 42.6068 105.182 42.7265L105.241 41.2278C104.797 41.1549 104.322 41.0938 103.89 41.0938C101.814 41.0938 100.758 42.1607 100.758 43.4523C100.758 45.9597 103.741 45.2163 103.741 46.5226C103.741 47.0123 103.266 47.3099 102.54 47.3099C101.977 47.3099 101.411 47.2049 100.953 47.0881L100.91 48.6451C101.385 48.718 101.919 48.7792 102.452 48.7792C104.471 48.7792 105.745 47.7996 105.745 46.3476C105.748 43.957 102.721 44.4905 102.721 43.2891Z" fill="white"/>
<path d="M109.591 38.4844L107.693 38.9887V41.2571H106.43V42.7266H107.707V46.4645C107.707 48.1846 108.212 48.7793 109.845 48.7793C110.364 48.7793 110.912 48.7066 111.388 48.5869V47.0591C111.119 47.1321 110.778 47.1788 110.469 47.1788C109.816 47.1788 109.594 46.9106 109.594 45.963V42.7295H111.391V41.26H109.594V38.4844H109.591Z" fill="white"/>
<path d="M114.617 42.7421H114.588C114.679 42.223 114.722 41.6284 114.722 41.2581H112.926V48.6315H114.824V45.6198C114.824 43.5729 115.507 42.6838 116.872 42.9636L116.962 41.0946C115.688 40.9925 114.973 41.806 114.617 42.7421Z" fill="white"/>
<path d="M121.666 43.7652C121.427 44.4619 121.118 45.4418 120.955 46.1094H120.94C120.777 45.4418 120.584 44.7157 120.36 44.0772L119.365 41.2578H117.26L119.975 48.6312L119.724 49.3426C119.339 50.439 118.922 50.7219 118.301 50.7219C117.945 50.7219 117.633 50.6636 117.291 50.5587L117.172 52.1912C117.484 52.2641 117.883 52.3108 118.21 52.3108C119.902 52.3108 120.675 51.6141 121.55 49.3135L124.574 41.2578H122.541L121.666 43.7652Z" fill="white"/>
<path d="M132.112 41.1094C129.872 41.1094 128.344 42.7713 128.344 45.0687C128.344 47.6958 129.694 48.7775 131.785 48.7775C133.996 48.7775 135.554 47.1156 135.554 44.8034C135.557 42.2669 134.206 41.1094 132.112 41.1094ZM131.952 47.162C130.852 47.162 130.304 46.3895 130.304 44.8764C130.304 43.363 131.135 42.7101 131.981 42.7101C133.095 42.7101 133.597 43.4827 133.597 44.9055C133.597 46.4042 132.885 47.162 131.952 47.162Z" fill="white"/>
<path d="M137.468 40.6623V41.2541H136.176V42.7236H137.468V48.6277H139.352V42.7236H141.073V41.2541H139.352V40.6303C139.352 39.6504 139.722 39.2219 140.553 39.2219C140.837 39.2219 141.178 39.251 141.472 39.356L141.606 37.7991C141.221 37.7088 140.804 37.6797 140.405 37.6797C138.386 37.6826 137.468 38.6622 137.468 40.6623Z" fill="white"/>
<path d="M147.51 38.6133H145.582V48.6253H147.51V38.6133Z" fill="white"/>
<path d="M153.788 41.0938C152.586 41.0938 151.726 41.7031 151.28 42.5777L151.265 42.5633C151.338 42.1783 151.367 41.5981 151.367 41.257H149.57V48.6306H151.469V45.0707C151.469 43.7791 152.225 42.6827 153.19 42.6827C153.887 42.6827 154.094 43.1435 154.094 43.9132V48.6306H155.978V43.4523C155.984 42.161 155.45 41.0938 153.788 41.0938Z" fill="white"/>
<path d="M161.277 44.6352C161.099 45.1396 160.95 45.7022 160.831 46.2065H160.801C160.667 45.6731 160.489 45.0781 160.312 44.5738L159.139 41.25H157.062L159.792 48.6237H161.72L164.479 41.25H162.461L161.277 44.6352Z" fill="white"/>
<path d="M168.487 41.0938C166.277 41.0938 165.031 42.7556 165.031 45.0093C165.031 47.6043 166.338 48.7763 168.683 48.7763C169.602 48.7763 170.538 48.6131 171.325 48.301L171.147 46.8318C170.509 47.1291 169.724 47.2923 168.995 47.2923C167.63 47.2923 166.947 46.6247 166.962 45.2454H171.532C171.576 44.9337 171.591 44.6361 171.591 44.3855C171.591 42.5633 170.64 41.0938 168.487 41.0938ZM166.988 43.957C167.093 43.0677 167.642 42.4875 168.429 42.4875C169.231 42.4875 169.736 43.0356 169.704 43.957H166.988Z" fill="white"/>
<path d="M174.718 43.2891C174.718 42.8286 175.074 42.5342 175.817 42.5342C176.278 42.5342 176.768 42.6068 177.182 42.7265L177.241 41.2278C176.794 41.1549 176.322 41.0938 175.89 41.0938C173.814 41.0938 172.758 42.1607 172.758 43.4523C172.758 45.9597 175.742 45.2163 175.742 46.5226C175.742 47.0123 175.266 47.3099 174.54 47.3099C173.977 47.3099 173.411 47.2049 172.953 47.0881L172.91 48.6451C173.385 48.718 173.919 48.7792 174.453 48.7792C176.471 48.7792 177.745 47.7996 177.745 46.3476C177.743 43.957 174.718 44.4905 174.718 43.2891Z" fill="white"/>
<path d="M181.588 38.4844L179.69 38.9887V41.2571H178.43V42.7266H179.704V46.4645C179.704 48.1846 180.209 48.7793 181.842 48.7793C182.361 48.7793 182.91 48.7066 183.385 48.5869V47.0591C183.117 47.1321 182.775 47.1788 182.463 47.1788C181.81 47.1788 181.588 46.9106 181.588 45.963V42.7295H183.385V41.26H181.588V38.4844Z" fill="white"/>
<path d="M193.518 41.0938C192.273 41.0938 191.456 41.8519 191.115 42.5777C190.937 41.8663 190.389 41.0938 189.082 41.0938C187.985 41.0938 187.093 41.674 186.65 42.5777H186.62C186.693 42.1463 186.722 41.5981 186.722 41.257H184.926V48.6306H186.824V45.0998C186.824 43.7208 187.641 42.6827 188.516 42.6827C189.242 42.6827 189.391 43.2309 189.391 43.957V48.6306H191.261V45.0998C191.261 43.6623 192.121 42.6827 192.952 42.6827C193.65 42.6827 193.827 43.1726 193.827 43.957V48.6306H195.726V43.5573C195.729 41.881 194.942 41.0938 193.518 41.0938Z" fill="white"/>
<path d="M200.71 41.0938C198.499 41.0938 197.254 42.7556 197.254 45.0093C197.254 47.6043 198.56 48.7763 200.905 48.7763C201.824 48.7763 202.76 48.6131 203.545 48.301L203.367 46.8318C202.729 47.1291 201.944 47.2923 201.215 47.2923C199.85 47.2923 199.167 46.6247 199.182 45.2454H203.752C203.796 44.9337 203.81 44.6361 203.81 44.3855C203.813 42.5633 202.863 41.0938 200.71 41.0938ZM199.214 43.957C199.319 43.0677 199.867 42.4875 200.655 42.4875C201.457 42.4875 201.961 43.0356 201.929 43.957H199.214Z" fill="white"/>
<path d="M209.612 41.0938C208.41 41.0938 207.55 41.7031 207.104 42.5777L207.089 42.5633C207.162 42.1783 207.191 41.5981 207.191 41.257H205.395V48.6306H207.293V45.0707C207.293 43.7791 208.049 42.6827 209.014 42.6827C209.711 42.6827 209.918 43.1435 209.918 43.9132V48.6306H211.803V43.4523C211.808 42.1607 211.274 41.0938 209.612 41.0938Z" fill="white"/>
<path d="M216.092 38.4844L214.194 38.9887V41.2571H212.934V42.7266H214.208V46.4642C214.208 48.1843 214.713 48.7793 216.346 48.7793C216.865 48.7793 217.413 48.7063 217.889 48.5869V47.0591C217.62 47.1321 217.279 47.1785 216.967 47.1785C216.314 47.1785 216.092 46.9103 216.092 45.9627V42.7295H217.889V41.26H216.092V38.4844Z" fill="white"/>
<path d="M22.6427 15.8247C17.6873 17.6558 18.4748 22.3148 18.4748 22.3148C18.6965 21.6297 20.2335 18.5537 23.1706 17.8307C19.8864 21.1894 20.8168 25.3908 20.8168 25.3908C20.9277 24.8543 21.8639 20.5684 25.1218 19.6675C23.0977 22.3265 23.9143 25.7669 24.1214 26.5104C24.1214 25.1838 25.4631 22.8717 26.2855 21.8192C27.1168 23.5394 27.0001 26.8428 27.0001 26.8428H26.3847L26.9855 30.7497H26.4984L26.9622 34.6565H26.5597L27.0672 39.6537L25.3085 40.6103V40.8435H30.2433V40.6103L28.4847 39.6537L28.9923 34.6565H28.5897L29.0534 30.7497H28.5692L29.1672 26.8428H28.5518C28.5518 26.8428 28.4322 23.5365 29.2665 21.8192C30.089 22.8717 31.4305 25.1838 31.4305 26.5104C31.6375 25.7669 32.4543 22.3265 30.4271 19.6675C33.6878 20.5684 34.6241 24.8543 34.7321 25.3908C34.7321 25.3908 35.6626 21.1894 32.3755 17.8307C35.3155 18.5537 36.8525 21.6297 37.0713 22.3148C37.0713 22.3148 37.8559 17.6558 32.9033 15.8247C33.0055 15.8247 33.2212 15.7635 33.5741 15.7635C34.6534 15.7635 36.2749 16.2213 37.4037 16.7519C37.4037 16.7519 36.3099 13.9617 32.0518 13.9617C31.8825 13.9617 31.7455 13.9704 31.7455 13.9704C31.7455 13.9704 31.8914 12.9091 33.828 12.9091C34.4695 12.9091 35.0005 13.0141 35.0005 13.0141C35.0005 13.0141 33.8833 11.9791 32.218 11.9791C30.2812 11.9791 29.0302 13.5273 28.8172 13.7401C27.9743 13.1278 29.0039 12.1161 29.4355 11.8362C29.4355 11.8362 29.2752 11.7342 29.0184 11.7342C28.7034 11.7342 28.4176 11.9266 28.3184 12.0403C28.3184 12.0403 28.2222 11.2181 28.9631 10.8828C28.4497 10.8828 27.7672 11.3814 27.7672 11.5476C27.7672 11.3814 27.0876 10.8828 26.5743 10.8828C27.3151 11.2181 27.2189 12.0403 27.2189 12.0403C27.1197 11.9266 26.8339 11.7342 26.5189 11.7342C26.2622 11.7342 26.1018 11.8362 26.1018 11.8362C26.5305 12.1161 27.5601 13.1278 26.7201 13.7401C26.5072 13.5273 25.253 11.9791 23.3164 11.9791C21.651 11.9791 20.5339 13.0141 20.5339 13.0141C20.5339 13.0141 21.0647 12.9091 21.7064 12.9091C23.6401 12.9091 23.7889 13.9704 23.7889 13.9704C23.7889 13.9704 23.6518 13.9617 23.4826 13.9617C19.2243 13.9617 18.1306 16.7519 18.1306 16.7519C19.2593 16.2213 20.881 15.7635 21.9602 15.7635C22.3247 15.7635 22.5406 15.8247 22.6427 15.8247ZM42.2278 37.6276C36.5841 37.6276 27.7905 43.4236 27.7905 43.4236L27.7759 43.4326L27.7613 43.4236C27.7613 43.4236 18.9677 37.6276 13.324 37.6276C10.2732 37.6276 8.73321 38.677 8.25781 39.1174C9.02779 38.6597 11.192 38.6888 11.192 38.6888C13.1461 38.6888 15.914 39.4002 17.9235 40.3594C22.3772 42.4821 25.8684 44.5869 25.8684 44.5869L25.9122 44.6131L21.5547 47.3743C21.5547 47.3743 20.076 45.6075 18.7723 45.6075C17.9294 45.6075 17.7777 46.1003 17.7777 46.3218C17.7777 46.5403 17.9119 46.9983 18.469 46.9983C19.0231 46.9983 19.0494 46.6133 19.0494 46.485C19.1223 46.5141 19.1777 46.5026 19.2506 46.6075C19.3235 46.7125 20.181 48.0653 20.181 48.0653C20.181 48.0653 17.416 49.5959 17.2206 49.5959C17.0777 49.5959 16.8065 49.2608 16.5381 49.2608C16.2698 49.2608 16.2756 49.5057 16.2756 49.5463C16.2756 49.6951 16.9523 50.8469 17.9119 50.8469C18.0606 50.8469 18.5594 50.8731 18.8219 50.7739C19.8806 50.3688 21.0618 49.7854 21.3243 49.6398C21.3243 49.6398 22.2781 50.8293 22.946 50.8293C22.946 50.8293 23.1881 50.8351 23.2785 50.8351C23.6139 50.8351 23.9872 50.7563 23.9872 50.7563C23.9872 50.7563 24.4947 51.1151 24.8768 51.1151C25.2618 51.1151 25.6905 50.8904 25.6905 50.4443C25.6905 49.9985 25.3901 49.7067 24.9876 49.7067C24.5851 49.7067 24.3839 50.0567 24.3839 50.2024C24.2818 50.2024 24.206 50.2084 24.206 50.2084L22.8585 48.7885L27.7847 45.762L32.7139 48.7885L31.3634 50.2084C31.3634 50.2084 31.2904 50.2024 31.1856 50.2024C31.1856 50.0567 30.9841 49.7067 30.5817 49.7067C30.1793 49.7067 29.8817 50.0014 29.8817 50.4443C29.8817 50.8904 30.3075 51.1151 30.6926 51.1151C31.0776 51.1151 31.5851 50.7563 31.5851 50.7563C31.5851 50.7563 31.9583 50.8351 32.2939 50.8351C32.3842 50.8351 32.6262 50.8293 32.6262 50.8293C33.2941 50.8293 34.248 49.6398 34.248 49.6398C34.5103 49.7854 35.6918 50.3688 36.7506 50.7739C37.0129 50.8731 37.5117 50.8469 37.6605 50.8469C38.617 50.8469 39.2968 49.6951 39.2968 49.5463C39.2968 49.5057 39.3026 49.2608 39.0342 49.2608C38.7658 49.2608 38.4946 49.5959 38.3515 49.5959C38.1561 49.5959 35.3913 48.0653 35.3913 48.0653C35.3913 48.0653 36.2459 46.7125 36.3189 46.6075C36.3916 46.5054 36.4472 46.5173 36.5201 46.485C36.5201 46.6133 36.5433 46.9983 37.1003 46.9983C37.6547 46.9983 37.7916 46.5403 37.7916 46.3218C37.7916 46.1003 37.6399 45.6075 36.7972 45.6075C35.4903 45.6075 34.0147 47.3743 34.0147 47.3743L29.6573 44.6131L29.701 44.5869C29.701 44.5869 33.1951 42.485 37.6457 40.3594C39.6555 39.4002 42.4232 38.6888 44.3774 38.6888C44.3774 38.6888 46.5443 38.6597 47.3115 39.1174C46.8185 38.677 45.2815 37.6276 42.2278 37.6276Z" fill="white"/>
<path d="M55.5154 62H0.0351562V0H55.5154V62ZM3.1822 58.8542H52.3685V3.14591H3.1822V58.8542Z" fill="white"/>
</g>
</g>
<path opacity="0.5" d="M248 16L248 46" stroke="white" stroke-width="2" stroke-linecap="round"/>
<g clip-path="url(#clip1_477_8884)">
<path d="M333.636 1.12109H332.594V2.16131H333.636V1.12109Z" fill="white"/>
<path d="M355.308 14.0547H354.266V15.0949H355.308V14.0547Z" fill="white"/>
<path d="M366.937 12.9426C367.185 12.8279 367.397 12.6481 367.552 12.4225C367.718 12.1707 367.831 11.888 367.885 11.5913C367.953 11.2287 367.986 10.8603 367.982 10.4914V3.21484H366.94V10.4939C366.942 10.7435 366.927 10.993 366.895 11.2405C366.875 11.415 366.822 11.584 366.738 11.7382C366.67 11.859 366.566 11.955 366.439 12.0119C366.281 12.0753 366.112 12.1042 365.942 12.0965C365.858 12.0968 365.775 12.0927 365.693 12.0841C365.596 12.0678 365.5 12.0454 365.407 12.0169L365.133 13.0123C365.408 13.0883 365.693 13.1276 365.979 13.1293C366.308 13.1383 366.635 13.0745 366.937 12.9426Z" fill="white"/>
<path d="M363.354 1.36006H361.923V1.1112C361.915 1.00246 361.945 0.894332 362.008 0.805107C362.053 0.770896 362.104 0.746188 362.159 0.732496C362.214 0.718805 362.271 0.716415 362.326 0.725472H363.041V-0.00118772H362.306C362.14 -0.0121141 361.974 0.00996653 361.816 0.0637831C361.658 0.1176 361.513 0.202086 361.388 0.31237C361.272 0.448857 361.183 0.607101 361.128 0.777957C361.073 0.948813 361.052 1.12889 361.067 1.30779V2.15639H363.352L363.354 1.36006Z" fill="white"/>
<path d="M353.226 14.0547H352.184V15.0949H353.226V14.0547Z" fill="white"/>
<path d="M335.722 1.12109H334.68V2.16131H335.722V1.12109Z" fill="white"/>
<path d="M358.656 9.43667C359.073 9.72648 359.538 9.93813 360.03 10.0613C360.571 10.1973 361.127 10.2642 361.685 10.2604H361.959L362.31 9.52875V10.5615C362.31 11.1057 362.154 11.4955 361.842 11.7311C361.452 11.9869 360.99 12.1099 360.525 12.082C360.234 12.0857 359.943 12.0548 359.659 11.9899C359.357 11.9136 359.062 11.8095 358.778 11.6789L358.455 12.6743C358.801 12.8059 359.155 12.9164 359.515 13.0053C359.82 13.0794 360.132 13.117 360.446 13.1173C361.464 13.1173 362.2 12.8684 362.661 12.3956C363.14 11.865 363.388 11.1659 363.352 10.452V3.21527H361.685C361.088 3.20778 360.493 3.29944 359.926 3.48652C359.43 3.65063 358.969 3.90361 358.564 4.23309C358.193 4.54123 357.893 4.92682 357.686 5.3629C357.475 5.80769 357.368 6.2943 357.372 6.78635C357.358 7.33338 357.476 7.87578 357.718 8.36659C357.941 8.79279 358.263 9.15963 358.656 9.43667ZM358.656 5.75111C358.812 5.44348 359.029 5.17081 359.293 4.9498C359.563 4.72721 359.87 4.55369 360.199 4.43715C360.528 4.3206 360.874 4.25921 361.222 4.25548H362.904L362.31 4.55162V9.22265H361.254C360.882 9.22528 360.51 9.16987 360.155 9.05841C359.825 8.9583 359.518 8.79705 359.249 8.5831C358.989 8.37781 358.779 8.11558 358.637 7.81662C358.484 7.49126 358.409 7.13548 358.415 6.7764C358.411 6.42094 358.494 6.06992 358.656 5.7536V5.75111Z" fill="white"/>
<path d="M332.878 12.98H335.043V12.201C335.063 12.2379 335.086 12.2737 335.11 12.308C335.263 12.5375 335.477 12.7201 335.727 12.8356C336.025 12.9654 336.348 13.0275 336.673 13.0173H355.673V3.21484H354.63V11.987H336.713C336.543 11.9947 336.373 11.9658 336.215 11.9024C336.088 11.8466 335.983 11.7515 335.914 11.6312C335.832 11.4762 335.78 11.3075 335.76 11.1334C335.727 10.886 335.712 10.6365 335.715 10.3869V3.21484H332.905C330.023 3.21484 328.062 5.49437 328.062 8.10238V8.12975C328.062 10.7253 329.996 12.98 332.878 12.98ZM329.172 8.06505C329.172 5.91742 330.713 4.19036 332.878 4.19036H335.317L334.68 4.50641V10.3794C334.676 10.7475 334.709 11.1151 334.777 11.4769C334.811 11.6549 334.865 11.8285 334.938 11.9945H332.905C330.74 11.9945 329.172 10.2376 329.172 8.09242V8.06505Z" fill="white"/>
<path d="M322.852 10.3972L323.305 11.5967L316.688 3.19531H315.652V12.9604H316.73V5.59926L316.115 4.17581L323.046 12.9604H323.927V3.19531H322.852V10.3972Z" fill="white"/>
<path d="M337.689 28.5619L343.699 22.8382V18.9062H327.645V23.3857H335.877L338.933 21.4172L331.311 29.0695L332.124 32.3918H334.297C337.216 32.3918 338.948 33.4743 338.948 35.4054V35.4726C338.948 37.2345 337.557 38.3519 335.589 38.3519C333.177 38.3519 331.48 37.3365 329.852 35.5074L326.254 38.9292C328.29 41.3356 331.243 43.0279 335.519 43.0279C340.814 43.0279 344.074 39.743 344.074 35.271V35.2013C344.074 30.7991 340.924 29.0944 337.689 28.5619Z" fill="white"/>
<path d="M308.868 3.02344C305.882 3.02344 303.863 5.3801 303.863 8.07273V8.10259C303.863 10.7952 305.854 13.1245 308.84 13.1245C311.827 13.1245 313.845 10.7653 313.845 8.07273V8.04535C313.842 5.35273 311.844 3.02344 308.868 3.02344ZM312.698 8.10259C312.698 10.3199 311.103 12.1067 308.868 12.1067C306.633 12.1067 305.008 10.2925 305.008 8.07273V8.04535C305.008 5.82804 306.603 4.04126 308.838 4.04126C311.073 4.04126 312.698 5.85542 312.698 8.07273V8.10259Z" fill="white"/>
<path d="M358.095 18.5039C350.764 18.5039 345.434 24.026 345.434 30.7675V30.8397C345.434 37.5837 350.694 43.0337 358.028 43.0337C365.362 43.0337 370.69 37.5115 370.69 30.77V30.7028C370.678 23.9588 365.414 18.5039 358.095 18.5039ZM365.213 30.8397C365.213 34.906 362.294 38.2257 358.083 38.2257C353.872 38.2257 350.879 34.8338 350.879 30.7675V30.7003C350.879 26.634 353.8 23.3143 358.008 23.3143C362.216 23.3143 365.205 26.7037 365.205 30.7675L365.213 30.8397Z" fill="white"/>
<path d="M301.96 3.19531H300.855V12.9604H301.96V3.19531Z" fill="white"/>
<path d="M283.115 39.9147L284.123 39.1383L289.317 35.1367C293.525 31.8841 295.56 29.9107 295.56 25.9564V25.8892C295.56 21.4496 292.303 18.5703 287.381 18.5703C283.138 18.5703 280.863 20.2974 278.521 23.4827L282.194 26.4292C283.959 24.2616 285.216 23.2463 287.05 23.2463C288.884 23.2463 290.24 24.3288 290.24 26.3296C290.24 28.2931 289.085 29.5822 286.131 32.021L278.223 38.4912V42.6247H295.807V38.118H286.739L283.115 39.9147Z" fill="white"/>
<path d="M283.186 13.0301L287.394 3.19531H286.207L282.88 11.201L282.987 12.2736L282.711 11.6066L279.832 4.64863L279.229 3.19531H278L282.208 13.0301H283.186Z" fill="white"/>
<path d="M289.999 3.19531H288.895V12.9604H289.999V3.19531Z" fill="white"/>
<path d="M295.845 7.54465C293.69 7.08426 293.187 6.56913 293.187 5.64836V5.62099C293.187 4.74004 293.998 4.04324 295.27 4.04324C296.309 4.04414 297.312 4.42068 298.094 5.10337L298.737 4.25228C297.777 3.44449 296.554 3.0176 295.3 3.0528C293.438 3.0528 292.085 4.1826 292.085 5.71804V5.74542C292.085 7.35054 293.117 8.07471 295.369 8.56496C297.423 8.99548 297.913 9.5131 297.913 10.4189V10.4463C297.913 11.4094 297.047 12.1062 295.733 12.1062C294.377 12.1062 293.399 11.6483 292.376 10.7275L291.691 11.5363C292.772 12.5551 294.205 13.1153 295.691 13.0991C297.632 13.0991 299.03 12.0091 299.03 10.3368V10.3069C299.03 8.8163 298.025 8.01996 295.845 7.54465Z" fill="white"/>
<path d="M310 16.9414L311.204 18.0936L310.05 19.2931L308.848 18.1409L310 16.9414Z" fill="#273877"/>
<path d="M312.754 18.1409L313.958 19.2931L315.113 18.0936L313.909 16.9414L312.754 18.1409Z" fill="#AAAAAD"/>
<path d="M311.062 19.652L312.001 20.5503L312.899 19.6146L311.963 18.7188L311.062 19.652Z" fill="#CCD533"/>
<path d="M314.496 20.1701L315.432 21.066L316.33 20.1327L315.394 19.2344L314.496 20.1701Z" fill="#71B645"/>
<path d="M309.531 21.0841L310.467 21.9825L311.365 21.0468L310.43 20.1484L309.531 21.0841Z" fill="#CCD533"/>
<path d="M312.672 21.1935L313.608 22.0894L314.508 21.1562L313.57 20.2578L312.672 21.1935Z" fill="#26B4BB"/>
<path d="M311.445 22.2688L312.105 22.9009L312.737 22.2415L312.077 21.6094L311.445 22.2688Z" fill="#71B645"/>
<path d="M313.93 22.7664L314.589 23.3984L315.221 22.739L314.562 22.1094L313.93 22.7664Z" fill="#59B25A"/>
<path d="M321.407 17.3831L319.363 17.7578L319.738 19.7992L321.781 19.4245L321.407 17.3831Z" fill="#2885C7"/>
<path d="M318.335 18.309L316.695 18.6094L316.995 20.247L318.635 19.9466L318.335 18.309Z" fill="#1D3A6D"/>
<path d="M321.499 20.6016L319.859 20.9023L320.16 22.5399L321.8 22.2392L321.499 20.6016Z" fill="#26B4BB"/>
<path d="M318.875 20.9066L317.598 21.1406L317.831 22.4159L319.109 22.1819L318.875 20.9066Z" fill="#CCD533"/>
<path d="M321.36 23.3284L320.082 23.5625L320.316 24.8378L321.593 24.6038L321.36 23.3284Z" fill="#AAAAAD"/>
<path d="M316.961 21.4222L315.684 21.6562L315.917 22.9316L317.195 22.6975L316.961 21.4222Z" fill="#26B4BB"/>
<path d="M319.282 23.0941L318.004 23.3281L318.238 24.6035L319.515 24.3694L319.282 23.0941Z" fill="#71B645"/>
<path d="M317.277 23.3119L316.379 23.4766L316.543 24.3724L317.441 24.2077L317.277 23.3119Z" fill="#AAAAAD"/>
<path d="M319.004 25.1678L318.105 25.332L318.269 26.228L319.168 26.0638L319.004 25.1678Z" fill="#59B25A"/>
<path d="M325.44 24.4492L324.547 26.3231L326.426 27.214L327.317 25.3401L325.44 24.4492Z" fill="#273877"/>
<path d="M322.775 23.582L322.059 25.0851L323.564 25.7993L324.281 24.2962L322.775 23.582Z" fill="#26B4BB"/>
<path d="M324.01 27.2852L323.293 28.7882L324.799 29.5025L325.515 27.9994L324.01 27.2852Z" fill="#71B645"/>
<path d="M322.034 26.1562L321.477 27.3259L322.649 27.8833L323.206 26.7112L322.034 26.1562Z" fill="#CCD533"/>
<path d="M322.628 29.5703L322.07 30.7399L323.242 31.2974L323.8 30.1277L322.628 29.5703Z" fill="#CCD533"/>
<path d="M320.179 25.4609L319.621 26.6306L320.793 27.188L321.351 26.0159L320.179 25.4609Z" fill="#2885C7"/>
<path d="M321.081 28.168L320.523 29.3376L321.696 29.895L322.253 28.7229L321.081 28.168Z" fill="#AAAAAD"/>
<path d="M319.668 27.3438L319.277 28.1675L320.101 28.5582L320.494 27.7369L319.668 27.3438Z" fill="#71B645"/>
<path d="M319.981 29.8534L319.59 30.6758L320.415 31.0682L320.806 30.2458L319.981 29.8534Z" fill="#26B4BB"/>
<path d="M326.453 33.418L324.629 34.4159L325.629 36.235L327.453 35.2371L326.453 33.418Z" fill="#2885C7"/>
<path d="M324.797 31.1641L323.336 31.9629L324.137 33.4237L325.601 32.6224L324.797 31.1641Z" fill="#26B4BB"/>
<path d="M323.627 34.8828L322.164 35.6841L322.968 37.1424L324.429 36.3436L323.627 34.8828Z" fill="#26B4BB"/>
<path d="M322.688 32.8164L321.551 33.4385L322.175 34.5758L323.313 33.9537L322.688 32.8164Z" fill="#273877"/>
<path d="M321.171 35.9297L320.031 36.5543L320.656 37.6916L321.796 37.067L321.171 35.9297Z" fill="#59B25A"/>
<path d="M321.59 31.1641L320.453 31.7887L321.078 32.9235L322.218 32.3013L321.59 31.1641Z" fill="#1D3A6D"/>
<path d="M320.735 33.8906L319.598 34.5153L320.222 35.65L321.36 35.0279L320.735 33.8906Z" fill="#CCD533"/>
<path d="M320.075 32.3984L319.273 32.8389L319.714 33.6377L320.515 33.1998L320.075 32.3984Z" fill="#AAAAAD"/>
<path d="M318.856 34.6172L318.055 35.0552L318.493 35.854L319.294 35.416L318.856 34.6172Z" fill="#26B4BB"/>
<path d="M319.954 41.034L319.699 43.0938L321.761 43.3488L322.016 41.289L319.954 41.034Z" fill="#71B645"/>
<path d="M320.337 38.2775L320.133 39.9297L321.788 40.1346L321.992 38.4824L320.337 38.2775Z" fill="#1D3A6D"/>
<path d="M317.205 40.6134L317 42.2656L318.655 42.4706L318.859 40.8183L317.205 40.6134Z" fill="#26B4BB"/>
<path d="M318.026 38.4476L317.867 39.7344L319.156 39.8938L319.316 38.6071L318.026 38.4476Z" fill="#71B645"/>
<path d="M314.968 40.0883L314.809 41.375L316.098 41.5344L316.257 40.2477L314.968 40.0883Z" fill="#AAAAAD"/>
<path d="M318.101 36.4555L317.941 37.7422L319.231 37.9018L319.39 36.6151L318.101 36.4555Z" fill="#AAAAAD"/>
<path d="M315.808 38.1664L315.648 39.4531L316.938 39.6128L317.097 38.3261L315.808 38.1664Z" fill="#71B645"/>
<path d="M316.534 36.6195L316.422 37.5234L317.328 37.6355L317.44 36.7316L316.534 36.6195Z" fill="#AAAAAD"/>
<path d="M314.245 37.7133L314.133 38.6172L315.039 38.7293L315.151 37.8254L314.245 37.7133Z" fill="#AAAAAD"/>
<path d="M313.8 45.0698L312.277 43.6562L310.863 45.1792L312.386 46.5903L313.8 45.0698Z" fill="#CCD533"/>
<path d="M313.519 16.0112L311.996 14.5977L310.582 16.1182L312.105 17.5292L313.519 16.0112Z" fill="#71B645"/>
<path d="M315.429 42.7925L314.205 41.6602L313.07 42.8795L314.295 44.0143L315.429 42.7925Z" fill="#26B4BB"/>
<path d="M311.521 42.8589L310.299 41.7266L309.164 42.946L310.386 44.0807L311.521 42.8589Z" fill="#71B645"/>
<path d="M313.186 41.3184L312.235 40.4375L311.352 41.3856L312.302 42.2666L313.186 41.3184Z" fill="#2885C7"/>
<path d="M309.744 40.8575L308.791 39.9766L307.91 40.9272L308.861 41.8081L309.744 40.8575Z" fill="#CCD533"/>
<path d="M314.411 39.7584L313.458 38.875L312.574 39.8256L313.525 40.7066L314.411 39.7584Z" fill="#CCD533"/>
<path d="M311.551 39.8053L310.598 38.9219L309.715 39.8725L310.668 40.7535L311.551 39.8053Z" fill="#AAAAAD"/>
<path d="M312.762 38.7095L312.095 38.0898L311.473 38.7568L312.142 39.3789L312.762 38.7095Z" fill="#1D3A6D"/>
<path d="M310.266 38.2525L309.596 37.6328L308.977 38.3022L309.646 38.9219L310.266 38.2525Z" fill="#AAAAAD"/>
<path d="M304.51 41.3144L302.473 41.7227L302.88 43.7577L304.918 43.3494L304.51 41.3144Z" fill="#2885C7"/>
<path d="M307.252 40.8131L305.617 41.1406L305.944 42.773L307.579 42.4455L307.252 40.8131Z" fill="#26B4BB"/>
<path d="M304.037 38.5901L302.402 38.918L302.73 40.5503L304.364 40.2225L304.037 38.5901Z" fill="#71B645"/>
<path d="M306.375 38.6667L305.102 38.9219L305.356 40.1931L306.63 39.9379L306.375 38.6667Z" fill="#CCD533"/>
<path d="M308.282 38.1198L307.008 38.375L307.263 39.6463L308.536 39.3911L308.282 38.1198Z" fill="#273877"/>
<path d="M305.934 36.487L304.66 36.7422L304.915 38.0135L306.189 37.7583L305.934 36.487Z" fill="#2885C7"/>
<path d="M307.634 36.6801L306.738 36.8594L306.917 37.7525L307.813 37.5732L307.634 36.6801Z" fill="#71B645"/>
<path d="M305.868 34.8673L304.973 35.0469L305.152 35.9399L306.047 35.7603L305.868 34.8673Z" fill="#AAAAAD"/>
<path d="M298.734 36.763L299.595 34.8767L297.703 34.0156L296.84 35.9044L298.734 36.763Z" fill="#26B4BB"/>
<path d="M301.409 37.5877L302.1 36.0721L300.582 35.3828L299.891 36.8959L301.409 37.5877Z" fill="#CCD533"/>
<path d="M300.116 33.9041L300.807 32.391L299.289 31.6992L298.598 33.2148L300.116 33.9041Z" fill="#2885C7"/>
<path d="M301.468 33.2891L300.93 34.4688L302.112 35.0079L302.65 33.8282L301.468 33.2891Z" fill="#26B4BB"/>
<path d="M303.69 37.9476L304.227 36.768L303.045 36.2305L302.508 37.41L303.69 37.9476Z" fill="#AAAAAD"/>
<path d="M300.815 29.8673L300.277 31.0469L301.459 31.586L301.997 30.4064L300.815 29.8673Z" fill="#273877"/>
<path d="M303.331 33.9376L302.793 35.1172L303.975 35.6563L304.513 34.4767L303.331 33.9376Z" fill="#59B25A"/>
<path d="M302.386 31.2503L301.848 32.4297L303.029 32.9692L303.568 31.7898L302.386 31.2503Z" fill="#CCD533"/>
<path d="M304.452 33.7719L304.831 32.9408L303.999 32.5625L303.621 33.3937L304.452 33.7719Z" fill="#1D3A6D"/>
<path d="M304.099 31.2695L304.478 30.4383L303.646 30.0625L303.266 30.8912L304.099 31.2695Z" fill="#71B645"/>
<path d="M297.569 27.81L299.376 26.7847L298.346 24.9805L296.539 26.0082L297.569 27.81Z" fill="#26B4BB"/>
<path d="M299.264 30.0416L300.712 29.2154L299.886 27.7695L298.438 28.5957L299.264 30.0416Z" fill="#71B645"/>
<path d="M300.369 26.3008L301.82 25.4771L300.991 24.0312L299.543 24.855L300.369 26.3008Z" fill="#1D3A6D"/>
<path d="M301.344 28.3489L302.471 27.7069L301.827 26.582L300.699 27.2241L301.344 28.3489Z" fill="#2885C7"/>
<path d="M302.81 25.2083L303.94 24.5662L303.295 23.4414L302.168 24.0835L302.81 25.2083Z" fill="#71B645"/>
<path d="M302.466 29.9803L303.596 29.3383L302.952 28.2109L301.824 28.853L302.466 29.9803Z" fill="#26B4BB"/>
<path d="M303.279 27.2434L304.406 26.6014L303.764 25.4766L302.637 26.1186L303.279 27.2434Z" fill="#CCD533"/>
<path d="M303.962 28.7287L304.756 28.2757L304.303 27.4844L303.512 27.9348L303.962 28.7287Z" fill="#AAAAAD"/>
<path d="M305.144 26.4865L305.938 26.036L305.485 25.2422L304.691 25.6951L305.144 26.4865Z" fill="#71B645"/>
<path d="M302.099 17.8035L301.879 19.8672L303.945 20.088L304.166 18.0243L302.099 17.8035Z" fill="#71B645"/>
<path d="M302.119 21.0165L301.941 22.6719L303.599 22.8493L303.776 21.194L302.119 21.0165Z" fill="#AAAAAD"/>
<path d="M305.212 18.6259L305.035 20.2812L306.693 20.4587L306.87 18.8033L305.212 18.6259Z" fill="#26B4BB"/>
<path d="M304.759 21.2225L304.621 22.5117L305.913 22.65L306.051 21.3608L304.759 21.2225Z" fill="#CCD533"/>
<path d="M307.79 19.5311L307.652 20.8203L308.944 20.9581L309.082 19.6689L307.79 19.5311Z" fill="#2885C7"/>
<path d="M304.712 23.1991L304.574 24.4883L305.866 24.6265L306.004 23.3374L304.712 23.1991Z" fill="#26B4BB"/>
<path d="M306.974 21.453L306.836 22.7422L308.128 22.8805L308.266 21.5913L306.974 21.453Z" fill="#71B645"/>
<path d="M306.624 23.4459L306.527 24.3516L307.435 24.4488L307.532 23.5431L306.624 23.4459Z" fill="#1D3A6D"/>
<path d="M308.893 22.313L308.797 23.2188L309.705 23.3153L309.801 22.4096L308.893 22.313Z" fill="#AAAAAD"/>
<path d="M283.44 54.4688H282.828V55.0809H283.44V54.4688Z" fill="white"/>
<path d="M324.044 53.7619V49.723H323.446V53.1671H321.207V49.723H320.612V53.1671H318.228V49.723H317.282C316.939 49.7182 316.596 49.7694 316.269 49.8748C315.986 49.9659 315.723 50.1094 315.493 50.2978C315.282 50.4739 315.112 50.6939 314.995 50.9424C314.878 51.1939 314.818 51.4686 314.821 51.7462C314.813 52.0609 314.882 52.3728 315.023 52.6545C315.15 52.9011 315.334 53.1149 315.558 53.2791C315.793 53.4492 316.059 53.5726 316.342 53.6424C316.648 53.723 316.963 53.7632 317.28 53.7619H324.044ZM316.411 53.0701C316.224 53.0111 316.05 52.9165 315.899 52.7914C315.752 52.6696 315.633 52.5177 315.55 52.3459C315.463 52.1581 315.42 51.9531 315.423 51.7462C315.421 51.5428 315.469 51.342 315.563 51.1614C315.653 50.9875 315.777 50.8335 315.928 50.7084C316.082 50.5805 316.257 50.4818 316.446 50.4173C316.637 50.351 316.838 50.3174 317.041 50.3177H317.631V53.1671H317.033C316.822 53.1677 316.612 53.1349 316.411 53.0701Z" fill="white"/>
<path d="M311.882 48.418H311.285V53.7584H311.882V48.418Z" fill="white"/>
<path d="M318.225 48.418H317.613V49.0302H318.225V48.418Z" fill="white"/>
<path d="M324.05 54.4609H323.438V55.0731H324.05V54.4609Z" fill="white"/>
<path d="M284.483 54.4688H283.871V55.0809H284.483V54.4688Z" fill="white"/>
<path d="M308.949 53.1676H307.974C307.692 53.1806 307.411 53.1295 307.152 53.0182C306.954 52.9205 306.791 52.7652 306.682 52.5728C306.72 52.3894 306.737 52.2025 306.734 52.0154V50.0942H306.137V52.1099C306.152 52.409 306.054 52.7027 305.863 52.9336C305.755 53.0426 305.624 53.1265 305.479 53.1798C305.335 53.2331 305.181 53.2544 305.027 53.2422C304.864 53.2442 304.702 53.2164 304.549 53.1601C304.412 53.1095 304.285 53.0335 304.176 52.9361C304.073 52.843 303.988 52.7306 303.927 52.6051C303.868 52.4779 303.836 52.3398 303.833 52.1995V50.0942H303.235V52.1547C303.24 52.3138 303.212 52.4721 303.153 52.6201C303.103 52.7402 303.027 52.8474 302.929 52.9336C302.836 53.0151 302.727 53.0761 302.608 53.1128C302.485 53.1503 302.357 53.1688 302.228 53.1676H301.073V50.0942H300.476V53.1676H297.348L298.39 50.679C298.232 50.5389 298.066 50.4084 297.893 50.2883C297.716 50.1689 297.532 50.0624 297.34 49.9698C297.156 49.8795 296.963 49.807 296.765 49.7533C296.579 49.7025 296.386 49.6765 296.193 49.6761C295.996 49.6762 295.8 49.7021 295.611 49.7533C295.412 49.8068 295.219 49.8775 295.033 49.9648C294.84 50.0553 294.655 50.1627 294.481 50.2858C294.307 50.4066 294.141 50.5379 293.983 50.679L295.033 53.1676H292.968V49.7234H292.015C291.677 49.7199 291.34 49.772 291.019 49.8777C290.736 49.9721 290.472 50.1171 290.24 50.3057C290.03 50.4832 289.86 50.7039 289.743 50.9527C289.622 51.2079 289.561 51.4869 289.563 51.769C289.554 52.0816 289.622 52.3918 289.76 52.6723C289.887 52.9183 290.071 53.13 290.297 53.2895C290.535 53.4566 290.802 53.5781 291.084 53.6479C291.394 53.726 291.712 53.7644 292.032 53.7623H292.388V53.934C292.4 54.0588 292.382 54.1846 292.336 54.301C292.29 54.4175 292.216 54.5212 292.122 54.6035C291.9 54.7482 291.639 54.8188 291.375 54.805C291.208 54.8071 291.041 54.7896 290.877 54.7528C290.706 54.7088 290.54 54.6488 290.38 54.5736L290.193 55.146C290.391 55.2219 290.594 55.2859 290.8 55.3376C290.975 55.3793 291.153 55.4002 291.333 55.3998C291.915 55.3998 292.328 55.2629 292.599 54.9867C292.735 54.8366 292.841 54.661 292.908 54.4701C292.976 54.2791 293.006 54.0767 292.995 53.8743V53.7623H302.262C302.532 53.7666 302.798 53.7033 303.036 53.5782C303.256 53.4587 303.444 53.288 303.584 53.0805C303.726 53.3165 303.929 53.51 304.171 53.6404C304.446 53.7788 304.752 53.8472 305.06 53.8395C305.374 53.8486 305.687 53.7847 305.973 53.6528C306.223 53.531 306.426 53.3297 306.55 53.0805C306.604 53.169 306.665 53.2523 306.734 53.3293C306.814 53.4182 306.908 53.4924 307.013 53.5483C307.143 53.6191 307.282 53.6719 307.426 53.7051C307.567 53.7381 307.712 53.7557 307.857 53.7573H309.579V48.4219H308.982L308.949 53.1676ZM292.365 53.1676H291.763C291.55 53.1697 291.337 53.1386 291.134 53.0755C290.945 53.017 290.769 52.9251 290.614 52.8042C290.465 52.6863 290.346 52.5355 290.265 52.3638C290.178 52.1779 290.134 51.9744 290.138 51.769C290.136 51.5642 290.183 51.3619 290.275 51.1792C290.365 51.0041 290.489 50.8492 290.641 50.7238C290.794 50.5951 290.969 50.4955 291.159 50.4301C291.352 50.3605 291.557 50.3251 291.763 50.3256H292.365V53.1676ZM295.655 53.1676L294.722 50.8831C294.931 50.701 295.17 50.5577 295.429 50.46C295.931 50.2726 296.486 50.2815 296.982 50.4849C297.226 50.5799 297.453 50.7144 297.654 50.8831L296.72 53.1676H295.655Z" fill="white"/>
<path d="M281.397 48.418H280.785V49.0302H281.397V48.418Z" fill="white"/>
<path d="M341.725 48.418H341.113V49.0302H341.725V48.418Z" fill="white"/>
<path d="M336.429 48.418H335.832V53.7584H336.429V48.418Z" fill="white"/>
<path d="M317.179 48.418H316.566V49.0302H317.179V48.418Z" fill="white"/>
<path d="M288.595 51.4171C288.597 51.1956 288.566 50.975 288.503 50.7626C288.446 50.5724 288.348 50.3967 288.217 50.2475C288.068 50.0813 287.885 49.9482 287.682 49.8568C287.454 49.7641 287.209 49.72 286.963 49.7274H286.522V50.3221H287.045C287.187 50.3212 287.327 50.3527 287.455 50.4142C287.579 50.4733 287.688 50.5581 287.776 50.6631C287.859 50.7636 287.918 50.8808 287.95 51.0065C287.986 51.1523 288.003 51.3019 288 51.4519V53.179H285.203V53.7738H288.595V51.4171Z" fill="white"/>
<path d="M367.988 48.418H367.391V53.7584H367.988V48.418Z" fill="white"/>
<path d="M342.772 48.418H342.16V49.0302H342.772V48.418Z" fill="white"/>
<path d="M365.648 48.4219H365.061V53.1676H363.011C363.136 52.8917 363.199 52.592 363.197 52.2891C363.199 51.9945 363.142 51.7024 363.028 51.4305C362.923 51.1726 362.767 50.9382 362.57 50.7412C362.373 50.5442 362.139 50.3886 361.881 50.2833C361.608 50.1704 361.315 50.1137 361.02 50.1166C360.732 50.1143 360.447 50.1728 360.184 50.2883C359.673 50.5111 359.269 50.9245 359.059 51.4405C358.948 51.7097 358.892 51.9981 358.895 52.2891C358.894 52.443 358.909 52.5965 358.942 52.747C358.974 52.8907 359.018 53.0314 359.074 53.1676H357.225C357.349 52.8915 357.412 52.5918 357.409 52.2891C357.412 51.9946 357.355 51.7026 357.242 51.4305C357.137 51.1726 356.981 50.9382 356.784 50.7412C356.587 50.5442 356.353 50.3886 356.095 50.2833C355.822 50.1706 355.529 50.1139 355.234 50.1166C354.946 50.1143 354.661 50.1728 354.398 50.2883C353.887 50.5111 353.483 50.9245 353.273 51.4405C353.162 51.7097 353.107 51.9981 353.109 52.2891C353.108 52.443 353.124 52.5965 353.156 52.747C353.188 52.8907 353.232 53.0314 353.288 53.1676H351.394V48.4219H350.797V53.1676H348.886V52.2567C348.887 52.0363 348.856 51.8168 348.796 51.6047C348.743 51.4104 348.646 51.2308 348.512 51.0797C348.368 50.9149 348.19 50.7833 347.99 50.6939C347.752 50.6003 347.498 50.5571 347.243 50.567H344.615L345.738 48.4219H345.09L343.943 50.5595C343.959 50.6745 343.991 50.7867 344.038 50.893C344.082 50.9909 344.141 51.0816 344.212 51.1618H347.256C347.426 51.1555 347.595 51.1852 347.753 51.2489C347.881 51.2983 347.995 51.3787 348.084 51.4828C348.168 51.5807 348.227 51.6978 348.256 51.8237C348.287 51.9659 348.302 52.1112 348.301 52.2567V53.1676H342.774V49.7234H341.833C341.489 49.7188 341.147 49.77 340.82 49.8752C340.537 49.9663 340.274 50.1099 340.044 50.2983C339.833 50.4744 339.663 50.6943 339.546 50.9428C339.429 51.1944 339.369 51.469 339.372 51.7466C339.363 52.0613 339.433 52.3733 339.573 52.6549C339.703 52.9005 339.886 53.1139 340.108 53.2795C340.344 53.4497 340.61 53.573 340.892 53.6429C341.198 53.7234 341.514 53.7636 341.83 53.7623H353.664C353.859 53.9725 354.094 54.1417 354.355 54.26C354.628 54.3841 354.924 54.447 355.224 54.4442C355.53 54.4464 355.833 54.3854 356.115 54.265C356.384 54.1506 356.627 53.9811 356.827 53.7673H359.449C359.645 53.9775 359.88 54.1467 360.141 54.265C360.414 54.3891 360.71 54.4519 361.01 54.4492C361.316 54.4516 361.619 54.3906 361.901 54.27C362.17 54.1556 362.413 53.9861 362.612 53.7723H365.646L365.648 48.4219ZM342.166 53.1676H341.579C341.365 53.1691 341.151 53.1363 340.947 53.0705C340.76 53.0104 340.586 52.9159 340.434 52.7918C340.288 52.67 340.169 52.5181 340.086 52.3463C339.999 52.1585 339.956 51.9535 339.959 51.7466C339.957 51.5432 340.005 51.3424 340.098 51.1618C340.189 50.9879 340.313 50.8339 340.464 50.7089C340.617 50.5809 340.793 50.4822 340.982 50.4177C341.174 50.3512 341.376 50.3176 341.579 50.3182H342.166V53.1676ZM356.672 52.9038C356.595 53.0907 356.481 53.26 356.336 53.4015C356.194 53.542 356.025 53.6521 355.839 53.725C355.641 53.803 355.429 53.8419 355.216 53.8395C355.008 53.8422 354.801 53.8006 354.609 53.7175C354.423 53.6399 354.253 53.5257 354.112 53.3816C353.973 53.2379 353.864 53.0689 353.79 52.8839C353.712 52.6928 353.672 52.4881 353.674 52.2816C353.673 52.0736 353.713 51.8674 353.79 51.6744C353.864 51.4902 353.971 51.3214 354.107 51.1767C354.243 51.0335 354.406 50.9186 354.587 50.8383C354.781 50.7525 354.992 50.7093 355.204 50.7113C355.42 50.7091 355.634 50.7497 355.834 50.8308C356.019 50.9064 356.188 51.0171 356.331 51.1568C356.475 51.2981 356.589 51.4675 356.665 51.6545C356.746 51.8544 356.787 52.0684 356.784 52.2841C356.793 52.4954 356.758 52.7063 356.682 52.9038H356.672ZM362.458 52.9038C362.382 53.0905 362.268 53.2598 362.125 53.4015C361.982 53.5412 361.813 53.6512 361.627 53.725C361.429 53.803 361.218 53.8419 361.005 53.8395C360.796 53.8422 360.589 53.8006 360.398 53.7175C360.211 53.6399 360.042 53.5257 359.9 53.3816C359.762 53.2379 359.653 53.0689 359.579 52.8839C359.501 52.6928 359.461 52.4881 359.462 52.2816C359.461 52.0736 359.501 51.8674 359.579 51.6744C359.652 51.4902 359.759 51.3214 359.895 51.1767C360.032 51.0335 360.196 50.9185 360.378 50.8383C360.571 50.7519 360.781 50.7086 360.992 50.7113C361.208 50.7091 361.422 50.7497 361.622 50.8308C361.807 50.9073 361.976 51.0179 362.12 51.1568C362.262 51.2987 362.375 51.468 362.451 51.6545C362.532 51.8544 362.573 52.0684 362.57 52.2841C362.578 52.4954 362.544 52.7063 362.468 52.9038H362.458Z" fill="white"/>
<path d="M279.519 53.6424C279.826 53.723 280.141 53.7631 280.458 53.7619H284.365V49.7229H283.77V53.1671H281.398V49.7229H280.45C280.107 49.7183 279.764 49.7696 279.437 49.8747C279.154 49.9659 278.891 50.1094 278.661 50.2978C278.451 50.4746 278.281 50.6944 278.163 50.9423C278.046 51.1939 277.986 51.4686 277.989 51.7461C277.981 52.0609 278.05 52.3728 278.191 52.6545C278.319 52.9005 278.502 53.1141 278.726 53.2791C278.964 53.4504 279.234 53.5738 279.519 53.6424ZM278.594 51.7412C278.592 51.5378 278.639 51.337 278.733 51.1563C278.824 50.9825 278.948 50.8285 279.099 50.7034C279.252 50.5754 279.428 50.4768 279.616 50.4123C279.809 50.3458 280.01 50.3122 280.214 50.3127H280.801V53.1621H280.214C279.999 53.1637 279.786 53.1309 279.582 53.0651C279.395 53.0056 279.221 52.911 279.069 52.7864C278.922 52.6646 278.803 52.5127 278.721 52.3409C278.634 52.1531 278.59 51.9481 278.594 51.7412Z" fill="white"/>
<path d="M321.87 54.4688H321.258V55.0809H321.87V54.4688Z" fill="white"/>
<path d="M320.827 54.4688H320.215V55.0809H320.827V54.4688Z" fill="white"/>
<path d="M326.365 54.5188C326.405 54.3114 326.424 54.1005 326.422 53.8892V53.7623H334.094V48.4219H333.497V53.1676H330.969L332.014 50.679C331.856 50.5389 331.69 50.4085 331.516 50.2883C331.34 50.1689 331.155 50.0624 330.964 49.9698C330.78 49.8799 330.589 49.8074 330.392 49.7533C330.204 49.7023 330.011 49.6764 329.817 49.6761C329.618 49.6747 329.419 49.6998 329.227 49.7508C329.029 49.8043 328.835 49.8751 328.65 49.9623C328.456 50.0528 328.271 50.1603 328.097 50.2833C327.923 50.4041 327.757 50.5355 327.599 50.6765L328.65 53.1651H326.43V49.7234H325.832V53.8892C325.834 54.0323 325.826 54.1754 325.808 54.3173C325.795 54.4164 325.764 54.5124 325.718 54.601C325.678 54.6696 325.617 54.7237 325.544 54.7553C325.455 54.7914 325.36 54.8083 325.265 54.805C325.161 54.8077 325.058 54.7926 324.959 54.7602L324.805 55.3326C324.962 55.3767 325.124 55.3993 325.287 55.3998C325.474 55.4051 325.659 55.3695 325.83 55.2953C325.973 55.2282 326.095 55.1242 326.183 54.9942C326.275 54.8495 326.337 54.6879 326.365 54.5188ZM328.338 50.8831C328.546 50.7006 328.784 50.5572 329.043 50.46C329.545 50.2726 330.1 50.2815 330.596 50.4849C330.84 50.5799 331.067 50.7144 331.267 50.8831L330.337 53.1676H329.269L328.338 50.8831Z" fill="white"/>
<path d="M280.35 48.418H279.738V49.0302H280.35V48.418Z" fill="white"/>
<path d="M282.279 57.6719H281.361L279.335 59.8096V57.6719H278.586V61.9223H279.335V60.6905L279.997 60.0111L281.453 61.9223H282.359L280.51 59.501L282.279 57.6719Z" fill="white"/>
<path d="M283.788 57.6719H283.039V61.9248H283.788V57.6719Z" fill="white"/>
<path d="M287.919 60.6109L285.637 57.6719H284.945V61.9223H285.682V58.8987L288.031 61.9223H288.656V57.6719H287.919V60.6109Z" fill="white"/>
<path d="M291.756 60.2051H292.846V60.999C292.545 61.2132 292.185 61.3265 291.816 61.3225C290.945 61.3225 290.367 60.678 290.367 59.8045V59.792C290.353 59.4111 290.491 59.04 290.749 58.7602C291.008 58.4803 291.368 58.3144 291.748 58.2989C292.191 58.2868 292.621 58.4505 292.943 58.7543L293.416 58.1894C292.966 57.7903 292.379 57.5831 291.778 57.612C291.489 57.6084 291.201 57.6628 290.933 57.7721C290.665 57.8814 290.421 58.0434 290.216 58.2485C290.012 58.4535 289.85 58.6976 289.742 58.9661C289.633 59.2347 289.579 59.5223 289.583 59.8119C289.573 60.1038 289.623 60.3946 289.73 60.6661C289.838 60.9376 290 61.184 290.208 61.3895C290.415 61.595 290.663 61.7554 290.935 61.8603C291.208 61.9653 291.499 62.0126 291.791 61.9994C292.444 61.9994 293.076 61.7644 293.57 61.3374V59.5531H291.756V60.2051Z" fill="white"/>
<path d="M296.189 57.6719H294.602V61.9248H296.189C297.528 61.9248 298.454 60.9941 298.454 59.7971C298.454 58.5902 297.528 57.6719 296.189 57.6719ZM297.67 59.8095C297.677 60.0038 297.643 60.1973 297.571 60.3776C297.498 60.5579 297.388 60.7209 297.249 60.856C297.109 60.9912 296.943 61.0955 296.76 61.1622C296.578 61.2288 296.383 61.2563 296.189 61.243H295.351V58.3537H296.189C296.384 58.3418 296.578 58.3707 296.761 58.4385C296.943 58.5063 297.11 58.6116 297.249 58.7475C297.389 58.8834 297.498 59.047 297.571 59.2278C297.643 59.4086 297.677 59.6025 297.67 59.7971V59.8095Z" fill="white"/>
<path d="M301.388 57.6023C301.095 57.5946 300.804 57.646 300.531 57.7533C300.259 57.8606 300.011 58.0217 299.802 58.227C299.593 58.4323 299.427 58.6776 299.315 58.9482C299.203 59.2188 299.146 59.5093 299.149 59.8022C299.207 60.3523 299.467 60.8614 299.878 61.2314C300.289 61.6014 300.823 61.8062 301.376 61.8062C301.929 61.8062 302.463 61.6014 302.874 61.2314C303.285 60.8614 303.545 60.3523 303.603 59.8022V59.7898C303.607 59.4991 303.552 59.2107 303.442 58.9418C303.331 58.6729 303.168 58.4291 302.961 58.2248C302.754 58.0206 302.508 57.8602 302.238 57.7532C301.968 57.6463 301.679 57.5949 301.388 57.6023ZM302.824 59.8122C302.831 60.0054 302.8 60.1981 302.731 60.3789C302.662 60.5596 302.558 60.7246 302.424 60.8639C302.29 61.0033 302.129 61.1142 301.951 61.1901C301.773 61.2659 301.582 61.3051 301.388 61.3053C301.193 61.3044 301 61.2643 300.82 61.1873C300.641 61.1103 300.479 60.998 300.344 60.857C300.209 60.7161 300.103 60.5494 300.034 60.3669C299.965 60.1844 299.933 59.9898 299.94 59.7947V59.7823C299.933 59.5891 299.964 59.3963 300.033 59.2156C300.102 59.0349 300.206 58.8699 300.34 58.7305C300.474 58.5911 300.635 58.4802 300.813 58.4044C300.991 58.3285 301.182 58.2894 301.376 58.2892C301.571 58.2904 301.764 58.3308 301.944 58.4081C302.123 58.4854 302.285 58.5979 302.42 58.739C302.555 58.8802 302.661 59.047 302.73 59.2296C302.799 59.4123 302.831 59.607 302.824 59.8022V59.8122Z" fill="white"/>
<path d="M306.636 59.6826L305.339 57.6719H304.543V61.9223H305.277V58.8863L306.611 60.8796H306.636L307.98 58.8739V61.9223H308.729V57.6719H307.932L306.636 59.6826Z" fill="white"/>
<path d="M313.697 57.6024C313.404 57.5943 313.112 57.6455 312.84 57.7527C312.567 57.8599 312.318 58.0209 312.109 58.2263C311.9 58.4317 311.735 58.6771 311.623 58.9478C311.511 59.2186 311.454 59.5092 311.457 59.8023C311.515 60.3524 311.775 60.8615 312.186 61.2315C312.598 61.6015 313.131 61.8062 313.684 61.8062C314.238 61.8062 314.771 61.6015 315.182 61.2315C315.594 60.8615 315.853 60.3524 315.912 59.8023V59.7898C315.915 59.4992 315.861 59.2108 315.75 58.9419C315.64 58.673 315.476 58.4291 315.27 58.2249C315.063 58.0206 314.817 57.8602 314.547 57.7533C314.276 57.6463 313.987 57.595 313.697 57.6024ZM315.133 59.8122C315.14 60.0055 315.108 60.1982 315.04 60.3789C314.971 60.5596 314.866 60.7246 314.732 60.864C314.598 61.0034 314.437 61.1143 314.259 61.1901C314.082 61.266 313.89 61.3052 313.697 61.3054C313.502 61.3045 313.309 61.2644 313.129 61.1874C312.95 61.1104 312.788 60.998 312.652 60.8571C312.517 60.7162 312.412 60.5495 312.343 60.367C312.273 60.1845 312.241 59.9899 312.248 59.7948V59.7824C312.241 59.5891 312.273 59.3964 312.342 59.2157C312.41 59.035 312.515 58.87 312.649 58.7306C312.783 58.5912 312.944 58.4803 313.122 58.4044C313.3 58.3286 313.491 58.2894 313.684 58.2892C313.88 58.2904 314.073 58.3309 314.252 58.4081C314.432 58.4854 314.594 58.598 314.729 58.7391C314.864 58.8802 314.969 59.0471 315.039 59.2297C315.108 59.4123 315.14 59.607 315.133 59.8023V59.8122Z" fill="white"/>
<path d="M316.848 61.9223H317.597V60.1928H319.744V59.5109H317.597V58.3513H320.018V57.6719H316.848V61.9223Z" fill="white"/>
<path d="M324.311 59.459C323.495 59.2649 323.301 59.1181 323.301 58.7896C323.301 58.5084 323.55 58.2919 323.995 58.2919C324.418 58.3076 324.824 58.4614 325.15 58.7299L325.553 58.165C325.118 57.8027 324.567 57.6085 324 57.6175C323.154 57.6175 322.545 58.1152 322.545 58.8493V58.8618C322.545 59.6457 323.055 59.9144 323.963 60.1309C324.754 60.3151 324.924 60.4768 324.924 60.7829C324.924 61.1065 324.632 61.318 324.177 61.318C323.674 61.3133 323.192 61.1155 322.831 60.7655L322.383 61.3006C322.869 61.7414 323.503 61.9838 324.16 61.9799C325.053 61.9799 325.68 61.5071 325.68 60.7108V60.7033C325.68 60.004 325.212 59.683 324.311 59.459Z" fill="white"/>
<path d="M327.983 57.6445L326.109 61.9273H326.876L327.314 60.8996H329.33L329.76 61.9273H330.551L328.678 57.6445H327.983ZM327.588 60.2376L328.319 58.5379L329.066 60.2376H327.588Z" fill="white"/>
<path d="M333.879 60.1206C333.879 60.9045 333.47 61.3052 332.808 61.3052C332.147 61.3052 331.731 60.8796 331.731 60.0908V57.6719H330.984V60.1206C330.984 61.3525 331.691 61.992 332.799 61.992C333.906 61.992 334.63 61.3525 334.63 60.0833V57.6719H333.884L333.879 60.1206Z" fill="white"/>
<path d="M337.317 57.6719H335.727V61.9248H337.317C338.656 61.9248 339.581 60.9941 339.581 59.7971C339.581 58.5902 338.656 57.6719 337.317 57.6719ZM338.795 59.8095C338.802 60.0035 338.768 60.1968 338.696 60.3769C338.623 60.557 338.514 60.7199 338.375 60.8551C338.235 60.9902 338.069 61.0945 337.887 61.1614C337.705 61.2282 337.51 61.256 337.317 61.243H336.476V58.3537H337.317C337.511 58.3422 337.705 58.3713 337.888 58.4393C338.07 58.5073 338.236 58.6126 338.375 58.7485C338.514 58.8844 338.624 59.0479 338.696 59.2284C338.768 59.409 338.802 59.6027 338.795 59.7971V59.8095Z" fill="white"/>
<path d="M341.276 57.6719H340.527V61.9248H341.276V57.6719Z" fill="white"/>
<path d="M345.749 57.6445L343.875 61.9273H344.641L345.079 60.8996H347.095L347.526 61.9273H348.317L346.443 57.6445H345.749ZM345.353 60.2376L346.085 58.5379L346.831 60.2376H345.353Z" fill="white"/>
<path d="M352.509 59.0306V59.0182C352.517 58.6774 352.39 58.3474 352.155 58.0999C351.817 57.803 351.376 57.6503 350.926 57.6743H349.027V61.9273H349.774V60.4342H350.71L351.757 61.9273H352.638L351.489 60.3172C351.783 60.257 352.046 60.095 352.233 59.8597C352.42 59.6244 352.517 59.3308 352.509 59.0306ZM349.771 59.7772V58.3512H350.859C351.414 58.3512 351.742 58.6001 351.742 59.0555C351.742 59.486 351.401 59.7647 350.866 59.7647L349.771 59.7772Z" fill="white"/>
<path d="M355.065 57.6445L353.191 61.9273H353.958L354.396 60.8996H356.412L356.842 61.9273H357.633L355.76 57.6445H355.065ZM354.67 60.2376L355.401 58.5379L356.148 60.2376H354.67Z" fill="white"/>
<path d="M361.044 59.708C361.228 59.6289 361.384 59.4966 361.493 59.3282C361.602 59.1597 361.657 58.9627 361.654 58.7624V58.7499C361.657 58.6191 361.634 58.489 361.584 58.3677C361.535 58.2465 361.461 58.1368 361.367 58.0456C361.215 57.9125 361.039 57.8105 360.848 57.7456C360.656 57.6807 360.454 57.6541 360.252 57.6674H358.344V61.9203H360.317C361.265 61.9203 361.892 61.5122 361.892 60.7532V60.7408C361.89 60.1758 361.544 59.8897 361.044 59.708ZM359.09 58.3393H360.168C360.648 58.3393 360.914 58.5458 360.914 58.8793V58.8918C360.914 59.2825 360.591 59.4691 360.111 59.4691H359.09V58.3393ZM361.153 60.686C361.153 61.0668 360.845 61.2683 360.332 61.2683H359.088V60.1012H360.275C360.865 60.1012 361.151 60.3152 361.151 60.6736L361.153 60.686Z" fill="white"/>
<path d="M363.565 57.6719H362.816V61.9248H363.565V57.6719Z" fill="white"/>
<path d="M366.849 57.6445H366.155L364.281 61.9273H365.048L365.486 60.8996H367.501L367.932 61.9273H368.723L366.849 57.6445ZM365.759 60.2376L366.491 58.5379L367.238 60.2376H365.759Z" fill="white"/>
</g>
<defs>
<clipPath id="clip0_477_8884">
<rect width="218" height="62" fill="white"/>
</clipPath>
<clipPath id="clip1_477_8884">
<rect width="92.6765" height="62" fill="white" transform="translate(278)"/>
</clipPath>
</defs>
</svg>
