<svg width="299" height="54" viewBox="0 0 299 54" fill="none" xmlns="http://www.w3.org/2000/svg">
<mask id="mask0_15950_40841" style="mask-type:luminance" maskUnits="userSpaceOnUse" x="9" y="2" width="172" height="50">
<path d="M180.593 2.61328H9.21094V51.3875H180.593V2.61328Z" fill="white"/>
</mask>
<g mask="url(#mask0_15950_40841)">
<path d="M71.345 25.8347V16.7979H68.8279V25.9679C68.8279 28.0275 68.0661 28.6375 66.7882 28.6375C66.1778 28.6375 65.6822 28.5413 65.244 28.4082L65.0352 30.4106C65.5125 30.5252 66.0471 30.601 66.6367 30.601C70.5235 30.601 71.345 28.2752 71.345 25.8347Z" fill="#005465"/>
<path d="M92.8925 15.3477C93.5992 15.3477 94.152 14.7559 94.152 14.0518C94.152 13.327 93.5992 12.7559 92.8925 12.7559C92.1858 12.7559 91.6328 13.3476 91.6328 14.0518C91.6328 14.7766 92.1881 15.3477 92.8925 15.3477Z" fill="#005465"/>
<path d="M94.4563 12.641C95.1241 12.641 95.6379 12.1066 95.6379 11.4392C95.6379 10.7717 95.1241 10.2373 94.4563 10.2373C93.807 10.2373 93.293 10.7717 93.293 11.4392C93.293 12.1066 93.807 12.641 94.4563 12.641Z" fill="#005465"/>
<path d="M94.7812 14.0518C94.7812 14.7766 95.3342 15.3477 96.0592 15.3477C96.7659 15.3477 97.3188 14.7559 97.3188 14.0518C97.3188 13.327 96.7659 12.7559 96.0592 12.7559C95.3342 12.7559 94.7812 13.3453 94.7812 14.0518Z" fill="#005465"/>
<path d="M99.664 15.3477C100.389 15.3477 100.942 14.7559 100.942 14.0518C100.942 13.327 100.389 12.7559 99.664 12.7559C98.9573 12.7559 98.4043 13.3476 98.4043 14.0518C98.4043 14.7766 98.9573 15.3477 99.664 15.3477Z" fill="#005465"/>
<path d="M102.83 15.3477C103.537 15.3477 104.09 14.7559 104.09 14.0518C104.09 13.327 103.537 12.7559 102.83 12.7559C102.123 12.7559 101.57 13.3476 101.57 14.0518C101.57 14.7766 102.123 15.3477 102.83 15.3477Z" fill="#005465"/>
<path d="M119.801 21.3153C119.801 19.4277 119.553 17.5583 119.19 16.0331L116.731 16.3771C117.054 17.8267 117.284 19.5813 117.284 21.4873C117.284 22.0791 117.226 23.0126 117.151 23.7741H116.483C114.804 23.7741 114.386 23.2397 114.386 21.6571V17.1776H111.981V21.7351C111.981 23.1066 111.676 23.9278 110.57 23.9278C109.446 23.9278 109.12 23.1456 109.12 21.7167V17.9414H106.603V21.3933C106.603 23.281 106.126 23.7764 104.887 23.7764H104.563H104.276H102.865V16.7969H100.348V23.7741H97.9645H97.6776H96.0945V16.7969H93.5774V23.7741H91.2142H90.9067H89.5919V21.0883C89.5919 18.3038 88.2566 16.5514 85.1866 16.5514C81.9812 16.5514 80.3223 18.7625 80.3223 21.4896C80.3223 23.2236 79.8082 23.7764 78.8906 23.7764H78.7966H78.5096H76.8898V12.3174H74.375V25.7581H78.5119H78.7988H78.8011C79.9437 25.7581 80.8408 25.281 81.318 24.2902C81.8894 25.2237 82.9976 25.7581 85.2462 25.7581H90.909H91.2165H97.6798H97.9668H104.279H104.566H104.869C106.279 25.7581 107.062 25.2627 107.406 24.3475C107.73 25.3384 108.721 25.9301 110.114 25.9301C111.316 25.9301 112.422 25.4165 112.878 24.3475C113.298 25.3774 114.31 25.7581 115.969 25.7581H119.516C119.686 24.4049 119.801 22.7076 119.801 21.3153ZM87.1345 23.7764H85.494C83.5299 23.7764 82.805 22.9369 82.805 21.2603C82.805 19.6387 83.624 18.5331 85.0167 18.5331C86.4096 18.5331 87.1345 19.3726 87.1345 21.375V23.7764Z" fill="#005465"/>
<path d="M130.9 12.3174H128.383V23.7764H122.488V25.7581H130.9V12.3174Z" fill="#005465"/>
<path d="M126.989 22.3457L124.204 12.1826L121.705 12.5267L124.433 22.3457H126.989Z" fill="#005465"/>
<path d="M136.638 12.3174H134.121V25.7581H136.638V12.3174Z" fill="#005465"/>
<path d="M152.923 25.7578V20.9342C152.923 18.2645 151.588 16.5488 148.612 16.5488C145.294 16.5488 143.633 18.7599 143.633 21.354C143.633 24.0421 145.026 25.7578 148.745 25.7578H152.923ZM146.152 21.1063C146.152 19.62 146.992 18.5328 148.421 18.5328C149.699 18.5328 150.461 19.3333 150.461 21.2393V23.7761H149.011C147.031 23.7761 146.152 22.8976 146.152 21.1063Z" fill="#005465"/>
<path d="M150.025 15.3477C150.732 15.3477 151.285 14.7559 151.285 14.0518C151.285 13.327 150.732 12.7559 150.025 12.7559C149.319 12.7559 148.766 13.3476 148.766 14.0518C148.766 14.7766 149.319 15.3477 150.025 15.3477Z" fill="#005465"/>
<path d="M146.859 15.3477C147.584 15.3477 148.137 14.7559 148.137 14.0518C148.137 13.327 147.584 12.7559 146.859 12.7559C146.153 12.7559 145.6 13.3476 145.6 14.0518C145.6 14.7766 146.153 15.3477 146.859 15.3477Z" fill="#005465"/>
<path d="M158.246 25.8347V16.7979H155.729V25.9679C155.729 28.0275 154.967 28.6375 153.689 28.6375C153.078 28.6375 152.583 28.5413 152.145 28.4082L151.934 30.4106C152.411 30.5252 152.945 30.601 153.535 30.601C157.424 30.601 158.246 28.2752 158.246 25.8347Z" fill="#005465"/>
<path d="M163.794 12.3174H161.277V25.7581H163.794V12.3174Z" fill="#005465"/>
<path d="M163.105 30.4106C163.583 30.5252 164.117 30.601 164.707 30.601C168.599 30.601 169.418 28.2752 169.418 25.8347V16.7979H166.9V25.9679C166.9 28.0275 166.139 28.6375 164.861 28.6375C164.251 28.6375 163.755 28.5413 163.317 28.4082L163.105 30.4106Z" fill="#005465"/>
<path d="M168.163 15.1962C168.888 15.1962 169.48 14.6045 169.48 13.882C169.48 13.1572 168.888 12.5654 168.163 12.5654C167.438 12.5654 166.846 13.1572 166.846 13.882C166.846 14.6228 167.438 15.1962 168.163 15.1962Z" fill="#005465"/>
<path d="M176.607 16.5488C173.099 16.5488 171.553 18.8356 171.553 21.3333C171.553 24.0398 172.945 25.7578 176.665 25.7578H178.152V26.0446C178.152 27.8358 176.835 28.5813 174.852 28.5813C173.365 28.5813 171.876 28.2578 171.876 28.2578L171.722 30.3176C171.722 30.3176 173.191 30.5651 174.623 30.5651C178.895 30.5651 180.593 28.4299 180.593 25.7991V17.2163C180.595 17.2163 178.858 16.5488 176.607 16.5488ZM178.154 23.7761H176.933C174.93 23.7761 174.072 22.8426 174.072 21.1063C174.072 19.62 174.912 18.5328 176.341 18.5328C177.429 18.5328 178.154 18.8769 178.154 18.8769V23.7761Z" fill="#005465"/>
<path d="M71.7513 32.9905L70.3976 37.064C70.2003 37.6468 70.0696 38.0916 69.9548 38.6971H69.9318C69.8264 38.1375 69.6863 37.6007 69.5004 37.0411L68.1788 32.9905H66.4053L65.1914 40.867H66.7333L67.1763 37.2384C67.2703 36.5504 67.3505 35.9311 67.3988 35.2314H67.4218C67.5158 35.8623 67.7131 36.5733 67.9242 37.2155L69.1265 40.867H70.6317L71.8798 36.9104C72.0772 36.2911 72.2057 35.7314 72.3111 35.2292H72.3341C72.3915 35.7773 72.4626 36.3601 72.5796 37.1078L73.1395 40.8647H74.7387L73.5134 32.9883H71.7513V32.9905Z" fill="#005465"/>
<path d="M76.6548 32.5137C76.1408 32.5137 75.7324 32.9218 75.7324 33.4127C75.7324 33.915 76.1408 34.3233 76.6548 34.3233C77.1686 34.3233 77.5886 33.915 77.5886 33.4127C77.5886 32.9104 77.1686 32.5137 76.6548 32.5137Z" fill="#005465"/>
<path d="M77.3979 35.0684H75.9043V40.8689H77.3979V35.0684Z" fill="#005465"/>
<path d="M82.3273 34.9395C81.3819 34.9395 80.705 35.4188 80.3541 36.1069L80.3425 36.0955C80.3999 35.7927 80.4251 35.3362 80.4251 35.0679H79.0117V40.8686H80.5055V38.068C80.5055 37.0519 81.102 36.1894 81.8593 36.1894C82.4075 36.1894 82.5706 36.5519 82.5706 37.1574V40.8686H84.0528V36.7949C84.055 35.7788 83.6351 34.9395 82.3273 34.9395Z" fill="#005465"/>
<path d="M87.1674 35.0684H85.6738V40.8689H87.1674V35.0684Z" fill="#005465"/>
<path d="M86.4202 32.5137C85.9064 32.5137 85.498 32.9218 85.498 33.4127C85.498 33.915 85.9064 34.3233 86.4202 34.3233C86.9342 34.3233 87.3542 33.915 87.3542 33.4127C87.3542 32.9104 86.9342 32.5137 86.4202 32.5137Z" fill="#005465"/>
<path d="M89.9934 36.6665C89.9934 36.3042 90.2733 36.0726 90.8561 36.0726C91.2187 36.0726 91.604 36.1298 91.9299 36.2239L91.9757 35.0449C91.627 34.9875 91.2531 34.9395 90.9135 34.9395C89.2798 34.9395 88.4492 35.7788 88.4492 36.7949C88.4492 38.7674 90.7964 38.1826 90.7964 39.2103C90.7964 39.5955 90.4225 39.8296 89.8513 39.8296C89.4083 39.8296 88.9632 39.747 88.6029 39.6551L88.5686 40.8799C88.9425 40.9373 89.3625 40.9854 89.7822 40.9854C91.3701 40.9854 92.3727 40.2148 92.3727 39.0726C92.375 37.1919 89.9934 37.6116 89.9934 36.6665Z" fill="#005465"/>
<path d="M95.3992 32.8867L93.9056 33.2835V35.0679H92.9121V36.224H93.9169V39.1645C93.9169 40.5177 94.3139 40.9855 95.5989 40.9855C96.0072 40.9855 96.4386 40.9283 96.8126 40.8342V39.6323C96.6014 39.6897 96.3332 39.7265 96.0899 39.7265C95.5759 39.7265 95.4014 39.5155 95.4014 38.77V36.2263H96.8149V35.0702H95.4014V32.8867H95.3992Z" fill="#005465"/>
<path d="M99.3522 36.2365H99.3292C99.4005 35.8281 99.4349 35.3603 99.4349 35.069H98.0215V40.8695H99.5151V38.5003C99.5151 36.89 100.052 36.1906 101.126 36.4107L101.197 34.9404C100.194 34.8601 99.6321 35.5001 99.3522 36.2365Z" fill="#005465"/>
<path d="M104.899 37.0409C104.711 37.589 104.468 38.3598 104.339 38.885H104.328C104.199 38.3598 104.048 37.7886 103.871 37.2863L103.089 35.0684H101.432L103.568 40.8689L103.371 41.4285C103.068 42.291 102.74 42.5136 102.251 42.5136C101.971 42.5136 101.726 42.4677 101.457 42.3852L101.363 43.6694C101.609 43.7268 101.923 43.7636 102.18 43.7636C103.511 43.7636 104.119 43.2155 104.807 41.4056L107.187 35.0684H105.587L104.899 37.0409Z" fill="#005465"/>
<path d="M113.113 34.9521C111.351 34.9521 110.148 36.2595 110.148 38.0669C110.148 40.1336 111.211 40.9845 112.856 40.9845C114.595 40.9845 115.82 39.6771 115.82 37.8582C115.823 35.8628 114.76 34.9521 113.113 34.9521ZM112.987 39.7136C112.122 39.7136 111.69 39.1059 111.69 37.9156C111.69 36.725 112.344 36.2114 113.01 36.2114C113.886 36.2114 114.281 36.8192 114.281 37.9385C114.281 39.1175 113.721 39.7136 112.987 39.7136Z" fill="#005465"/>
<path d="M117.329 34.6003V35.0658H116.312V36.2219H117.329V40.8665H118.811V36.2219H120.165V35.0658H118.811V34.5751C118.811 33.8042 119.102 33.4671 119.756 33.4671C119.979 33.4671 120.247 33.49 120.479 33.5726L120.585 32.3478C120.282 32.2768 119.954 32.2539 119.639 32.2539C118.052 32.2562 117.329 33.0268 117.329 34.6003Z" fill="#005465"/>
<path d="M125.228 32.9893H123.711V40.8655H125.228V32.9893Z" fill="#005465"/>
<path d="M130.164 34.9395C129.218 34.9395 128.541 35.4188 128.19 36.1069L128.179 36.0955C128.236 35.7927 128.259 35.3362 128.259 35.0679H126.846V40.8686H128.34V38.068C128.34 37.0519 128.934 36.1894 129.693 36.1894C130.241 36.1894 130.405 36.552 130.405 37.1574V40.8686H131.887V36.7949C131.891 35.779 131.471 34.9395 130.164 34.9395Z" fill="#005465"/>
<path d="M136.058 37.7285C135.918 38.1253 135.801 38.5679 135.707 38.9646H135.684C135.578 38.545 135.438 38.077 135.298 37.6802L134.376 35.0654H132.742L134.89 40.8662H136.406L138.577 35.0654H136.989L136.058 37.7285Z" fill="#005465"/>
<path d="M141.729 34.9395C139.99 34.9395 139.01 36.2468 139.01 38.0197C139.01 40.0612 140.038 40.9831 141.882 40.9831C142.605 40.9831 143.342 40.8547 143.961 40.6093L143.821 39.4535C143.319 39.6873 142.702 39.8157 142.128 39.8157C141.054 39.8157 140.517 39.2906 140.529 38.2055H144.124C144.159 37.9603 144.17 37.7262 144.17 37.529C144.17 36.0955 143.422 34.9395 141.729 34.9395ZM140.549 37.1919C140.632 36.4923 141.063 36.0359 141.683 36.0359C142.314 36.0359 142.711 36.4671 142.685 37.1919H140.549Z" fill="#005465"/>
<path d="M146.632 36.6665C146.632 36.3042 146.912 36.0726 147.497 36.0726C147.859 36.0726 148.245 36.1298 148.571 36.2239L148.617 35.0449C148.265 34.9875 147.894 34.9395 147.554 34.9395C145.92 34.9395 145.09 35.7788 145.09 36.7949C145.09 38.7674 147.437 38.1826 147.437 39.2103C147.437 39.5955 147.063 39.8296 146.492 39.8296C146.049 39.8296 145.604 39.747 145.244 39.6551L145.209 40.8799C145.583 40.9373 146.003 40.9854 146.423 40.9854C148.011 40.9854 149.014 40.2148 149.014 39.0726C149.011 37.1919 146.632 37.6116 146.632 36.6665Z" fill="#005465"/>
<path d="M152.036 32.8867L150.542 33.2835V35.0679H149.551V36.224H150.553V39.1645C150.553 40.5177 150.95 40.9855 152.235 40.9855C152.644 40.9855 153.075 40.9283 153.449 40.8342V39.6323C153.238 39.6897 152.97 39.7265 152.724 39.7265C152.21 39.7265 152.036 39.5155 152.036 38.77V36.2263H153.449V35.0702H152.036V32.8867Z" fill="#005465"/>
<path d="M161.42 34.9395C160.44 34.9395 159.798 35.5359 159.529 36.1069C159.389 35.5472 158.958 34.9395 157.93 34.9395C157.067 34.9395 156.365 35.3959 156.016 36.1069H155.993C156.051 35.7675 156.074 35.3362 156.074 35.0679H154.66V40.8686H156.154V38.0909C156.154 37.0061 156.796 36.1894 157.484 36.1894C158.056 36.1894 158.173 36.6207 158.173 37.1919V40.8686H159.644V38.0909C159.644 36.9601 160.321 36.1894 160.975 36.1894C161.523 36.1894 161.663 36.5749 161.663 37.1919V40.8686H163.157V36.8775C163.159 35.5588 162.539 34.9395 161.42 34.9395Z" fill="#005465"/>
<path d="M167.078 34.9395C165.339 34.9395 164.359 36.2468 164.359 38.0197C164.359 40.0612 165.387 40.9831 167.232 40.9831C167.955 40.9831 168.691 40.8547 169.308 40.6093L169.169 39.4534C168.666 39.6873 168.049 39.8157 167.475 39.8157C166.401 39.8157 165.865 39.2906 165.876 38.2055H169.471C169.506 37.9603 169.517 37.7262 169.517 37.529C169.52 36.0955 168.772 34.9395 167.078 34.9395ZM165.901 37.1919C165.984 36.4923 166.415 36.0358 167.035 36.0358C167.666 36.0358 168.063 36.4671 168.037 37.1919H165.901Z" fill="#005465"/>
<path d="M174.08 34.9395C173.134 34.9395 172.457 35.4188 172.106 36.1069L172.095 36.0955C172.152 35.7927 172.175 35.3362 172.175 35.0679H170.762V40.8686H172.255V38.068C172.255 37.0519 172.85 36.1894 173.609 36.1894C174.157 36.1894 174.32 36.5519 174.32 37.1574V40.8686H175.803V36.7949C175.807 35.7788 175.387 34.9395 174.08 34.9395Z" fill="#005465"/>
<path d="M179.18 32.8867L177.686 33.2835V35.0679H176.695V36.224H177.698V39.1643C177.698 40.5175 178.095 40.9855 179.38 40.9855C179.788 40.9855 180.22 40.9281 180.594 40.8342V39.6323C180.382 39.6897 180.114 39.7262 179.869 39.7262C179.355 39.7262 179.18 39.5152 179.18 38.7698V36.2263H180.594V35.0702H179.18V32.8867Z" fill="#005465"/>
<path d="M26.9979 15.0606C23.0996 16.501 23.7191 20.1662 23.7191 20.1662C23.8935 19.6272 25.1027 17.2074 27.4132 16.6386C24.8296 19.2809 25.5616 22.586 25.5616 22.586C25.6488 22.164 26.3853 18.7923 28.9482 18.0836C27.3559 20.1754 27.9983 22.8819 28.1612 23.4668C28.1612 22.4232 29.2167 20.6043 29.8637 19.7763C30.5176 21.1295 30.4258 23.7282 30.4258 23.7282H29.9417L30.4144 26.8017H30.0312L30.396 29.8752H30.0794L30.4786 33.8064L29.095 34.5589V34.7424H32.9772V34.5589L31.5937 33.8064L31.9931 29.8752H31.6763L32.0411 26.8017H31.6603L32.1306 23.7282H31.6465C31.6465 23.7282 31.5524 21.1273 32.2087 19.7763C32.8558 20.6043 33.9112 22.4232 33.9112 23.4668C34.074 22.8819 34.7165 20.1754 33.1218 18.0836C35.687 18.7923 36.4235 22.164 36.5085 22.586C36.5085 22.586 37.2404 19.2809 34.6546 16.6386C36.9674 17.2074 38.1765 19.6272 38.3487 20.1662C38.3487 20.1662 38.9659 16.501 35.0698 15.0606C35.1501 15.0606 35.3198 15.0124 35.5975 15.0124C36.4465 15.0124 37.7221 15.3725 38.6101 15.79C38.6101 15.79 37.7497 13.5949 34.3999 13.5949C34.2667 13.5949 34.159 13.6018 34.159 13.6018C34.159 13.6018 34.2738 12.7669 35.7972 12.7669C36.3019 12.7669 36.7196 12.8495 36.7196 12.8495C36.7196 12.8495 35.8407 12.0353 34.5307 12.0353C33.007 12.0353 32.0229 13.2532 31.8553 13.4206C31.1922 12.939 32.0022 12.1431 32.3418 11.9229C32.3418 11.9229 32.2156 11.8426 32.0136 11.8426C31.7658 11.8426 31.541 11.994 31.4629 12.0834C31.4629 12.0834 31.3872 11.4366 31.9701 11.1729C31.5662 11.1729 31.0293 11.5651 31.0293 11.6958C31.0293 11.5651 30.4947 11.1729 30.0908 11.1729C30.6736 11.4366 30.5979 12.0834 30.5979 12.0834C30.5199 11.994 30.2951 11.8426 30.0473 11.8426C29.8454 11.8426 29.7192 11.9229 29.7192 11.9229C30.0564 12.1431 30.8664 12.939 30.2056 13.4206C30.0381 13.2532 29.0515 12.0353 27.5279 12.0353C26.2178 12.0353 25.339 12.8495 25.339 12.8495C25.339 12.8495 25.7566 12.7669 26.2614 12.7669C27.7826 12.7669 27.8996 13.6018 27.8996 13.6018C27.8996 13.6018 27.7918 13.5949 27.6587 13.5949C24.3088 13.5949 23.4484 15.79 23.4484 15.79C24.3363 15.3725 25.6121 15.0124 26.461 15.0124C26.7478 15.0124 26.9176 15.0606 26.9979 15.0606ZM42.4052 32.2125C37.9654 32.2125 31.0476 36.7721 31.0476 36.7721L31.0362 36.7791L31.0247 36.7721C31.0247 36.7721 24.1069 32.2125 19.6671 32.2125C17.2671 32.2125 16.0556 33.038 15.6816 33.3844C16.2874 33.0244 17.9899 33.0473 17.9899 33.0473C19.5271 33.0473 21.7046 33.607 23.2855 34.3615C26.7891 36.0314 29.5356 37.6872 29.5356 37.6872L29.57 37.7079L26.1421 39.88C26.1421 39.88 24.9788 38.4901 23.9532 38.4901C23.2901 38.4901 23.1707 38.8778 23.1707 39.052C23.1707 39.2239 23.2763 39.5842 23.7145 39.5842C24.1505 39.5842 24.1711 39.2813 24.1711 39.1804C24.2285 39.2033 24.2721 39.1942 24.3295 39.2768C24.3868 39.3594 25.0614 40.4236 25.0614 40.4236C25.0614 40.4236 22.8862 41.6277 22.7325 41.6277C22.6201 41.6277 22.4067 41.3641 22.1956 41.3641C21.9845 41.3641 21.9891 41.5567 21.9891 41.5887C21.9891 41.7057 22.5214 42.6118 23.2763 42.6118C23.3933 42.6118 23.7857 42.6325 23.9922 42.5544C24.8251 42.2357 25.7543 41.7768 25.9608 41.6622C25.9608 41.6622 26.7111 42.598 27.2365 42.598C27.2365 42.598 27.427 42.6025 27.4981 42.6025C27.762 42.6025 28.0557 42.5406 28.0557 42.5406C28.0557 42.5406 28.4549 42.8228 28.7555 42.8228C29.0583 42.8228 29.3956 42.6461 29.3956 42.2951C29.3956 41.9444 29.1593 41.7148 28.8427 41.7148C28.526 41.7148 28.3677 41.9902 28.3677 42.1048C28.2874 42.1048 28.2278 42.1096 28.2278 42.1096L27.1677 40.9925L31.043 38.6117L34.9208 40.9925L33.8583 42.1096C33.8583 42.1096 33.801 42.1048 33.7185 42.1048C33.7185 41.9902 33.56 41.7148 33.2434 41.7148C32.9268 41.7148 32.6927 41.9467 32.6927 42.2951C32.6927 42.6461 33.0277 42.8228 33.3306 42.8228C33.6336 42.8228 34.0328 42.5406 34.0328 42.5406C34.0328 42.5406 34.3264 42.6025 34.5903 42.6025C34.6614 42.6025 34.8518 42.598 34.8518 42.598C35.3772 42.598 36.1277 41.6622 36.1277 41.6622C36.334 41.7768 37.2634 42.2357 38.0963 42.5544C38.3027 42.6325 38.6951 42.6118 38.8122 42.6118C39.5646 42.6118 40.0994 41.7057 40.0994 41.5887C40.0994 41.5567 40.104 41.3641 39.8928 41.3641C39.6817 41.3641 39.4683 41.6277 39.3558 41.6277C39.2021 41.6277 37.027 40.4236 37.027 40.4236C37.027 40.4236 37.6994 39.3594 37.7568 39.2768C37.8139 39.1965 37.8576 39.2058 37.915 39.1804C37.915 39.2813 37.9333 39.5842 38.3715 39.5842C38.8076 39.5842 38.9153 39.2239 38.9153 39.052C38.9153 38.8778 38.796 38.4901 38.133 38.4901C37.1049 38.4901 35.9441 39.88 35.9441 39.88L32.5162 37.7079L32.5506 37.6872C32.5506 37.6872 35.2993 36.0337 38.8005 34.3615C40.3816 33.607 42.5589 33.0473 44.0962 33.0473C44.0962 33.0473 45.8009 33.0244 46.4045 33.3844C46.0166 33.038 44.8075 32.2125 42.4052 32.2125Z" fill="#005465"/>
<path d="M52.8562 51.3875H9.21094V2.61328H52.8562V51.3875ZM11.6867 48.9127H50.3805V5.08811H11.6867V48.9127Z" fill="#005465"/>
</g>
<path opacity="0.5" d="M209.871 12L209.871 42" stroke="white" stroke-width="2" stroke-linecap="round"/>
<g clip-path="url(#clip0_15950_40841)">
<path d="M271.149 4.83203H270.375V5.60381H271.149V4.83203Z" fill="#005465"/>
<path d="M287.229 14.4277H286.455V15.1995H287.229V14.4277Z" fill="#005465"/>
<path d="M295.854 13.6022C296.038 13.517 296.196 13.3837 296.31 13.2163C296.433 13.0295 296.518 12.8197 296.558 12.5996C296.608 12.3305 296.632 12.0572 296.63 11.7835V6.38477H295.856V11.7853C295.858 11.9705 295.847 12.1556 295.823 12.3392C295.808 12.4687 295.769 12.5942 295.707 12.7085C295.656 12.7982 295.579 12.8694 295.485 12.9116C295.368 12.9587 295.242 12.9801 295.116 12.9744C295.054 12.9746 294.992 12.9715 294.931 12.9652C294.859 12.9531 294.788 12.9364 294.719 12.9153L294.516 13.6539C294.72 13.7102 294.931 13.7394 295.143 13.7406C295.388 13.7473 295.63 13.7 295.854 13.6022Z" fill="#005465"/>
<path d="M293.196 5.00904H292.135V4.82441C292.129 4.74373 292.151 4.66351 292.197 4.59731C292.231 4.57192 292.269 4.55359 292.31 4.54343C292.35 4.53328 292.392 4.5315 292.434 4.53822H292.964V3.99909H292.419C292.296 3.99098 292.172 4.00736 292.055 4.04729C291.938 4.08722 291.83 4.1499 291.738 4.23173C291.651 4.33299 291.586 4.4504 291.545 4.57716C291.504 4.70393 291.489 4.83753 291.5 4.97027V5.59987H293.195L293.196 5.00904Z" fill="#005465"/>
<path d="M285.684 14.4277H284.91V15.1995H285.684V14.4277Z" fill="#005465"/>
<path d="M272.695 4.83203H271.922V5.60381H272.695V4.83203Z" fill="#005465"/>
<path d="M289.713 11.001C290.022 11.216 290.368 11.373 290.733 11.4644C291.134 11.5653 291.547 11.615 291.96 11.6121H292.164L292.424 11.0693V11.8355C292.424 12.2392 292.308 12.5285 292.077 12.7033C291.788 12.893 291.445 12.9844 291.1 12.9636C290.884 12.9664 290.668 12.9434 290.457 12.8953C290.233 12.8387 290.014 12.7614 289.804 12.6645L289.564 13.4031C289.821 13.5007 290.083 13.5827 290.35 13.6486C290.576 13.7036 290.808 13.7315 291.041 13.7317C291.796 13.7317 292.343 13.5471 292.684 13.1963C293.04 12.8026 293.224 12.284 293.197 11.7543V6.38508H291.96C291.517 6.37952 291.076 6.44753 290.655 6.58633C290.288 6.70809 289.945 6.89579 289.645 7.14024C289.369 7.36886 289.147 7.65494 288.993 7.97848C288.837 8.30849 288.758 8.66953 288.761 9.0346C288.75 9.44046 288.838 9.84288 289.017 10.207C289.183 10.5232 289.422 10.7954 289.713 11.001ZM289.713 8.26651C289.829 8.03827 289.99 7.83597 290.186 7.67199C290.386 7.50684 290.614 7.3781 290.858 7.29164C291.102 7.20516 291.358 7.15962 291.617 7.15685H292.865L292.424 7.37657V10.8422H291.641C291.364 10.8441 291.089 10.803 290.825 10.7203C290.581 10.646 290.353 10.5264 290.153 10.3677C289.96 10.2154 289.805 10.0208 289.699 9.79899C289.586 9.55759 289.53 9.29362 289.534 9.02721C289.532 8.76348 289.593 8.50305 289.713 8.26836V8.26651Z" fill="#005465"/>
<path d="M270.586 13.6298H272.193V13.0519C272.208 13.0793 272.224 13.1058 272.243 13.1313C272.356 13.3016 272.515 13.4371 272.7 13.5228C272.921 13.6191 273.161 13.6651 273.402 13.6575H287.499V6.38477H286.725V12.8932H273.432C273.305 12.8988 273.18 12.8774 273.062 12.8304C272.968 12.7889 272.89 12.7184 272.839 12.6291C272.778 12.5142 272.739 12.389 272.724 12.2599C272.7 12.0762 272.689 11.8911 272.691 11.706V6.38477H270.607C268.469 6.38477 267.014 8.07602 267.014 10.011V10.0313C267.014 11.9571 268.448 13.6298 270.586 13.6298ZM267.837 9.98331C267.837 8.3899 268.98 7.10853 270.586 7.10853H272.396L271.923 7.34302V11.7004C271.921 11.9735 271.945 12.2462 271.995 12.5147C272.021 12.6468 272.061 12.7756 272.115 12.8987H270.607C269 12.8987 267.837 11.5952 267.837 10.0036V9.98331Z" fill="#005465"/>
<path d="M263.148 11.7125L263.484 12.6024L258.575 6.36914H257.807V13.6142H258.606V8.15272L258.15 7.0966L263.292 13.6142H263.946V6.36914H263.148V11.7125Z" fill="#005465"/>
<path d="M274.156 25.1922L278.615 20.9456V18.0283H266.704V21.3518H272.812L275.079 19.8913L269.424 25.5688L270.027 28.0337H271.639C273.805 28.0337 275.09 28.8369 275.09 30.2696V30.3195C275.09 31.6267 274.058 32.4557 272.598 32.4557C270.808 32.4557 269.549 31.7024 268.342 30.3453L265.672 32.8841C267.182 34.6695 269.374 35.925 272.546 35.925C276.475 35.925 278.894 33.4878 278.894 30.1699V30.1182C278.894 26.852 276.556 25.5873 274.156 25.1922Z" fill="#005465"/>
<path d="M252.772 6.24414C250.556 6.24414 249.059 7.99263 249.059 9.99039V10.0125C249.059 12.0103 250.536 13.7385 252.751 13.7385C254.967 13.7385 256.464 11.9881 256.464 9.99039V9.97008C256.462 7.97232 254.98 6.24414 252.772 6.24414ZM255.613 10.0125C255.613 11.6576 254.43 12.9833 252.772 12.9833C251.114 12.9833 249.908 11.6373 249.908 9.99039V9.97008C249.908 8.32498 251.091 6.9993 252.749 6.9993C254.407 6.9993 255.613 8.34529 255.613 9.99039V10.0125Z" fill="#005465"/>
<path d="M289.297 17.7275C283.857 17.7275 279.902 21.8246 279.902 26.8264V26.8799C279.902 31.8835 283.806 35.927 289.247 35.927C294.688 35.927 298.641 31.83 298.641 26.8282V26.7784C298.632 21.7747 294.727 17.7275 289.297 17.7275ZM294.577 26.8799C294.577 29.8968 292.411 32.3599 289.287 32.3599C286.163 32.3599 283.942 29.8433 283.942 26.8264V26.7765C283.942 23.7596 286.11 21.2965 289.232 21.2965C292.354 21.2965 294.572 23.8113 294.572 26.8264L294.577 26.8799Z" fill="#005465"/>
<path d="M247.648 6.36914H246.828V13.6142H247.648V6.36914Z" fill="#005465"/>
<path d="M233.665 33.6125L234.413 33.0365L238.266 30.0675C241.388 27.6543 242.899 26.1902 242.899 23.2563V23.2065C242.899 19.9126 240.482 17.7764 236.83 17.7764C233.682 17.7764 231.994 19.0577 230.257 21.4211L232.982 23.6071C234.291 21.999 235.223 21.2457 236.584 21.2457C237.945 21.2457 238.951 22.0488 238.951 23.5333C238.951 24.9901 238.094 25.9465 235.903 27.7559L230.035 32.5564V35.6232H243.081V32.2795H236.353L233.665 33.6125Z" fill="#005465"/>
<path d="M233.719 13.6659L236.841 6.36914H235.96L233.492 12.3089L233.571 13.1046L233.366 12.6098L231.23 7.44741L230.783 6.36914H229.871L232.993 13.6659H233.719Z" fill="#005465"/>
<path d="M238.773 6.36914H237.953V13.6142H238.773V6.36914Z" fill="#005465"/>
<path d="M243.109 9.59783C241.51 9.25625 241.137 8.87406 241.137 8.19091V8.1706C241.137 7.51699 241.739 7.00001 242.682 7.00001C243.453 7.00068 244.197 7.28005 244.778 7.78656L245.254 7.15511C244.542 6.55578 243.635 6.23906 242.705 6.26517C241.323 6.26517 240.319 7.10341 240.319 8.24261V8.26292C240.319 9.45381 241.085 9.9911 242.756 10.3548C244.279 10.6743 244.643 11.0583 244.643 11.7304V11.7507C244.643 12.4652 244.001 12.9822 243.026 12.9822C242.02 12.9822 241.294 12.6425 240.535 11.9593L240.027 12.5594C240.829 13.3153 241.893 13.7309 242.994 13.7189C244.435 13.7189 245.472 12.9102 245.472 11.6694V11.6473C245.472 10.5413 244.726 9.95048 243.109 9.59783Z" fill="#005465"/>
<path d="M253.613 16.5693L254.506 17.4242L253.65 18.3141L252.758 17.4593L253.613 16.5693Z" fill="#273877"/>
<path d="M255.658 17.4593L256.552 18.3141L257.409 17.4242L256.515 16.5693L255.658 17.4593Z" fill="#AAAAAD"/>
<path d="M254.4 18.582L255.096 19.2486L255.763 18.5543L255.069 17.8896L254.4 18.582Z" fill="#CCD533"/>
<path d="M256.949 18.9647L257.643 19.6294L258.31 18.937L257.616 18.2705L256.949 18.9647Z" fill="#71B645"/>
<path d="M253.264 19.6444L253.958 20.311L254.624 19.6167L253.93 18.9502L253.264 19.6444Z" fill="#CCD533"/>
<path d="M255.596 19.7255L256.29 20.3902L256.958 19.6978L256.262 19.0312L255.596 19.7255Z" fill="#26B4BB"/>
<path d="M254.684 20.5225L255.173 20.9915L255.642 20.5022L255.153 20.0332L254.684 20.5225Z" fill="#71B645"/>
<path d="M256.527 20.8898L257.017 21.3588L257.486 20.8695L256.996 20.4023L256.527 20.8898Z" fill="#59B25A"/>
<path d="M262.075 16.8968L260.559 17.1748L260.836 18.6894L262.353 18.4114L262.075 16.8968Z" fill="#2885C7"/>
<path d="M259.795 17.5838L258.578 17.8066L258.801 19.0216L260.017 18.7987L259.795 17.5838Z" fill="#1D3A6D"/>
<path d="M262.145 19.2847L260.928 19.5078L261.151 20.7228L262.367 20.4997L262.145 19.2847Z" fill="#26B4BB"/>
<path d="M260.198 19.5099L259.25 19.6836L259.423 20.6298L260.371 20.4561L260.198 19.5099Z" fill="#CCD533"/>
<path d="M262.042 21.3068L261.094 21.4805L261.267 22.4267L262.215 22.253L262.042 21.3068Z" fill="#AAAAAD"/>
<path d="M258.778 19.8957L257.83 20.0693L258.003 21.0155L258.951 20.8419L258.778 19.8957Z" fill="#26B4BB"/>
<path d="M260.497 21.134L259.549 21.3076L259.722 22.2538L260.67 22.0802L260.497 21.134Z" fill="#71B645"/>
<path d="M259.012 21.2977L258.346 21.4199L258.468 22.0846L259.134 21.9624L259.012 21.2977Z" fill="#AAAAAD"/>
<path d="M260.294 22.674L259.627 22.7959L259.748 23.4606L260.415 23.3388L260.294 22.674Z" fill="#59B25A"/>
<path d="M265.067 22.1387L264.404 23.529L265.798 24.19L266.459 22.7997L265.067 22.1387Z" fill="#273877"/>
<path d="M263.092 21.4961L262.561 22.6113L263.678 23.1412L264.209 22.026L263.092 21.4961Z" fill="#26B4BB"/>
<path d="M264.006 24.2441L263.475 25.3593L264.592 25.8892L265.123 24.774L264.006 24.2441Z" fill="#71B645"/>
<path d="M262.541 23.4062L262.127 24.274L262.997 24.6876L263.41 23.818L262.541 23.4062Z" fill="#CCD533"/>
<path d="M262.984 25.9395L262.57 26.8072L263.44 27.2208L263.854 26.353L262.984 25.9395Z" fill="#CCD533"/>
<path d="M261.164 22.8906L260.75 23.7584L261.62 24.172L262.033 23.3024L261.164 22.8906Z" fill="#2885C7"/>
<path d="M261.832 24.8984L261.418 25.7662L262.288 26.1798L262.701 25.3102L261.832 24.8984Z" fill="#AAAAAD"/>
<path d="M260.786 24.2861L260.496 24.8973L261.107 25.1872L261.399 24.5779L260.786 24.2861Z" fill="#71B645"/>
<path d="M261.017 26.1496L260.727 26.7598L261.338 27.051L261.629 26.4408L261.017 26.1496Z" fill="#26B4BB"/>
<path d="M265.818 28.7939L264.465 29.5343L265.207 30.884L266.56 30.1436L265.818 28.7939Z" fill="#2885C7"/>
<path d="M264.59 27.1201L263.506 27.7128L264.1 28.7966L265.186 28.2021L264.59 27.1201Z" fill="#26B4BB"/>
<path d="M263.722 29.8789L262.637 30.4734L263.233 31.5554L264.317 30.9627L263.722 29.8789Z" fill="#26B4BB"/>
<path d="M263.025 28.3477L262.182 28.8092L262.645 29.653L263.489 29.1914L263.025 28.3477Z" fill="#273877"/>
<path d="M261.898 30.6592L261.053 31.1226L261.516 31.9664L262.362 31.503L261.898 30.6592Z" fill="#59B25A"/>
<path d="M262.211 27.123L261.367 27.5865L261.831 28.4284L262.676 27.9668L262.211 27.123Z" fill="#1D3A6D"/>
<path d="M261.576 29.1436L260.732 29.607L261.196 30.4489L262.04 29.9873L261.576 29.1436Z" fill="#CCD533"/>
<path d="M261.087 28.0361L260.492 28.3629L260.819 28.9556L261.414 28.6307L261.087 28.0361Z" fill="#AAAAAD"/>
<path d="M260.184 29.6826L259.59 30.0076L259.915 30.6003L260.509 30.2753L260.184 29.6826Z" fill="#26B4BB"/>
<path d="M260.998 34.4464L260.809 35.9746L262.339 36.1638L262.528 34.6356L260.998 34.4464Z" fill="#71B645"/>
<path d="M261.283 32.3992L261.131 33.625L262.359 33.777L262.51 32.5512L261.283 32.3992Z" fill="#1D3A6D"/>
<path d="M258.957 34.1326L258.805 35.3584L260.032 35.5104L260.184 34.2846L258.957 34.1326Z" fill="#26B4BB"/>
<path d="M259.569 32.5258L259.451 33.4805L260.408 33.5988L260.526 32.6441L259.569 32.5258Z" fill="#71B645"/>
<path d="M257.3 33.7416L257.182 34.6963L258.138 34.8146L258.256 33.8599L257.3 33.7416Z" fill="#AAAAAD"/>
<path d="M259.62 31.0473L259.502 32.002L260.458 32.1204L260.577 31.1658L259.62 31.0473Z" fill="#AAAAAD"/>
<path d="M257.923 32.3159L257.805 33.2705L258.761 33.389L258.879 32.4343L257.923 32.3159Z" fill="#71B645"/>
<path d="M258.46 31.1682L258.377 31.8389L259.049 31.922L259.132 31.2514L258.46 31.1682Z" fill="#AAAAAD"/>
<path d="M256.761 31.9797L256.678 32.6504L257.35 32.7336L257.433 32.0629L256.761 31.9797Z" fill="#AAAAAD"/>
<path d="M256.431 37.4403L255.301 36.3916L254.252 37.5216L255.382 38.5684L256.431 37.4403Z" fill="#CCD533"/>
<path d="M256.222 15.8788L255.092 14.8301L254.043 15.9582L255.173 17.0051L256.222 15.8788Z" fill="#71B645"/>
<path d="M257.639 35.7493L256.731 34.9092L255.889 35.8139L256.797 36.6558L257.639 35.7493Z" fill="#26B4BB"/>
<path d="M254.739 35.7971L253.832 34.957L252.99 35.8617L253.897 36.7037L254.739 35.7971Z" fill="#71B645"/>
<path d="M255.976 34.6546L255.271 34.001L254.615 34.7044L255.321 35.358L255.976 34.6546Z" fill="#2885C7"/>
<path d="M253.423 34.3147L252.716 33.6611L252.062 34.3664L252.768 35.02L253.423 34.3147Z" fill="#CCD533"/>
<path d="M256.886 33.4992L256.179 32.8438L255.523 33.5491L256.229 34.2027L256.886 33.4992Z" fill="#CCD533"/>
<path d="M254.763 33.5344L254.056 32.8789L253.4 33.5842L254.108 34.2378L254.763 33.5344Z" fill="#AAAAAD"/>
<path d="M255.66 32.7195L255.165 32.2598L254.703 32.7546L255.2 33.2162L255.66 32.7195Z" fill="#1D3A6D"/>
<path d="M253.808 32.3826L253.311 31.9229L252.852 32.4195L253.348 32.8793L253.808 32.3826Z" fill="#AAAAAD"/>
<path d="M249.539 34.6541L248.027 34.957L248.33 36.4669L249.842 36.164L249.539 34.6541Z" fill="#2885C7"/>
<path d="M251.574 34.2804L250.361 34.5234L250.604 35.7346L251.817 35.4915L251.574 34.2804Z" fill="#26B4BB"/>
<path d="M249.189 32.6318L247.977 32.875L248.219 34.0861L249.432 33.8429L249.189 32.6318Z" fill="#71B645"/>
<path d="M250.922 32.6896L249.977 32.8789L250.166 33.8221L251.111 33.6328L250.922 32.6896Z" fill="#CCD533"/>
<path d="M252.336 32.2823L251.391 32.4717L251.58 33.4149L252.525 33.2255L252.336 32.2823Z" fill="#273877"/>
<path d="M250.595 31.0714L249.65 31.2607L249.839 32.2039L250.784 32.0146L250.595 31.0714Z" fill="#2885C7"/>
<path d="M251.854 31.2146L251.189 31.3477L251.322 32.0103L251.987 31.8773L251.854 31.2146Z" fill="#71B645"/>
<path d="M250.547 29.8697L249.883 30.0029L250.016 30.6655L250.68 30.5323L250.547 29.8697Z" fill="#AAAAAD"/>
<path d="M245.251 31.2757L245.89 29.8761L244.486 29.2373L243.846 30.6387L245.251 31.2757Z" fill="#26B4BB"/>
<path d="M247.24 31.8878L247.753 30.7634L246.627 30.252L246.113 31.3745L247.24 31.8878Z" fill="#CCD533"/>
<path d="M246.279 29.1544L246.792 28.0318L245.666 27.5186L245.152 28.643L246.279 29.1544Z" fill="#2885C7"/>
<path d="M247.28 28.698L246.881 29.5732L247.758 29.9732L248.157 29.098L247.28 28.698Z" fill="#26B4BB"/>
<path d="M248.93 32.1548L249.329 31.2797L248.452 30.8809L248.053 31.756L248.93 32.1548Z" fill="#AAAAAD"/>
<path d="M246.798 26.1609L246.398 27.0361L247.275 27.4361L247.675 26.5609L246.798 26.1609Z" fill="#273877"/>
<path d="M248.665 29.1814L248.266 30.0566L249.143 30.4566L249.542 29.5814L248.665 29.1814Z" fill="#59B25A"/>
<path d="M247.964 27.1845L247.564 28.0596L248.441 28.4599L248.841 27.5848L247.964 27.1845Z" fill="#CCD533"/>
<path d="M249.496 29.0575L249.776 28.4408L249.16 28.1602L248.879 28.7768L249.496 29.0575Z" fill="#1D3A6D"/>
<path d="M249.234 27.2002L249.514 26.5835L248.898 26.3047L248.615 26.9195L249.234 27.2002Z" fill="#71B645"/>
<path d="M244.389 24.6335L245.73 23.8728L244.965 22.5342L243.625 23.2967L244.389 24.6335Z" fill="#26B4BB"/>
<path d="M245.646 26.2892L246.721 25.6762L246.108 24.6035L245.033 25.2165L245.646 26.2892Z" fill="#71B645"/>
<path d="M246.467 23.512L247.543 22.9009L246.928 21.8281L245.854 22.4393L246.467 23.512Z" fill="#1D3A6D"/>
<path d="M247.191 25.0336L248.027 24.5572L247.549 23.7227L246.713 24.199L247.191 25.0336Z" fill="#2885C7"/>
<path d="M248.277 22.7035L249.115 22.2271L248.637 21.3926L247.801 21.8689L248.277 22.7035Z" fill="#71B645"/>
<path d="M248.025 26.2444L248.863 25.768L248.385 24.9316L247.549 25.408L248.025 26.2444Z" fill="#26B4BB"/>
<path d="M248.627 24.2142L249.463 23.7379L248.987 22.9033L248.15 23.3797L248.627 24.2142Z" fill="#CCD533"/>
<path d="M249.133 25.3138L249.722 24.9778L249.386 24.3906L248.799 24.7248L249.133 25.3138Z" fill="#AAAAAD"/>
<path d="M250.01 23.6527L250.599 23.3185L250.263 22.7295L249.674 23.0655L250.01 23.6527Z" fill="#71B645"/>
<path d="M247.752 17.211L247.588 18.7422L249.121 18.906L249.284 17.3749L247.752 17.211Z" fill="#71B645"/>
<path d="M247.764 19.5911L247.633 20.8193L248.863 20.951L248.994 19.7228L247.764 19.5911Z" fill="#AAAAAD"/>
<path d="M250.061 17.8206L249.93 19.0488L251.16 19.1805L251.291 17.9523L250.061 17.8206Z" fill="#26B4BB"/>
<path d="M249.723 19.7457L249.621 20.7021L250.579 20.8047L250.682 19.8482L249.723 19.7457Z" fill="#CCD533"/>
<path d="M251.973 18.4907L251.871 19.4473L252.829 19.5495L252.932 18.593L251.973 18.4907Z" fill="#2885C7"/>
<path d="M249.69 21.2125L249.588 22.1689L250.546 22.2715L250.649 21.315L249.69 21.2125Z" fill="#26B4BB"/>
<path d="M251.366 19.9185L251.264 20.875L252.222 20.9776L252.324 20.0211L251.366 19.9185Z" fill="#71B645"/>
<path d="M251.107 21.3955L251.035 22.0674L251.709 22.1395L251.781 21.4676L251.107 21.3955Z" fill="#1D3A6D"/>
<path d="M252.79 20.5565L252.719 21.2285L253.393 21.3002L253.464 20.6282L252.79 20.5565Z" fill="#AAAAAD"/>
<path d="M233.907 44.4121H233.453V44.8663H233.907V44.4121Z" fill="#005465"/>
<path d="M264.031 43.8875V40.8909H263.587V43.4462H261.926V40.8909H261.484V43.4462H259.716V40.8909H259.014C258.759 40.8873 258.505 40.9253 258.263 41.0035C258.053 41.0711 257.857 41.1776 257.687 41.3174C257.53 41.448 257.404 41.6112 257.317 41.7956C257.23 41.9822 257.186 42.186 257.188 42.3919C257.182 42.6254 257.233 42.8569 257.338 43.0659C257.432 43.2488 257.568 43.4074 257.735 43.5293C257.909 43.6555 258.107 43.747 258.316 43.7989C258.543 43.8586 258.777 43.8884 259.012 43.8875H264.031ZM258.368 43.3742C258.229 43.3305 258.1 43.2602 257.987 43.1674C257.879 43.0771 257.79 42.9643 257.729 42.8369C257.665 42.6975 257.632 42.5454 257.635 42.3919C257.633 42.241 257.669 42.0921 257.738 41.958C257.805 41.829 257.898 41.7148 258.01 41.622C258.123 41.5271 258.253 41.4538 258.394 41.406C258.536 41.3569 258.685 41.3319 258.835 41.3321H259.273V43.4462H258.829C258.673 43.4466 258.517 43.4223 258.368 43.3742Z" fill="#005465"/>
<path d="M255.01 39.9248H254.566V43.8871H255.01V39.9248Z" fill="#005465"/>
<path d="M259.714 39.9248H259.26V40.379H259.714V39.9248Z" fill="#005465"/>
<path d="M264.036 44.4062H263.582V44.8605H264.036V44.4062Z" fill="#005465"/>
<path d="M234.681 44.4121H234.227V44.8663H234.681V44.4121Z" fill="#005465"/>
<path d="M252.833 43.4468H252.109C251.9 43.4564 251.692 43.4186 251.5 43.336C251.353 43.2634 251.231 43.1483 251.151 43.0055C251.179 42.8695 251.192 42.7308 251.19 42.5919V41.1665H250.747V42.6621C250.757 42.884 250.685 43.1019 250.543 43.2732C250.463 43.354 250.366 43.4163 250.258 43.4559C250.151 43.4954 250.037 43.5112 249.923 43.5022C249.802 43.5036 249.682 43.483 249.569 43.4412C249.467 43.4037 249.373 43.3473 249.292 43.2751C249.215 43.2059 249.152 43.1225 249.107 43.0295C249.063 42.9351 249.039 42.8326 249.037 42.7285V41.1665H248.594V42.6953C248.597 42.8133 248.576 42.9308 248.533 43.0406C248.496 43.1297 248.439 43.2093 248.367 43.2732C248.297 43.3337 248.216 43.3789 248.128 43.4062C248.037 43.434 247.942 43.4477 247.846 43.4468H246.989V41.1665H246.546V43.4468H244.225L244.999 41.6004C244.882 41.4964 244.758 41.3996 244.63 41.3105C244.499 41.222 244.362 41.143 244.22 41.0742C244.083 41.0073 243.94 40.9535 243.793 40.9136C243.655 40.8759 243.512 40.8567 243.369 40.8563C243.223 40.8564 243.077 40.8756 242.936 40.9136C242.789 40.9533 242.646 41.0058 242.508 41.0705C242.365 41.1377 242.228 41.2174 242.098 41.3087C241.969 41.3983 241.846 41.4958 241.729 41.6004L242.508 43.4468H240.976V40.8914H240.269C240.018 40.8888 239.768 40.9275 239.53 41.0059C239.32 41.0759 239.124 41.1835 238.952 41.3235C238.796 41.4552 238.67 41.6189 238.583 41.8035C238.493 41.9928 238.448 42.1998 238.45 42.4091C238.443 42.6411 238.493 42.8712 238.596 43.0793C238.69 43.2619 238.827 43.4189 238.995 43.5372C239.171 43.6612 239.369 43.7514 239.578 43.8031C239.808 43.8611 240.044 43.8896 240.281 43.888H240.545V44.0154C240.554 44.108 240.541 44.2013 240.507 44.2877C240.473 44.3741 240.418 44.4511 240.348 44.5121C240.184 44.6195 239.99 44.6719 239.794 44.6617C239.67 44.6632 239.546 44.6502 239.425 44.6229C239.298 44.5902 239.174 44.5457 239.055 44.49L238.917 44.9146C239.064 44.971 239.215 45.0185 239.367 45.0568C239.497 45.0877 239.63 45.1032 239.763 45.103C240.195 45.103 240.501 45.0014 240.702 44.7965C240.803 44.6851 240.881 44.5548 240.932 44.4131C240.982 44.2715 241.004 44.1213 240.996 43.9711V43.888H247.872C248.072 43.8913 248.269 43.8443 248.446 43.7514C248.609 43.6628 248.748 43.5361 248.852 43.3822C248.957 43.5573 249.108 43.7008 249.288 43.7976C249.492 43.9003 249.719 43.951 249.947 43.9453C250.181 43.952 250.413 43.9046 250.625 43.8068C250.81 43.7164 250.961 43.5671 251.053 43.3822C251.093 43.4479 251.138 43.5097 251.19 43.5668C251.248 43.6327 251.318 43.6877 251.396 43.7293C251.493 43.7818 251.596 43.8209 251.703 43.8456C251.808 43.8701 251.915 43.8831 252.022 43.8844H253.3V39.9258H252.857L252.833 43.4468ZM240.529 43.4468H240.082C239.924 43.4483 239.766 43.4253 239.615 43.3785C239.475 43.3351 239.345 43.2669 239.229 43.1772C239.119 43.0897 239.03 42.9778 238.971 42.8504C238.906 42.7125 238.873 42.5615 238.876 42.4091C238.874 42.2572 238.909 42.1071 238.978 41.9715C239.044 41.8416 239.137 41.7267 239.249 41.6337C239.363 41.5382 239.493 41.4643 239.633 41.4158C239.777 41.3641 239.929 41.3379 240.082 41.3382H240.529V43.4468ZM242.97 43.4468L242.277 41.7518C242.432 41.6167 242.61 41.5104 242.802 41.4379C243.174 41.2989 243.586 41.3055 243.954 41.4564C244.135 41.5269 244.303 41.6267 244.452 41.7518L243.76 43.4468H242.97Z" fill="#005465"/>
<path d="M232.392 39.9248H231.938V40.379H232.392V39.9248Z" fill="#005465"/>
<path d="M277.151 39.9248H276.697V40.379H277.151V39.9248Z" fill="#005465"/>
<path d="M273.22 39.9248H272.777V43.8871H273.22V39.9248Z" fill="#005465"/>
<path d="M258.941 39.9248H258.486V40.379H258.941V39.9248Z" fill="#005465"/>
<path d="M237.731 42.1498C237.733 41.9854 237.71 41.8218 237.663 41.6642C237.62 41.5231 237.548 41.3927 237.451 41.282C237.34 41.1587 237.205 41.06 237.054 40.9921C236.885 40.9233 236.703 40.8906 236.52 40.8961H236.193V41.3374H236.581C236.687 41.3367 236.791 41.3601 236.886 41.4057C236.977 41.4495 237.059 41.5125 237.124 41.5903C237.185 41.6649 237.229 41.7518 237.253 41.8451C237.279 41.9533 237.292 42.0643 237.29 42.1756V43.457H235.215V43.8983H237.731V42.1498Z" fill="#005465"/>
<path d="M296.635 39.9248H296.191V43.8871H296.635V39.9248Z" fill="#005465"/>
<path d="M277.927 39.9238H277.473V40.378H277.927V39.9238Z" fill="#005465"/>
<path d="M294.898 39.9258H294.463V43.4468H292.941C293.034 43.2421 293.081 43.0197 293.08 42.795C293.081 42.5764 293.038 42.3598 292.954 42.158C292.876 41.9666 292.761 41.7928 292.615 41.6466C292.468 41.5004 292.294 41.3849 292.103 41.3069C291.901 41.2231 291.683 41.181 291.464 41.1831C291.251 41.1815 291.039 41.2249 290.844 41.3105C290.465 41.4758 290.165 41.7826 290.009 42.1654C289.927 42.3651 289.886 42.5791 289.887 42.795C289.887 42.9092 289.899 43.0231 289.923 43.1347C289.946 43.2413 289.979 43.3457 290.02 43.4468H288.649C288.741 43.242 288.787 43.0196 288.785 42.795C288.787 42.5765 288.745 42.3599 288.661 42.158C288.583 41.9666 288.468 41.7928 288.322 41.6466C288.176 41.5004 288.002 41.3849 287.81 41.3069C287.608 41.2232 287.391 41.1811 287.171 41.1831C286.958 41.1815 286.747 41.2249 286.551 41.3105C286.172 41.4758 285.873 41.7826 285.717 42.1654C285.635 42.3651 285.593 42.5791 285.595 42.795C285.594 42.9092 285.606 43.0231 285.63 43.1347C285.653 43.2413 285.686 43.3457 285.728 43.4468H284.323V39.9258H283.879V43.4468H282.461V42.771C282.462 42.6074 282.44 42.4446 282.395 42.2873C282.355 42.1431 282.283 42.0098 282.184 41.8977C282.077 41.7754 281.945 41.6778 281.797 41.6115C281.621 41.542 281.432 41.51 281.243 41.5173H279.293L280.126 39.9258H279.646L278.795 41.5118C278.806 41.5971 278.83 41.6804 278.865 41.7592C278.897 41.8319 278.941 41.8991 278.994 41.9586H281.252C281.378 41.954 281.504 41.976 281.621 42.0232C281.716 42.0599 281.801 42.1196 281.867 42.1968C281.929 42.2694 281.973 42.3563 281.994 42.4497C282.017 42.5552 282.029 42.663 282.028 42.771V43.4468H277.927V40.8914H277.229C276.974 40.888 276.72 40.926 276.477 41.004C276.267 41.0717 276.072 41.1782 275.901 41.3179C275.745 41.4486 275.619 41.6118 275.532 41.7961C275.445 41.9828 275.401 42.1866 275.403 42.3925C275.397 42.626 275.448 42.8575 275.552 43.0664C275.648 43.2486 275.784 43.407 275.949 43.5299C276.124 43.6561 276.322 43.7476 276.531 43.7994C276.758 43.8592 276.992 43.889 277.227 43.888H286.006C286.151 44.044 286.326 44.1695 286.52 44.2573C286.722 44.3494 286.942 44.396 287.164 44.3939C287.391 44.3956 287.616 44.3503 287.825 44.261C288.025 44.1762 288.205 44.0504 288.353 43.8917H290.299C290.444 44.0477 290.619 44.1732 290.812 44.261C291.015 44.3531 291.235 44.3997 291.457 44.3976C291.684 44.3994 291.909 44.3542 292.118 44.2647C292.318 44.1798 292.498 44.0541 292.646 43.8954H294.897L294.898 39.9258ZM277.476 43.4468H277.041C276.881 43.4479 276.723 43.4236 276.572 43.3748C276.433 43.3302 276.304 43.2601 276.191 43.168C276.082 43.0776 275.994 42.9649 275.933 42.8375C275.868 42.6981 275.836 42.546 275.839 42.3925C275.837 42.2416 275.873 42.0926 275.942 41.9586C276.009 41.8296 276.101 41.7154 276.213 41.6226C276.327 41.5276 276.457 41.4544 276.597 41.4066C276.74 41.3573 276.89 41.3323 277.041 41.3327H277.476V43.4468ZM288.239 43.2511C288.181 43.3898 288.097 43.5154 287.989 43.6203C287.884 43.7246 287.758 43.8063 287.62 43.8604C287.473 43.9182 287.316 43.9471 287.159 43.9453C287.004 43.9473 286.85 43.9164 286.708 43.8548C286.57 43.7972 286.444 43.7125 286.339 43.6056C286.236 43.499 286.155 43.3736 286.101 43.2363C286.042 43.0945 286.013 42.9427 286.014 42.7895C286.013 42.6351 286.043 42.4821 286.101 42.339C286.155 42.2023 286.235 42.0771 286.335 41.9697C286.436 41.8635 286.557 41.7782 286.691 41.7186C286.836 41.655 286.992 41.6229 287.149 41.6244C287.309 41.6228 287.468 41.6529 287.616 41.713C287.754 41.7692 287.879 41.8513 287.986 41.9549C288.093 42.0598 288.177 42.1855 288.233 42.3242C288.293 42.4725 288.324 42.6313 288.322 42.7913C288.328 42.9481 288.302 43.1045 288.246 43.2511H288.239ZM292.531 43.2511C292.475 43.3896 292.391 43.5152 292.284 43.6203C292.178 43.724 292.053 43.8056 291.915 43.8604C291.768 43.9182 291.611 43.9471 291.453 43.9453C291.298 43.9473 291.145 43.9164 291.003 43.8548C290.864 43.7972 290.739 43.7125 290.633 43.6056C290.531 43.499 290.45 43.3736 290.395 43.2363C290.337 43.0945 290.308 42.9427 290.308 42.7895C290.308 42.6351 290.337 42.4821 290.395 42.339C290.45 42.2023 290.529 42.0771 290.63 41.9697C290.732 41.8634 290.853 41.7781 290.988 41.7186C291.131 41.6545 291.287 41.6224 291.444 41.6244C291.604 41.6228 291.763 41.6529 291.911 41.713C292.048 41.7698 292.174 41.8519 292.28 41.9549C292.386 42.0602 292.47 42.1858 292.526 42.3242C292.586 42.4725 292.616 42.6313 292.615 42.7913C292.621 42.9481 292.595 43.1045 292.539 43.2511H292.531Z" fill="#005465"/>
<path d="M230.997 43.7988C231.225 43.8586 231.459 43.8884 231.693 43.8875H234.592V40.8908H234.151V43.4462H232.391V40.8908H231.688C231.433 40.8874 231.179 40.9254 230.936 41.0035C230.726 41.0711 230.531 41.1776 230.36 41.3173C230.204 41.4485 230.079 41.6116 229.991 41.7955C229.904 41.9822 229.86 42.186 229.862 42.3919C229.856 42.6254 229.907 42.8569 230.011 43.0658C230.107 43.2484 230.243 43.4069 230.408 43.5293C230.585 43.6564 230.785 43.7479 230.997 43.7988ZM230.31 42.3882C230.309 42.2373 230.344 42.0883 230.414 41.9543C230.481 41.8253 230.573 41.7111 230.685 41.6183C230.799 41.5233 230.929 41.4501 231.069 41.4023C231.212 41.353 231.362 41.328 231.512 41.3284H231.948V43.4425H231.512C231.353 43.4436 231.195 43.4193 231.043 43.3705C230.905 43.3263 230.776 43.2562 230.663 43.1637C230.554 43.0734 230.466 42.9606 230.405 42.8332C230.34 42.6938 230.308 42.5417 230.31 42.3882Z" fill="#005465"/>
<path d="M262.419 44.4121H261.965V44.8663H262.419V44.4121Z" fill="#005465"/>
<path d="M261.644 44.4121H261.189V44.8663H261.644V44.4121Z" fill="#005465"/>
<path d="M265.755 44.4493C265.785 44.2954 265.799 44.1389 265.798 43.9822V43.888H271.49V39.9258H271.047V43.4468H269.171L269.947 41.6004C269.829 41.4965 269.706 41.3997 269.577 41.3105C269.447 41.222 269.31 41.143 269.167 41.0742C269.031 41.0076 268.889 40.9538 268.743 40.9136C268.604 40.8758 268.46 40.8565 268.316 40.8563C268.169 40.8553 268.021 40.8739 267.879 40.9117C267.732 40.9514 267.588 41.004 267.45 41.0687C267.307 41.1358 267.17 41.2155 267.04 41.3069C266.911 41.3965 266.788 41.4939 266.671 41.5986L267.45 43.4449H265.803V40.8914H265.36V43.9822C265.362 44.0884 265.355 44.1945 265.342 44.2998C265.332 44.3733 265.31 44.4446 265.275 44.5103C265.245 44.5612 265.2 44.6013 265.146 44.6247C265.08 44.6515 265.01 44.6641 264.939 44.6617C264.862 44.6637 264.785 44.6524 264.712 44.6284L264.598 45.0531C264.714 45.0858 264.835 45.1026 264.956 45.103C265.094 45.1069 265.231 45.0804 265.358 45.0254C265.464 44.9756 265.555 44.8985 265.621 44.802C265.689 44.6947 265.734 44.5747 265.755 44.4493ZM267.219 41.7518C267.373 41.6164 267.55 41.5101 267.742 41.4379C268.115 41.2989 268.526 41.3055 268.894 41.4564C269.075 41.5269 269.244 41.6267 269.393 41.7518L268.702 43.4468H267.91L267.219 41.7518Z" fill="#005465"/>
<path d="M231.616 39.9248H231.162V40.379H231.616V39.9248Z" fill="#005465"/>
<path d="M233.045 46.79H232.363L230.86 48.3761V46.79H230.305V49.9436H230.86V49.0297L231.352 48.5256L232.432 49.9436H233.104L231.732 48.1471L233.045 46.79Z" fill="#005465"/>
<path d="M234.165 46.79H233.609V49.9455H234.165V46.79Z" fill="#005465"/>
<path d="M237.228 48.9706L235.535 46.79H235.021V49.9436H235.568V47.7003L237.311 49.9436H237.774V46.79H237.228V48.9706Z" fill="#005465"/>
<path d="M240.074 48.6671H240.883V49.2561C240.66 49.415 240.392 49.4991 240.118 49.4961C239.472 49.4961 239.044 49.0179 239.044 48.3698V48.3606C239.033 48.0779 239.135 47.8027 239.327 47.595C239.519 47.3874 239.786 47.2643 240.068 47.2528C240.397 47.2438 240.715 47.3653 240.955 47.5907L241.305 47.1715C240.972 46.8755 240.536 46.7217 240.09 46.7432C239.876 46.7405 239.662 46.7808 239.463 46.8619C239.264 46.943 239.083 47.0632 238.932 47.2154C238.78 47.3675 238.66 47.5486 238.579 47.7478C238.499 47.9471 238.459 48.1605 238.462 48.3754C238.454 48.5919 238.491 48.8077 238.571 49.0091C238.651 49.2106 238.771 49.3933 238.925 49.5458C239.079 49.6983 239.263 49.8173 239.465 49.8951C239.667 49.973 239.883 50.0082 240.1 49.9983C240.584 49.9983 241.053 49.824 241.42 49.5072V48.1833H240.074V48.6671Z" fill="#005465"/>
<path d="M243.365 46.79H242.188V49.9455H243.365C244.359 49.9455 245.046 49.2549 245.046 48.3668C245.046 47.4713 244.359 46.79 243.365 46.79ZM244.464 48.3761C244.469 48.5201 244.444 48.6637 244.39 48.7975C244.337 48.9313 244.255 49.0522 244.152 49.1525C244.048 49.2528 243.925 49.3302 243.789 49.3796C243.654 49.4291 243.509 49.4495 243.365 49.4396H242.743V47.2959H243.365C243.51 47.2871 243.654 47.3085 243.79 47.3588C243.925 47.4091 244.048 47.4872 244.152 47.5881C244.255 47.6889 244.337 47.8103 244.39 47.9444C244.444 48.0786 244.469 48.2224 244.464 48.3668V48.3761Z" fill="#005465"/>
<path d="M247.224 46.7369C247.007 46.7312 246.791 46.7693 246.589 46.8489C246.386 46.9285 246.202 47.0481 246.047 47.2004C245.892 47.3527 245.769 47.5347 245.686 47.7354C245.603 47.9362 245.561 48.1517 245.563 48.3691C245.606 48.7772 245.798 49.1549 246.104 49.4295C246.409 49.704 246.805 49.8559 247.215 49.8559C247.625 49.8559 248.021 49.704 248.326 49.4295C248.632 49.1549 248.824 48.7772 248.868 48.3691V48.3598C248.87 48.1442 248.83 47.9302 248.748 47.7307C248.666 47.5312 248.545 47.3503 248.391 47.1987C248.238 47.0472 248.055 46.9282 247.855 46.8488C247.654 46.7695 247.44 46.7314 247.224 46.7369ZM248.29 48.3764C248.295 48.5198 248.272 48.6628 248.221 48.7969C248.169 48.931 248.092 49.0534 247.992 49.1568C247.893 49.2602 247.774 49.3425 247.642 49.3988C247.51 49.455 247.368 49.4841 247.224 49.4843C247.079 49.4836 246.936 49.4538 246.803 49.3967C246.67 49.3396 246.55 49.2562 246.449 49.1517C246.349 49.0471 246.271 48.9235 246.219 48.7881C246.168 48.6527 246.144 48.5083 246.15 48.3635V48.3543C246.144 48.2109 246.168 48.0679 246.219 47.9338C246.27 47.7998 246.347 47.6774 246.447 47.5739C246.546 47.4705 246.666 47.3882 246.798 47.332C246.93 47.2757 247.072 47.2466 247.215 47.2465C247.36 47.2474 247.503 47.2774 247.636 47.3347C247.77 47.392 247.89 47.4755 247.99 47.5803C248.09 47.685 248.168 47.8087 248.22 47.9442C248.271 48.0798 248.295 48.2242 248.29 48.3691V48.3764Z" fill="#005465"/>
<path d="M251.117 48.2819L250.155 46.79H249.564V49.9436H250.109V47.6911L251.099 49.17H251.117L252.114 47.6818V49.9436H252.67V46.79H252.079L251.117 48.2819Z" fill="#005465"/>
<path d="M256.355 46.7369C256.138 46.731 255.921 46.7689 255.719 46.8484C255.517 46.928 255.333 47.0475 255.177 47.1998C255.022 47.3522 254.899 47.5343 254.816 47.7352C254.733 47.9361 254.691 48.1517 254.693 48.3691C254.737 48.7773 254.929 49.155 255.234 49.4295C255.54 49.704 255.935 49.8559 256.346 49.8559C256.756 49.8559 257.152 49.704 257.457 49.4295C257.762 49.155 257.955 48.7773 257.998 48.3691V48.3599C258.001 48.1443 257.96 47.9303 257.879 47.7308C257.797 47.5313 257.675 47.3503 257.522 47.1988C257.369 47.0473 257.186 46.9283 256.986 46.8489C256.785 46.7695 256.571 46.7315 256.355 46.7369ZM257.42 48.3765C257.426 48.5199 257.402 48.6629 257.351 48.7969C257.3 48.931 257.223 49.0534 257.123 49.1569C257.024 49.2603 256.905 49.3426 256.773 49.3988C256.641 49.4551 256.499 49.4842 256.355 49.4843C256.21 49.4837 256.067 49.4539 255.934 49.3968C255.801 49.3396 255.681 49.2563 255.58 49.1517C255.48 49.0472 255.402 48.9235 255.35 48.7881C255.299 48.6527 255.275 48.5083 255.281 48.3636V48.3543C255.275 48.211 255.299 48.068 255.35 47.9339C255.401 47.7998 255.478 47.6774 255.578 47.574C255.677 47.4706 255.797 47.3883 255.928 47.332C256.06 47.2758 256.202 47.2467 256.346 47.2465C256.491 47.2474 256.634 47.2774 256.767 47.3348C256.9 47.3921 257.021 47.4756 257.121 47.5803C257.221 47.685 257.299 47.8088 257.351 47.9443C257.402 48.0798 257.426 48.2243 257.42 48.3691V48.3765Z" fill="#005465"/>
<path d="M258.693 49.9436H259.249V48.6604H260.843V48.1545H259.249V47.2941H261.046V46.79H258.693V49.9436Z" fill="#005465"/>
<path d="M264.232 48.1136C263.626 47.9696 263.482 47.8606 263.482 47.6169C263.482 47.4083 263.667 47.2477 263.997 47.2477C264.311 47.2593 264.612 47.3734 264.854 47.5726L265.153 47.1535C264.83 46.8847 264.421 46.7406 264.001 46.7473C263.373 46.7473 262.921 47.1166 262.921 47.6612V47.6705C262.921 48.2521 263.299 48.4515 263.973 48.6121C264.56 48.7487 264.686 48.8688 264.686 49.0959C264.686 49.3359 264.47 49.4928 264.132 49.4928C263.759 49.4894 263.401 49.3426 263.133 49.0829L262.801 49.4799C263.162 49.807 263.632 49.9868 264.119 49.9839C264.782 49.9839 265.247 49.6331 265.247 49.0423V49.0368C265.247 48.5179 264.9 48.2798 264.232 48.1136Z" fill="#005465"/>
<path d="M266.955 46.7686L265.564 49.9461H266.133L266.458 49.1836H267.954L268.273 49.9461H268.86L267.47 46.7686H266.955ZM266.661 48.6925L267.204 47.4314L267.758 48.6925H266.661Z" fill="#005465"/>
<path d="M271.329 48.6068C271.329 49.1884 271.026 49.4857 270.535 49.4857C270.044 49.4857 269.736 49.17 269.736 48.5847V46.79H269.182V48.6068C269.182 49.5208 269.706 49.9953 270.528 49.9953C271.349 49.9953 271.887 49.5208 271.887 48.5792V46.79H271.333L271.329 48.6068Z" fill="#005465"/>
<path d="M273.879 46.79H272.699V49.9455H273.879C274.872 49.9455 275.559 49.2549 275.559 48.3668C275.559 47.4713 274.872 46.79 273.879 46.79ZM274.976 48.3761C274.981 48.52 274.956 48.6634 274.902 48.797C274.849 48.9306 274.767 49.0515 274.664 49.1518C274.561 49.252 274.437 49.3294 274.302 49.379C274.167 49.4286 274.023 49.4492 273.879 49.4396H273.255V47.2959H273.879C274.023 47.2874 274.167 47.309 274.303 47.3594C274.438 47.4098 274.561 47.488 274.664 47.5888C274.768 47.6896 274.849 47.8109 274.902 47.9449C274.956 48.0789 274.981 48.2226 274.976 48.3668V48.3761Z" fill="#005465"/>
<path d="M276.817 46.79H276.262V49.9455H276.817V46.79Z" fill="#005465"/>
<path d="M280.136 46.7686L278.746 49.9461H279.315L279.64 49.1836H281.135L281.455 49.9461H282.042L280.652 46.7686H280.136ZM279.843 48.6925L280.386 47.4314L280.94 48.6925H279.843Z" fill="#005465"/>
<path d="M285.149 47.7972V47.7879C285.155 47.5351 285.061 47.2902 284.887 47.1066C284.636 46.8863 284.309 46.773 283.975 46.7909H282.566V49.9463H283.12V48.8385H283.815L284.592 49.9463H285.245L284.392 48.7517C284.611 48.7071 284.806 48.5869 284.945 48.4123C285.083 48.2377 285.156 48.0199 285.149 47.7972ZM283.118 48.3511V47.2931H283.925C284.337 47.2931 284.581 47.4777 284.581 47.8156C284.581 48.135 284.328 48.3418 283.931 48.3418L283.118 48.3511Z" fill="#005465"/>
<path d="M287.049 46.7686L285.658 49.9461H286.227L286.552 49.1836H288.047L288.367 49.9461H288.954L287.564 46.7686H287.049ZM286.755 48.6925L287.298 47.4314L287.852 48.6925H286.755Z" fill="#005465"/>
<path d="M291.484 48.2977C291.62 48.239 291.736 48.1409 291.817 48.0159C291.898 47.8909 291.939 47.7448 291.936 47.5961V47.5869C291.939 47.4898 291.921 47.3933 291.885 47.3033C291.848 47.2134 291.793 47.132 291.724 47.0644C291.611 46.9655 291.48 46.8899 291.338 46.8418C291.196 46.7936 291.046 46.7739 290.897 46.7837H289.48V49.9391H290.945C291.648 49.9391 292.113 49.6363 292.113 49.0732V49.064C292.112 48.6448 291.855 48.4325 291.484 48.2977ZM290.034 47.2822H290.834C291.19 47.2822 291.388 47.4355 291.388 47.6829V47.6921C291.388 47.982 291.148 48.1205 290.791 48.1205H290.034V47.2822ZM291.565 49.0233C291.565 49.3058 291.336 49.4554 290.956 49.4554H290.033V48.5894H290.913C291.351 48.5894 291.563 48.7482 291.563 49.0141L291.565 49.0233Z" fill="#005465"/>
<path d="M293.357 46.79H292.801V49.9455H293.357V46.79Z" fill="#005465"/>
<path d="M295.792 46.7686H295.277L293.887 49.9461H294.455L294.78 49.1836H296.276L296.595 49.9461H297.182L295.792 46.7686ZM294.983 48.6925L295.526 47.4314L296.08 48.6925H294.983Z" fill="#005465"/>
</g>
<defs>
<clipPath id="clip0_15950_40841">
<rect width="68.76" height="46" fill="white" transform="translate(229.871 4)"/>
</clipPath>
</defs>
</svg>
