<svg width="60" height="60" viewBox="0 0 60 60" fill="none" xmlns="http://www.w3.org/2000/svg">
<rect x="0.178571" y="0.178571" width="59.6429" height="59.6429" rx="29.8214" fill="white" fill-opacity="0.12"/>
<rect x="0.178571" y="0.178571" width="59.6429" height="59.6429" rx="29.8214" stroke="url(#paint0_linear_15859_41567)" stroke-width="0.357143"/>
<path fill-rule="evenodd" clip-rule="evenodd" d="M38.4368 16.5625C35.6755 16.5625 33.4368 18.8011 33.4368 21.5625C33.4368 24.3239 35.6755 26.5625 38.4368 26.5625C41.1982 26.5625 43.4368 24.3239 43.4368 21.5625C43.4368 18.8011 41.1982 16.5625 38.4368 16.5625ZM30.8278 17.8125C31.5983 17.8125 31.9836 17.8125 32.1335 18.0174C32.2832 18.2223 32.1503 18.6398 31.8845 19.4749C31.675 20.1333 31.5618 20.8347 31.5618 21.5625C31.5618 25.3595 34.6398 28.4375 38.4368 28.4375C39.1736 28.4375 39.8832 28.3216 40.5486 28.1071C41.3637 27.8443 41.7713 27.7129 41.9768 27.8621C42.1823 28.0113 42.1833 28.3863 42.1856 29.1363C42.186 29.2875 42.1863 29.4409 42.1865 29.5962L42.1868 31.2743C42.1857 33.7397 42.1707 35.7057 41.9611 37.265C41.7297 38.9858 41.246 40.3511 40.1732 41.4239C39.1005 42.4966 37.7351 42.9804 36.0143 43.2118C34.575 43.4053 32.7891 43.4329 30.5838 43.4368H28.1649C25.9596 43.4329 24.1737 43.4053 22.7344 43.2118C21.0136 42.9804 19.6482 42.4966 18.5755 41.4239C17.5027 40.3511 17.0189 38.9858 16.7876 37.265C16.5941 35.8256 16.5664 34.0398 16.5625 31.8345V29.4155C16.5664 27.2102 16.5941 25.4244 16.7876 23.985C17.0189 22.2642 17.5027 20.8989 18.5755 19.8261C19.6482 18.7534 21.0136 18.2696 22.7344 18.0382C24.4136 17.8125 26.5645 17.8125 29.3028 17.8125H30.8278ZM33.7493 34.0625H23.7493C23.2316 34.0625 22.8118 34.4823 22.8118 35C22.8118 35.5178 23.2316 35.9375 23.7493 35.9375H33.7493C34.2671 35.9375 34.6868 35.5178 34.6868 35C34.6868 34.4823 34.2671 34.0625 33.7493 34.0625ZM28.7493 27.8125H23.7493C23.2316 27.8125 22.8118 28.2323 22.8118 28.75C22.8118 29.2678 23.2316 29.6875 23.7493 29.6875H28.7493C29.2671 29.6875 29.6868 29.2678 29.6868 28.75C29.6868 28.2323 29.2671 27.8125 28.7493 27.8125Z" fill="white"/>
<defs>
<linearGradient id="paint0_linear_15859_41567" x1="16.0714" y1="2.67857" x2="42.1429" y2="57.5" gradientUnits="userSpaceOnUse">
<stop stop-color="white" stop-opacity="0.2"/>
<stop offset="1" stop-color="white" stop-opacity="0.5"/>
</linearGradient>
</defs>
</svg>
