<svg width="40" height="40" viewBox="0 0 40 40" fill="none" xmlns="http://www.w3.org/2000/svg">
<rect width="40" height="40" rx="20" fill="white" fill-opacity="0.1"/>
<rect x="0.333333" y="0.333333" width="39.3333" height="39.3333" rx="19.6667" stroke="white" stroke-opacity="0.5" stroke-width="0.666667"/>
<path d="M19.9987 20.0013C22.2999 20.0013 24.1654 18.1358 24.1654 15.8346C24.1654 13.5334 22.2999 11.668 19.9987 11.668C17.6975 11.668 15.832 13.5334 15.832 15.8346C15.832 18.1358 17.6975 20.0013 19.9987 20.0013Z" fill="white"/>
<path d="M20.0008 22.082C15.8258 22.082 12.4258 24.882 12.4258 28.332C12.4258 28.5654 12.6091 28.7487 12.8424 28.7487H27.1591C27.3924 28.7487 27.5758 28.5654 27.5758 28.332C27.5758 24.882 24.1758 22.082 20.0008 22.082Z" fill="white"/>
</svg>
