<svg width="118" height="118" viewBox="0 0 118 118" fill="none" xmlns="http://www.w3.org/2000/svg">
  <rect x="0.802734" y="0.637695" width="116.392" height="116.392" rx="58.1961" stroke="url(#paint0_linear_15859_41936)"/>
  
  <!-- Scaled inner icon -->
  <g transform="scale(1.4) translate(-17, -17)">
    <path d="M59.0001 64.168C46.0576 64.168 35.5176 72.848 35.5176 83.543C35.5176 84.2663 36.0859 84.8346 36.8092 84.8346H81.1909C81.9142 84.8346 82.4826 84.2663 82.4826 83.543C82.4826 72.848 71.9426 64.168 59.0001 64.168Z" fill="#824B97"/>
    <path d="M59.0007 33.168C55.9523 33.168 53.1623 34.2271 50.9407 36.0096C47.9698 38.3605 46.084 42.003 46.084 46.0846C46.084 48.513 46.7557 50.7863 47.9698 52.7238C50.1915 56.4696 54.2732 59.0013 59.0007 59.0013C62.2557 59.0013 65.2265 57.813 67.4998 55.7721C68.5073 54.9196 69.3857 53.8863 70.0573 52.7238C71.2457 50.7863 71.9173 48.513 71.9173 46.0846C71.9173 38.9546 66.1307 33.168 59.0007 33.168ZM65.6915 44.6896L58.794 51.0446C58.329 51.4838 57.7348 51.6905 57.1407 51.6905C56.5207 51.6905 55.9007 51.458 55.4357 50.993L52.2582 47.7896C51.3023 46.8338 51.3023 45.3096 52.2582 44.3538C53.214 43.398 54.7382 43.398 55.694 44.3538L57.2182 45.878L62.4107 41.0988C63.3923 40.1946 64.9165 40.2463 65.8207 41.228C66.7248 42.2355 66.6732 43.7855 65.6915 44.6896Z" fill="#824B97"/>
  </g>

  <defs>
    <linearGradient id="paint0_linear_15859_41936" x1="58.9988" y1="0.637695" x2="71.498" y2="117.501" gradientUnits="userSpaceOnUse">
      <stop stop-color="#CDE4E3" stop-opacity="0.3"/>
      <stop offset="1" stop-color="#CDE4E3"/>
    </linearGradient>
  </defs>
</svg>
