<svg width="40" height="40" viewBox="0 0 40 40" fill="none" xmlns="http://www.w3.org/2000/svg">
<rect x="0.333333" y="0.333333" width="39.3333" height="39.3333" rx="19.6667" fill="#00778E" fill-opacity="0.1"/>
<rect x="0.333333" y="0.333333" width="39.3333" height="39.3333" rx="19.6667" stroke="#00778E" stroke-width="0.666667"/>
<path d="M20.0007 20.0003C22.3018 20.0003 24.1673 18.1348 24.1673 15.8337C24.1673 13.5325 22.3018 11.667 20.0007 11.667C17.6995 11.667 15.834 13.5325 15.834 15.8337C15.834 18.1348 17.6995 20.0003 20.0007 20.0003Z" fill="#00778E"/>
<path d="M20.0008 22.083C15.8258 22.083 12.4258 24.883 12.4258 28.333C12.4258 28.5663 12.6091 28.7497 12.8424 28.7497H27.1591C27.3924 28.7497 27.5758 28.5663 27.5758 28.333C27.5758 24.883 24.1758 22.083 20.0008 22.083Z" fill="#00778E"/>
</svg>
