<svg width="32" height="32" viewBox="0 0 32 32" fill="none" xmlns="http://www.w3.org/2000/svg">
<path fill-rule="evenodd" clip-rule="evenodd" d="M7.45953 28.042L8.70342 27.3239C8.82897 27.2515 8.97809 27.232 9.11802 27.2696L17.2852 29.4562C18.3146 29.7321 19.2883 29.6075 20.1985 29.0472C23.9514 26.7368 27.705 24.4271 31.4579 22.1163C32.0287 21.7649 32.1026 20.805 31.7644 20.26C31.0184 19.058 28.9522 20.0586 28.0936 20.5587L21.8893 24.1724C20.9237 24.7347 19.8588 24.9053 18.7601 24.7204C17.0638 24.4446 15.48 23.9389 13.8317 23.4972C13.692 23.4584 13.5733 23.3661 13.5013 23.2403C13.4294 23.1145 13.41 22.9654 13.4474 22.8254C13.4848 22.6854 13.576 22.5658 13.7011 22.4926C13.8262 22.4195 13.9752 22.3987 14.1155 22.4348C15.4574 22.7942 16.7873 23.2264 18.1476 23.5076C18.8386 23.5922 19.4088 23.3742 19.6005 22.6585C19.7745 22.0092 19.365 21.3973 18.7517 21.1848C16.8885 20.8437 15.0801 20.19 13.6581 19.6759C11.5971 18.9308 11.046 18.7587 9.01417 19.935L4.38749 22.6137L7.45953 28.042ZM2.4553 21.429L7.57336 30.4723C7.67136 30.6458 7.60775 30.8704 7.43458 30.9684C6.86809 31.2989 6.24398 31.6098 5.69345 31.9539C5.51981 32.0519 5.29528 31.9883 5.19728 31.8151L0.0794193 22.7722C-0.0187108 22.5987 0.0449573 22.3736 0.218065 22.2756L1.95919 21.2902C2.13276 21.1922 2.3573 21.2558 2.4553 21.429ZM2.46408 23.0386C2.45228 22.9578 2.42468 22.8802 2.38287 22.8101C2.34106 22.74 2.28585 22.6788 2.2204 22.6301C2.15494 22.5813 2.08052 22.5459 2.00139 22.5259C1.92226 22.5059 1.83996 22.5017 1.75921 22.5136C1.67845 22.5254 1.6008 22.5529 1.53071 22.5948C1.46061 22.6366 1.39944 22.6918 1.35068 22.7572C1.30193 22.8227 1.26654 22.8971 1.24655 22.9762C1.22655 23.0554 1.22235 23.1377 1.23416 23.2184C1.24477 23.3002 1.27155 23.3791 1.31294 23.4504C1.35433 23.5217 1.4095 23.5841 1.47524 23.6339C1.54098 23.6837 1.61598 23.7199 1.69585 23.7405C1.77573 23.761 1.85889 23.7654 1.9405 23.7535C2.0221 23.7416 2.10052 23.7135 2.17117 23.671C2.24183 23.6284 2.30331 23.5723 2.35204 23.5057C2.40077 23.4392 2.43578 23.3636 2.45501 23.2834C2.47424 23.2032 2.47733 23.12 2.46408 23.0386ZM13.8871 4.3758V11.4905H11.7321V4.3758H10.7929C10.5272 4.3758 10.3689 4.08168 10.5153 3.85994L12.532 0.8046C12.6633 0.605678 12.9559 0.605678 13.0872 0.8046L15.104 3.85994C15.2503 4.08168 15.092 4.3758 14.8263 4.3758H13.8871ZM21.3928 7.82126C24.5502 7.82126 27.1098 10.3808 27.1098 13.5383C27.1098 16.6957 24.5502 19.2553 21.3928 19.2553C18.2354 19.2553 15.6758 16.6957 15.6758 13.5383C15.6758 10.3809 18.2354 7.82126 21.3928 7.82126ZM23.5666 11.5957C23.2684 10.8857 22.6763 10.406 21.925 10.25V9.92051C21.925 9.77936 21.8689 9.64398 21.7691 9.54417C21.6693 9.44436 21.5339 9.38828 21.3928 9.38828C21.2516 9.38828 21.1163 9.44436 21.0164 9.54417C20.9166 9.64398 20.8606 9.77936 20.8606 9.92051V10.2578C19.9146 10.4652 19.1699 11.2013 19.2193 12.2185C19.2763 13.3933 20.29 13.8737 21.3128 14.0416C21.8657 14.1323 22.6804 14.3239 22.6963 15.0203C22.7101 15.6035 21.9241 15.8061 21.455 15.8172C20.867 15.8312 20.2284 15.5673 20.0743 14.9492C20.0388 14.8145 19.9518 14.6991 19.832 14.6279C19.7122 14.5567 19.5693 14.5355 19.434 14.5688C19.2987 14.6021 19.1819 14.6872 19.1087 14.8058C19.0356 14.9244 19.0121 15.067 19.0431 15.2028C19.2647 16.0917 19.9862 16.6582 20.8605 16.8263V17.1559C20.8605 17.297 20.9166 17.4324 21.0164 17.5322C21.1162 17.632 21.2516 17.6881 21.3927 17.6881C21.5339 17.6881 21.6693 17.632 21.7691 17.5322C21.8689 17.4324 21.925 17.297 21.925 17.1559V16.8366C22.8854 16.6761 23.782 16.0669 23.7566 14.9953C23.7254 13.6884 22.6135 13.1792 21.4832 12.9937C21.0188 12.9174 20.3076 12.7471 20.2796 12.1685C20.2555 11.6734 20.67 11.377 21.1108 11.2883C21.7164 11.1663 22.3366 11.4151 22.5853 12.0073C22.6123 12.0717 22.6517 12.1302 22.7014 12.1794C22.751 12.2285 22.8098 12.2675 22.8745 12.2939C22.9392 12.3204 23.0084 12.3338 23.0783 12.3335C23.1482 12.3332 23.2173 12.3191 23.2817 12.2921C23.3462 12.2651 23.4047 12.2256 23.4539 12.176C23.503 12.1264 23.542 12.0676 23.5684 12.0029C23.5949 11.9382 23.6083 11.869 23.608 11.7991C23.6077 11.7292 23.5936 11.6601 23.5666 11.5957ZM30.587 3.77325H21.913C21.154 3.77325 20.533 3.15227 20.533 2.39324V1.38001C20.533 0.62098 21.154 0 21.913 0H30.587C31.346 0 31.967 0.62098 31.967 1.38001V2.39317C31.967 3.1522 31.346 3.77325 30.587 3.77325ZM30.587 12.7188H28.1248C28.1572 12.9875 28.1743 13.2609 28.1743 13.5383C28.1743 14.597 27.9314 15.5991 27.4986 16.492H30.587C31.346 16.492 31.967 15.871 31.967 15.112V14.0988C31.967 13.3398 31.346 12.7188 30.587 12.7188ZM30.587 12.2523C31.346 12.2523 31.967 11.6314 31.967 10.8723V9.85917C31.967 9.10015 31.346 8.47917 30.587 8.47917H25.9079C26.9942 9.44955 27.7663 10.7645 28.052 12.2523H30.587ZM30.587 4.23962H21.913C21.154 4.23962 20.533 4.8606 20.533 5.61962V6.63279C20.533 6.69267 20.5368 6.75168 20.5443 6.80956C20.8223 6.77483 21.1055 6.7568 21.3928 6.7568C22.8586 6.7568 24.2158 7.22197 25.3248 8.0128H30.587C31.346 8.0128 31.967 7.39182 31.967 6.63279V5.61962C31.967 4.8606 31.346 4.23962 30.587 4.23962Z" fill="#00778E"/>
</svg>