<svg width="60" height="60" viewBox="0 0 60 60" fill="none" xmlns="http://www.w3.org/2000/svg">
<path d="M20 1H40C50.4934 1 59 9.50659 59 20V40C59 50.4934 50.4934 59 40 59H20C9.50659 59 1 50.4934 1 40V20C1 9.50659 9.50659 1 20 1Z" fill="#CFD6DC"/>
<path d="M20 1H40C50.4934 1 59 9.50659 59 20V40C59 50.4934 50.4934 59 40 59H20C9.50659 59 1 50.4934 1 40V20C1 9.50659 9.50659 1 20 1Z" stroke="white" stroke-width="2"/>
<path d="M26.25 17.5C22.975 17.5 20.3125 20.1625 20.3125 23.4375C20.3125 26.65 22.825 29.25 26.1 29.3625C26.2 29.35 26.3 29.35 26.375 29.3625C26.4 29.3625 26.4125 29.3625 26.4375 29.3625C26.45 29.3625 26.45 29.3625 26.4625 29.3625C29.6625 29.25 32.175 26.65 32.1875 23.4375C32.1875 20.1625 29.525 17.5 26.25 17.5Z" fill="#6C7C89"/>
<path d="M32.5992 32.6891C29.1117 30.3641 23.4242 30.3641 19.9117 32.6891C18.3242 33.7516 17.4492 35.1891 17.4492 36.7266C17.4492 38.2641 18.3242 39.6891 19.8992 40.7391C21.6492 41.9141 23.9492 42.5016 26.2492 42.5016C28.5492 42.5016 30.8492 41.9141 32.5992 40.7391C34.1742 39.6766 35.0492 38.2516 35.0492 36.7016C35.0367 35.1641 34.1742 33.7391 32.5992 32.6891Z" fill="#6C7C89"/>
<path d="M39.9867 24.1746C40.1867 26.5996 38.4617 28.7246 36.0742 29.0121C36.0617 29.0121 36.0617 29.0121 36.0492 29.0121H36.0117C35.9367 29.0121 35.8617 29.0121 35.7992 29.0371C34.5867 29.0996 33.4742 28.7121 32.6367 27.9996C33.9242 26.8496 34.6617 25.1246 34.5117 23.2496C34.4242 22.2371 34.0742 21.3121 33.5492 20.5246C34.0242 20.2871 34.5742 20.1371 35.1367 20.0871C37.5867 19.8746 39.7742 21.6996 39.9867 24.1746Z" fill="#6C7C89"/>
<path d="M42.4883 35.738C42.3883 36.9505 41.6133 38.0005 40.3133 38.713C39.0633 39.4005 37.4883 39.7255 35.9258 39.688C36.8258 38.8755 37.3508 37.863 37.4508 36.788C37.5758 35.238 36.8383 33.7505 35.3633 32.563C34.5258 31.9005 33.5508 31.3755 32.4883 30.988C35.2508 30.188 38.7258 30.7255 40.8633 32.4505C42.0133 33.3755 42.6008 34.538 42.4883 35.738Z" fill="#6C7C89"/>
</svg>
