<svg width="32" height="32" viewBox="0 0 32 32" fill="none" xmlns="http://www.w3.org/2000/svg">
<path fill-rule="evenodd" clip-rule="evenodd" d="M15.9948 0.773438C15.2 0.773438 14.5526 1.10778 13.9633 1.55828C13.4108 1.97903 12.8017 2.58817 12.0891 3.30075L12.0395 3.35035C11.3099 4.07993 10.6738 4.36608 9.69346 4.36608C9.57021 4.36608 9.41577 4.36183 9.2401 4.35758C8.79102 4.34483 8.2102 4.32784 7.70162 4.37176C6.95787 4.43692 6.02853 4.63953 5.32303 5.3507C4.6232 6.05761 4.42489 6.98269 4.36256 7.72078C4.32006 8.22511 4.33701 8.80173 4.34976 9.24798C4.35401 9.42365 4.35827 9.57795 4.35827 9.7012C4.35827 10.6815 4.07212 11.3177 3.34253 12.0473L3.29294 12.0968C2.58035 12.8094 1.97121 13.4186 1.55046 13.9711C1.09996 14.5605 0.765625 15.2079 0.765625 16.0026C0.765625 16.7974 1.09996 17.4447 1.55046 18.0341C1.97121 18.5866 2.58035 19.1958 3.29294 19.9084L3.34253 19.9579C3.8157 20.4311 4.03816 20.7371 4.16424 21.0261C4.28749 21.308 4.35827 21.6651 4.35827 22.304C4.35827 22.4273 4.35401 22.5816 4.34976 22.7572C4.33701 23.2063 4.32003 23.7872 4.36394 24.2958C4.42911 25.0395 4.63172 25.9689 5.34288 26.6744C6.0498 27.3742 6.97488 27.5726 7.71296 27.6349C8.2173 27.6774 8.79385 27.6604 9.2401 27.6476C9.41577 27.6434 9.57021 27.6391 9.69346 27.6391C10.3182 27.6391 10.6695 27.7014 10.9458 27.8161C11.222 27.9295 11.5181 28.1335 11.963 28.5783C12.0579 28.6732 12.184 28.8079 12.3285 28.9637C12.6543 29.3122 13.0779 29.7655 13.4732 30.1125C14.0738 30.6367 14.9351 31.2318 15.9948 31.2318C17.0545 31.2318 17.9158 30.6367 18.5164 30.1125C18.9117 29.7655 19.3353 29.3122 19.6611 28.9637C19.8056 28.8079 19.9317 28.6732 20.0266 28.5783C20.4715 28.1335 20.7676 27.9295 21.0438 27.8161C21.3201 27.7014 21.6714 27.6391 22.2961 27.6391C22.4194 27.6391 22.5738 27.6434 22.7495 27.6476C23.1957 27.6604 23.7723 27.6774 24.2766 27.6349C25.0147 27.5726 25.9398 27.3742 26.6467 26.6744C27.3579 25.9689 27.5605 25.0395 27.6256 24.2958C27.6696 23.7872 27.6526 23.2063 27.6398 22.7572C27.6356 22.5816 27.6313 22.4258 27.6313 22.304C27.6313 21.6651 27.7021 21.308 27.8253 21.0261C27.9514 20.7371 28.1739 20.4311 28.647 19.9579L28.6966 19.9084C29.4092 19.1958 30.0184 18.5866 30.4391 18.0341C30.8896 17.4447 31.224 16.7974 31.224 16.0026C31.224 15.2079 30.8896 14.5605 30.4391 13.9711C30.0184 13.4186 29.4092 12.8094 28.6966 12.0968L28.647 12.0473C28.1739 11.5741 27.9514 11.2681 27.8253 10.9791C27.7021 10.6972 27.6313 10.3401 27.6313 9.7012C27.6313 9.57795 27.6356 9.42362 27.6398 9.24936C27.6526 8.79887 27.6696 8.21802 27.6256 7.70943C27.5605 6.96568 27.3579 6.03634 26.6467 5.33084C25.9398 4.63101 25.0147 4.43271 24.2766 4.37037C23.7723 4.32787 23.1957 4.34483 22.7495 4.35758C22.5738 4.36183 22.418 4.36608 22.2961 4.36608C21.3144 4.36608 20.6797 4.07993 19.9501 3.35035L19.9005 3.30075C19.1879 2.58817 18.5788 1.97903 18.0263 1.55828C17.4369 1.10778 16.7895 0.773438 15.9948 0.773438ZM21.33 13.3718C21.8329 12.7726 21.755 11.8801 21.1557 11.3757C20.5565 10.8728 19.6639 10.9508 19.1596 11.5501L14.1489 17.5156L12.6883 16.2108C12.1046 15.6895 11.2093 15.7405 10.688 16.3241C10.1666 16.9078 10.2176 17.8031 10.8013 18.3245L13.3513 20.6011C13.6374 20.8561 14.0143 20.985 14.3968 20.9566C14.7779 20.9297 15.1335 20.7484 15.38 20.4551L21.33 13.3718Z" fill="#24AB6E"/>
</svg>
