<svg width="80" height="47" viewBox="0 0 80 47" fill="none" xmlns="http://www.w3.org/2000/svg">
<rect x="0.570312" y="0.0351562" width="78.8571" height="46" rx="6.57143" fill="#F2F4F7"/>
<g clip-path="url(#clip0_648_35944)">
<path fill-rule="evenodd" clip-rule="evenodd" d="M34.9312 17.3733C35.0675 17.1006 35.277 16.8712 35.5362 16.7108C35.7955 16.5503 36.0942 16.4652 36.3991 16.4648H43.5981C43.9033 16.4649 44.2024 16.5499 44.462 16.7103C44.7215 16.8708 44.9313 17.1004 45.0677 17.3733L47.9525 23.1439C48.1238 23.4856 48.2132 23.8624 48.2137 24.2446V28.7863C48.2137 29.222 48.0406 29.6399 47.7325 29.9479C47.4245 30.256 47.0066 30.4291 46.5709 30.4291H33.428C32.9923 30.4291 32.5744 30.256 32.2663 29.9479C31.9582 29.6399 31.7852 29.222 31.7852 28.7863V24.2454C31.7853 23.863 31.8745 23.4859 32.0455 23.1439L34.9312 17.3733ZM43.5981 18.1077H36.3999L33.5266 23.8577H36.303C36.6298 23.8577 36.9432 23.9875 37.1743 24.2186C37.4053 24.4497 37.5352 24.7631 37.5352 25.0898V25.9113C37.5352 26.0202 37.5784 26.1247 37.6555 26.2017C37.7325 26.2787 37.8369 26.322 37.9459 26.322H42.053C42.1619 26.322 42.2664 26.2787 42.3434 26.2017C42.4205 26.1247 42.4637 26.0202 42.4637 25.9113V25.0898C42.4637 24.7631 42.5935 24.4497 42.8246 24.2186C43.0557 23.9875 43.3691 23.8577 43.6959 23.8577H46.4723L43.5981 18.1077Z" fill="#98A0B4"/>
</g>
<defs>
<clipPath id="clip0_648_35944">
<rect width="19.7143" height="19.7143" fill="white" transform="translate(30.1406 13.1797)"/>
</clipPath>
</defs>
</svg>
