<svg width="60" height="60" viewBox="0 0 60 60" fill="none" xmlns="http://www.w3.org/2000/svg">
<path d="M0 30C0 13.4315 13.4315 0 30 0C46.5685 0 60 13.4315 60 30C60 46.5685 46.5685 60 30 60C13.4315 60 0 46.5685 0 30Z" fill="black" fill-opacity="0.1"/>
<path d="M30 0.375C46.3614 0.375 59.625 13.6386 59.625 30C59.625 46.3614 46.3614 59.625 30 59.625C13.6386 59.625 0.375 46.3614 0.375 30C0.375 13.6386 13.6386 0.375 30 0.375Z" stroke="white" stroke-opacity="0.5" stroke-width="0.75"/>
<path d="M34.0537 40.6289C37.1896 38.9315 41.1454 38.9314 44.2812 40.6289C44.3598 40.6714 44.4638 40.7247 44.5859 40.7871C45.1698 41.0855 46.1743 41.5984 46.8594 42.208C47.2793 42.5816 47.8031 43.1777 47.9014 43.9951C48.0113 44.9104 47.5503 45.6746 46.8916 46.2451C45.8476 47.1493 44.5429 47.917 42.8418 47.917H35.4932C33.7921 47.917 32.4874 47.1493 31.4434 46.2451C30.7847 45.6746 30.3236 44.9104 30.4336 43.9951C30.5319 43.1776 31.0557 42.5816 31.4756 42.208C32.1607 41.5984 33.1652 41.0855 33.749 40.7871C33.8712 40.7247 33.9752 40.6714 34.0537 40.6289ZM16.667 33.75C17.3573 33.75 17.917 34.3097 17.917 35C17.917 39.094 20.7177 42.5248 24.5107 43.4834L24.1201 42.7021C23.8114 42.0847 24.0622 41.3332 24.6797 41.0244C25.2971 40.716 26.0478 40.9667 26.3564 41.584L27.7852 44.4414C27.9787 44.8288 27.9581 45.2888 27.7305 45.6572C27.5027 46.0257 27.1002 46.25 26.667 46.25C20.4481 46.25 15.417 41.2189 15.417 35C15.417 34.3096 15.9766 33.75 16.667 33.75ZM39.167 28.75C41.9402 28.75 44.167 31.0176 44.167 33.7881C44.1669 36.5585 41.9402 38.8262 39.167 38.8262C36.394 38.8259 34.1671 36.5583 34.167 33.7881C34.167 31.0178 36.394 28.7502 39.167 28.75ZM15.7207 23.9629C18.8566 22.2654 22.8124 22.2654 25.9482 23.9629C26.0266 24.0053 26.1302 24.0579 26.252 24.1201C26.8357 24.4185 27.8402 24.9323 28.5254 25.542C28.9453 25.9156 29.47 26.5107 29.5684 27.3281C29.6784 28.2434 29.2173 29.0086 28.5586 29.5791C27.5147 30.4832 26.2096 31.2499 24.5088 31.25H17.1602C15.4591 31.25 14.1534 30.4833 13.1094 29.5791C12.4506 29.0086 11.9896 28.2434 12.0996 27.3281C12.1979 26.5108 12.7227 25.9156 13.1426 25.542C13.8277 24.9323 14.8322 24.4185 15.416 24.1201L15.7207 23.9629ZM33.334 13.75C39.5527 13.7502 44.584 18.7812 44.584 25C44.584 25.6902 44.0242 26.2498 43.334 26.25C42.6436 26.25 42.084 25.6904 42.084 25C42.084 20.906 39.2824 17.4751 35.4893 16.5166L35.8799 17.2979C36.1886 17.9153 35.9388 18.6668 35.3213 18.9756C34.7038 19.2842 33.9533 19.0334 33.6445 18.416L32.2158 15.5586C32.0222 15.1712 32.0428 14.7112 32.2705 14.3428C32.4983 13.9743 32.9008 13.75 33.334 13.75ZM20.834 12.083C23.6072 12.083 25.8339 14.3507 25.834 17.1211C25.834 19.8916 23.6072 22.1592 20.834 22.1592C18.0608 22.1591 15.834 19.8915 15.834 17.1211C15.834 14.3507 18.0608 12.0831 20.834 12.083Z" fill="white"/>
</svg>
