<svg width="50" height="50" viewBox="0 0 50 50" fill="none" xmlns="http://www.w3.org/2000/svg">
<rect width="50" height="50" rx="25" fill="white" fill-opacity="0.1"/>
<rect x="0.5" y="0.5" width="49" height="49" rx="24.5" stroke="white" stroke-opacity="0.5"/>
<path d="M15.5195 25.0002C15.5195 25.4049 15.699 25.7803 15.8689 26.0622C16.0523 26.3665 16.2989 26.6806 16.5695 26.9868C17.1122 27.6011 17.8204 28.2608 18.5076 28.8576C19.1989 29.4579 19.8878 30.0106 20.4024 30.4123C20.6601 30.6135 20.8751 30.7775 21.0262 30.8916C21.1017 30.9487 21.1613 30.9933 21.2022 31.0238L21.2494 31.0589L21.262 31.0682L21.2663 31.0714C21.6276 31.3375 22.1367 31.2607 22.4028 30.8994C22.669 30.5381 22.5918 30.0295 22.2306 29.7634L22.2168 29.7532L22.1734 29.7209C22.135 29.6923 22.0782 29.6498 22.0057 29.595C21.8605 29.4853 21.6523 29.3265 21.4022 29.1313C20.9012 28.7403 20.236 28.2063 19.5731 27.6307C18.9062 27.0515 18.2602 26.4461 17.7873 25.9109C17.7574 25.877 17.7284 25.8438 17.7005 25.8111L33.6654 25.8111C34.1141 25.8111 34.4779 25.4473 34.4779 24.9986C34.4779 24.5499 34.1141 24.1861 33.6654 24.1861L17.7032 24.1861C17.7303 24.1544 17.7584 24.1222 17.7873 24.0895C18.2602 23.5543 18.9062 22.9489 19.5731 22.3697C20.236 21.7941 20.9012 21.2601 21.4022 20.8691C21.6523 20.6739 21.8605 20.5151 22.0057 20.4054C22.0782 20.3505 22.135 20.308 22.1734 20.2794L22.2168 20.2472L22.2306 20.237C22.5918 19.9708 22.669 19.4622 22.4028 19.101C22.1367 18.7397 21.6276 18.6629 21.2663 18.929L21.262 18.9322L21.2494 18.9415L21.2022 18.9766C21.1613 19.0071 21.1017 19.0517 21.0262 19.1088C20.8751 19.2229 20.6601 19.3869 20.4024 19.5881C19.8878 19.9898 19.1989 20.5425 18.5076 21.1428C17.8204 21.7395 17.1122 22.3993 16.5695 23.0136C16.2989 23.3198 16.0523 23.6339 15.8689 23.9381C15.7 24.2184 15.5217 24.591 15.5195 24.9929" fill="white"/>
</svg>
