<svg width="28" height="28" viewBox="0 0 28 28" fill="none" xmlns="http://www.w3.org/2000/svg">
<rect x="0.583333" y="0.583333" width="26.8333" height="26.8333" rx="6.41667" fill="#00778E"/>
<rect x="0.583333" y="0.583333" width="26.8333" height="26.8333" rx="6.41667" stroke="#00778E" stroke-width="1.16667"/>
<path d="M10.6875 19.0073C10.6875 19.0073 10.6815 19.0073 10.6789 19.0073C10.4482 19.0038 10.2366 18.8798 10.123 18.6795C8.6678 16.1333 7.66353 15.9906 7.65226 15.9889C7.65226 15.9889 7.42866 16.0414 7.19824 15.7992C6.96782 15.557 7.00176 15.2809 7.00176 15.2809C7.00176 15.2809 7.01531 15.0302 7.19824 14.8507C7.38117 14.6712 7.65226 14.6712 7.65226 14.6712C7.90375 14.6712 9.12739 14.8012 10.6953 17.1332C12.115 14.9703 15.9542 9.54848 19.567 8.20775C19.9035 8.08287 20.2782 8.25458 20.4031 8.59106C20.5279 8.92754 20.3562 9.30219 20.0198 9.42707C15.9976 10.9196 11.2911 18.6161 11.2434 18.6942C11.1255 18.8885 10.9148 19.0073 10.6875 19.0073Z" fill="white" stroke="white" stroke-width="1.48667"/>
</svg>
