<svg width="61" height="60" viewBox="0 0 61 60" fill="none" xmlns="http://www.w3.org/2000/svg">
<path d="M0.5 30C0.5 13.4315 13.9315 0 30.5 0C47.0685 0 60.5 13.4315 60.5 30C60.5 46.5685 47.0685 60 30.5 60C13.9315 60 0.5 46.5685 0.5 30Z" fill="white" fill-opacity="0.1"/>
<path d="M30.5 1.2002C46.4058 1.2002 59.2998 14.0942 59.2998 30C59.2998 45.9058 46.4058 58.7998 30.5 58.7998C14.5942 58.7998 1.7002 45.9058 1.7002 30C1.7002 14.0942 14.5942 1.2002 30.5 1.2002Z" stroke="white" stroke-opacity="0.5" stroke-width="2.4"/>
<path d="M38 17.5H23C20.925 17.5 19.25 19.1625 19.25 21.2125V34.85C19.25 36.9 20.925 38.575 23 38.575H23.95C24.9375 38.575 25.9 38.9625 26.6 39.6625L28.7375 41.775C29.7125 42.7375 31.2875 42.7375 32.2625 41.775L34.4 39.6625C35.1 38.9625 36.0625 38.575 37.05 38.575H38C40.075 38.575 41.75 36.9 41.75 34.85V21.2125C41.75 19.1625 40.075 17.5 38 17.5ZM30.5 21.9375C31.85 21.9375 32.9375 23.0375 32.9375 24.375C32.9375 25.7 31.8875 26.7625 30.5875 26.8125C30.5375 26.8125 30.4625 26.8125 30.4 26.8125C29.0875 26.7625 28.05 25.7 28.05 24.375C28.0625 23.0375 29.15 21.9375 30.5 21.9375ZM33.9375 33.3625C32.05 34.625 28.95 34.625 27.0625 33.3625C25.4 32.2625 25.4 30.4375 27.0625 29.325C28.9625 28.0625 32.0625 28.0625 33.9375 29.325C35.6 30.4375 35.6 32.25 33.9375 33.3625Z" fill="white"/>
</svg>
