<svg width="34" height="34" viewBox="0 0 34 34" fill="none" xmlns="http://www.w3.org/2000/svg">
<rect x="0.75" y="0.75" width="32.5" height="32.5" rx="3.25" stroke="#F04438" stroke-width="1.5"/>
<path d="M23.3281 10.1094H20.6914V9.58203C20.6914 8.7097 19.9817 8 19.1094 8H14.8906C14.0183 8 13.3086 8.7097 13.3086 9.58203V10.1094H10.6719C9.79954 10.1094 9.08984 10.8191 9.08984 11.6914C9.08984 12.392 9.54775 12.9873 10.1799 13.1947L11.1205 24.5493C11.1882 25.3628 11.8807 26 12.697 26H21.303C22.1193 26 22.8118 25.3628 22.8796 24.5491L23.8201 13.1947C24.4522 12.9873 24.9102 12.392 24.9102 11.6914C24.9102 10.8191 24.2005 10.1094 23.3281 10.1094ZM14.3633 9.58203C14.3633 9.29125 14.5998 9.05469 14.8906 9.05469H19.1094C19.4002 9.05469 19.6367 9.29125 19.6367 9.58203V10.1094H14.3633V9.58203ZM21.8285 24.4618C21.8059 24.7329 21.5751 24.9453 21.303 24.9453H12.697C12.4249 24.9453 12.1941 24.7329 12.1716 24.462L11.2447 13.2734H22.7553L21.8285 24.4618ZM23.3281 12.2188H10.6719C10.3811 12.2188 10.1445 11.9822 10.1445 11.6914C10.1445 11.4006 10.3811 11.1641 10.6719 11.1641H23.3281C23.6189 11.1641 23.8555 11.4006 23.8555 11.6914C23.8555 11.9822 23.6189 12.2188 23.3281 12.2188Z" fill="#F04438"/>
<path d="M14.8896 23.3307L14.3623 14.8229C14.3443 14.5322 14.0927 14.3111 13.8034 14.3292C13.5126 14.3472 13.2916 14.5974 13.3096 14.8881L13.837 23.396C13.8543 23.6756 14.0865 23.8907 14.3628 23.8907C14.6682 23.8907 14.9084 23.6335 14.8896 23.3307ZM17 14.3282C16.7088 14.3282 16.4727 14.5643 16.4727 14.8555V23.3633C16.4727 23.6546 16.7088 23.8907 17 23.8907C17.2913 23.8907 17.5274 23.6546 17.5274 23.3633V14.8555C17.5274 14.5643 17.2913 14.3282 17 14.3282ZM20.1967 14.3292C19.9067 14.3112 19.6557 14.5322 19.6377 14.8229L19.1104 23.3307C19.0924 23.6214 19.3135 23.8716 19.6041 23.8897C19.895 23.9077 20.1451 23.6865 20.1631 23.396L20.6904 14.8881C20.7084 14.5974 20.4874 14.3472 20.1967 14.3292Z" fill="#F04438"/>
</svg>
