<svg width="34" height="34" viewBox="0 0 34 34" fill="none" xmlns="http://www.w3.org/2000/svg">
<rect x="0.75" y="0.75" width="32.5" height="32.5" rx="3.25" stroke="#00778E" stroke-width="1.5"/>
<path d="M10.9386 22.6468H11.0307L13.4837 22.417C13.827 22.383 14.1451 22.2298 14.3879 21.983L23.6474 12.5702C24.0828 12.1277 24.3256 11.5404 24.3256 10.9191C24.3256 10.2979 24.0828 9.71064 23.6474 9.26808L23.053 8.66383C22.1823 7.77872 20.667 7.77872 19.7963 8.66383L18.6158 9.86383L10.5451 18.0681C10.3023 18.3149 10.1516 18.6383 10.1265 18.9872L9.90047 21.4809C9.87535 21.7957 9.98419 22.1021 10.2019 22.3319C10.4028 22.5362 10.6623 22.6468 10.9386 22.6468ZM21.4288 9.25106C21.6967 9.25106 21.9647 9.35319 22.1656 9.56596L22.76 10.1702C22.8578 10.268 22.9355 10.3845 22.9885 10.5131C23.0416 10.6417 23.0689 10.7797 23.0689 10.9191C23.0689 11.0586 23.0416 11.1966 22.9885 11.3252C22.9355 11.4538 22.8578 11.5703 22.76 11.6681L22.0233 12.417L19.9553 10.3149L20.6921 9.56596C20.893 9.3617 21.1609 9.25106 21.4288 9.25106ZM11.374 19.1064C11.374 19.0553 11.3991 19.0128 11.4326 18.9787L19.0595 11.217L21.1274 13.3191L13.5005 21.0723C13.5005 21.0723 13.4167 21.1319 13.3749 21.1319L11.173 21.3362L11.374 19.0979V19.1064ZM26 25.3617C26 25.7106 25.7153 26 25.3721 26H8.62791C8.28465 26 8 25.7106 8 25.3617C8 25.0128 8.28465 24.7234 8.62791 24.7234H25.3721C25.7153 24.7234 26 25.0128 26 25.3617Z" fill="#00778E"/>
</svg>
