<svg width="81" height="80" viewBox="0 0 81 80" fill="none" xmlns="http://www.w3.org/2000/svg">
<rect x="0.5" width="80" height="80" rx="40" fill="#EFF3F5"/>
<path d="M49.1693 23.209C49.1693 25.8957 46.9809 28.084 44.2943 28.084H36.7109C35.3676 28.084 34.1543 27.5423 33.2659 26.654C32.3776 25.7657 31.8359 24.5523 31.8359 23.209C31.8359 20.5223 34.0243 18.334 36.7109 18.334H44.2943C45.6376 18.334 46.8509 18.8757 47.7393 19.764C48.6276 20.6523 49.1693 21.8657 49.1693 23.209Z" fill="#00778E"/>
<path d="M55.2957 24.8969C54.7974 24.4852 54.2341 24.1602 53.6274 23.9219C52.9991 23.6836 52.3707 24.1819 52.2407 24.8319C51.5041 28.5369 48.2324 31.3319 44.2891 31.3319H36.7057C34.5391 31.3319 32.5024 30.4869 30.9641 28.9486C29.8374 27.8219 29.0574 26.3919 28.7541 24.8536C28.6241 24.2036 27.9741 23.6836 27.3457 23.9436C24.8324 24.9619 23.1641 27.2586 23.1641 31.8736V52.9986C23.1641 59.4986 27.0424 61.6653 31.8307 61.6653H49.1641C53.9524 61.6653 57.8307 59.4986 57.8307 52.9986V31.8736C57.8307 28.3419 56.8557 26.1752 55.2957 24.8969ZM31.8307 40.5402H40.4974C41.3857 40.5402 42.1224 41.2769 42.1224 42.1652C42.1224 43.0536 41.3857 43.7902 40.4974 43.7902H31.8307C30.9424 43.7902 30.2057 43.0536 30.2057 42.1652C30.2057 41.2769 30.9424 40.5402 31.8307 40.5402ZM49.1641 52.4569H31.8307C30.9424 52.4569 30.2057 51.7202 30.2057 50.8319C30.2057 49.9436 30.9424 49.2069 31.8307 49.2069H49.1641C50.0524 49.2069 50.7891 49.9436 50.7891 50.8319C50.7891 51.7202 50.0524 52.4569 49.1641 52.4569Z" fill="#00778E"/>
</svg>
