<svg width="24" height="24" viewBox="0 0 24 24" fill="none" xmlns="http://www.w3.org/2000/svg">
<path fill-rule="evenodd" clip-rule="evenodd" d="M12.9998 1.25098C16.1608 1.25098 17.903 1.25098 19.23 2.18597C19.611 2.45397 19.95 2.77397 20.24 3.13697C21.251 4.40797 21.251 6.03497 21.251 9.27397V11.819C21.251 14.8739 21.251 16.407 20.729 17.723C19.895 19.828 18.139 21.485 15.911 22.267C14.7097 22.6877 13.3248 22.742 10.8533 22.7489C10.841 22.75 10.8287 22.751 10.8163 22.752C10.8019 22.7531 10.7878 22.7519 10.7741 22.7491C10.4315 22.75 10.0683 22.75 9.68208 22.75C7.80016 22.75 6.85498 22.75 6.01699 22.456C4.65599 21.978 3.582 20.964 3.071 19.675C2.75 18.866 2.75 17.969 2.75 16.183V11.6704C2.75 11.2564 3.086 10.9204 3.5 10.9204C3.914 10.9204 4.25 11.2564 4.25 11.6704V16.183C4.25 17.7788 4.25 18.58 4.46499 19.123C4.81599 20.008 5.56301 20.708 6.51301 21.042C7.11001 21.252 7.96899 21.252 9.68096 21.252C10.0634 21.252 10.4221 21.252 10.7591 21.2512C12.0619 21.1208 13.083 20.0177 13.083 18.6811C13.083 18.5212 13.075 18.3489 13.0666 18.1667L13.0647 18.1262C13.0398 17.5816 13.0115 16.965 13.165 16.3891C13.388 15.5571 14.043 14.9021 14.875 14.6791C15.4506 14.5257 16.0659 14.5539 16.6112 14.5788L16.6511 14.5806C16.8339 14.5891 17.0067 14.5971 17.167 14.5971C18.5666 14.5971 19.7102 13.4774 19.749 12.087C19.749 11.9994 19.749 11.9105 19.749 11.8202V9.27497C19.749 6.38398 19.749 4.93297 19.064 4.07197C18.864 3.82097 18.629 3.59898 18.364 3.41398C17.465 2.78098 15.9868 2.75298 12.9978 2.75298C12.5838 2.75298 12.2478 2.41698 12.2478 2.00298C12.2478 1.58898 12.5838 1.25298 12.9978 1.25298L12.9998 1.25098ZM19.6944 15.2185C18.9986 15.7684 18.1204 16.0971 17.167 16.0971C16.9762 16.0971 16.7811 16.0884 16.5905 16.08C16.5763 16.0794 16.5621 16.0787 16.548 16.0781L16.5321 16.0774C16.0781 16.0566 15.6109 16.0352 15.263 16.1291C14.948 16.2131 14.699 16.4621 14.615 16.7771C14.5212 17.1293 14.5429 17.6018 14.5638 18.0588L14.564 18.0621C14.574 18.2661 14.583 18.4761 14.583 18.6811C14.583 19.6171 14.2663 20.4806 13.7344 21.1701C14.4126 21.1132 14.9462 21.0167 15.413 20.853C17.23 20.215 18.659 18.873 19.333 17.172C19.5375 16.6557 19.6415 16.0457 19.6944 15.2185Z" fill="#161616"/>
<path d="M5.58933 4.36028C5.39711 4.60502 5.19487 4.86213 5.03781 5.02372C4.74911 5.32074 4.27428 5.32749 3.97726 5.03879C3.68023 4.75009 3.67349 4.27526 3.96219 3.97823C4.05089 3.88698 4.19651 3.70516 4.40971 3.43374L4.45675 3.37382C4.64683 3.13167 4.8698 2.84761 5.09954 2.57648C5.34574 2.28593 5.62131 1.98413 5.89679 1.74951C6.03484 1.63194 6.19043 1.51597 6.35782 1.42639C6.51926 1.34 6.74172 1.25098 7 1.25098C7.25829 1.25098 7.48074 1.34 7.64218 1.42639C7.80957 1.51597 7.96517 1.63194 8.10321 1.74951C8.37869 1.98413 8.65426 2.28593 8.90047 2.57648C9.1302 2.8476 9.35317 3.13166 9.54324 3.3738L9.59029 3.43374C9.80349 3.70516 9.94911 3.88698 10.0378 3.97823C10.3265 4.27526 10.3198 4.75008 10.0227 5.03879C9.72572 5.32749 9.25089 5.32074 8.96219 5.02372C8.80513 4.86213 8.6029 4.60502 8.41067 4.36028L8.36595 4.30333C8.17304 4.0576 7.96675 3.79484 7.75606 3.54619L7.75 3.53905V10.001C7.75 10.4152 7.41421 10.751 7 10.751C6.58579 10.751 6.25 10.4152 6.25 10.001V3.53905L6.24394 3.54619C6.03326 3.79483 5.82698 4.05758 5.63408 4.3033L5.58933 4.36028Z" fill="#161616"/>
</svg>
