<svg width="61" height="60" viewBox="0 0 61 60" fill="none" xmlns="http://www.w3.org/2000/svg">
<path d="M0.5 30C0.5 13.4315 13.9315 0 30.5 0C47.0685 0 60.5 13.4315 60.5 30C60.5 46.5685 47.0685 60 30.5 60C13.9315 60 0.5 46.5685 0.5 30Z" fill="white" fill-opacity="0.1"/>
<path d="M30.5 1.2002C46.4058 1.2002 59.2998 14.0942 59.2998 30C59.2998 45.9058 46.4058 58.7998 30.5 58.7998C14.5942 58.7998 1.7002 45.9058 1.7002 30C1.7002 14.0942 14.5942 1.2002 30.5 1.2002Z" stroke="white" stroke-opacity="0.5" stroke-width="2.4"/>
<path d="M35.225 17.5H25.775C21.05 17.5 19.875 18.7625 19.875 23.8V37.875C19.875 41.2 21.7 41.9875 23.9125 39.6125L23.925 39.6C24.95 38.5125 26.5125 38.6 27.4 39.7875L28.6625 41.475C29.675 42.8125 31.3125 42.8125 32.325 41.475L33.5875 39.7875C34.4875 38.5875 36.05 38.5 37.075 39.6C39.3 41.975 41.1125 41.1875 41.1125 37.8625V23.8C41.125 18.7625 39.95 17.5 35.225 17.5ZM35.075 33.1625C34.8875 33.35 34.65 33.4375 34.4125 33.4375C34.175 33.4375 33.9375 33.35 33.75 33.1625L32.825 32.2375C32.1 32.7125 31.225 33 30.2875 33C27.7375 33 25.6625 30.925 25.6625 28.375C25.6625 25.825 27.725 23.75 30.2875 23.75C32.85 23.75 34.9125 25.825 34.9125 28.375C34.9125 29.3125 34.625 30.1875 34.15 30.9125L35.075 31.8375C35.4375 32.2 35.4375 32.8 35.075 33.1625Z" fill="white"/>
</svg>
