<svg width="60" height="60" viewBox="0 0 60 60" fill="none" xmlns="http://www.w3.org/2000/svg">
<rect width="60" height="60" rx="30" fill="#EFF3F5"/>
<path d="M34.725 17.5H25.275C20.55 17.5 19.375 18.7625 19.375 23.8V37.875C19.375 41.2 21.2 41.9875 23.4125 39.6125L23.425 39.6C24.45 38.5125 26.0125 38.6 26.9 39.7875L28.1625 41.475C29.175 42.8125 30.8125 42.8125 31.825 41.475L33.0875 39.7875C33.9875 38.5875 35.55 38.5 36.575 39.6C38.8 41.975 40.6125 41.1875 40.6125 37.8625V23.8C40.625 18.7625 39.45 17.5 34.725 17.5ZM34.575 33.1625C34.3875 33.35 34.15 33.4375 33.9125 33.4375C33.675 33.4375 33.4375 33.35 33.25 33.1625L32.325 32.2375C31.6 32.7125 30.725 33 29.7875 33C27.2375 33 25.1625 30.925 25.1625 28.375C25.1625 25.825 27.225 23.75 29.7875 23.75C32.35 23.75 34.4125 25.825 34.4125 28.375C34.4125 29.3125 34.125 30.1875 33.65 30.9125L34.575 31.8375C34.9375 32.2 34.9375 32.8 34.575 33.1625Z" fill="#00778E"/>
</svg>
