<svg width="64" height="64" viewBox="0 0 64 64" fill="none" xmlns="http://www.w3.org/2000/svg">
<rect x="0.5" y="0.5" width="63" height="63" rx="31.5" fill="#F2F2F2"/>
<rect x="0.5" y="0.5" width="63" height="63" rx="31.5" stroke="#00778E"/>
<path d="M43.6152 36.0244L43.6191 36.0273L43.6309 36.0371L43.6719 36.0703C43.7065 36.0987 43.7559 36.1395 43.8174 36.1914C43.9403 36.295 44.1129 36.4441 44.3193 36.6299C44.7309 37.0004 45.284 37.5258 45.8408 38.1387C46.3935 38.747 46.9756 39.4692 47.4258 40.2354C47.8645 40.982 48.2489 41.8889 48.249 42.8379C48.249 45.474 46.2121 48.249 42.832 48.249C39.4522 48.2488 37.416 45.474 37.416 42.8379C37.4161 41.8889 37.8006 40.982 38.2393 40.2354C38.6894 39.4693 39.2716 38.747 39.8242 38.1387C40.381 37.5258 40.9332 37.0004 41.3447 36.6299C41.5513 36.4439 41.7247 36.2951 41.8477 36.1914C41.9091 36.1396 41.9586 36.0987 41.9932 36.0703L42.0342 36.0371L42.0459 36.0273L42.0498 36.0244L42.0518 36.0234L42.832 36.999L43.6133 36.0234L43.6152 36.0244ZM31.999 46.583H15.332V44.083H31.999V46.583ZM42.832 38.6572C42.492 38.971 42.0813 39.3708 41.6738 39.8193C41.1849 40.3575 40.7256 40.9385 40.3945 41.502C40.0522 42.0847 39.9161 42.5341 39.916 42.8379C39.916 44.304 41.0346 45.7488 42.832 45.749C44.6296 45.749 45.749 44.3041 45.749 42.8379C45.7489 42.5342 45.6128 42.0846 45.2705 41.502C44.9394 40.9384 44.4792 40.3575 43.9902 39.8193C43.5827 39.3708 43.1721 38.971 42.832 38.6572ZM31.999 41.583H15.332V39.083H31.999V41.583ZM43.6133 36.0234L42.832 36.999L42.0518 36.0234L42.832 35.3984L43.6133 36.0234ZM15.3779 15.75C16.8924 15.75 18.093 15.7501 19.0654 15.8164C20.0587 15.8842 20.9051 16.0252 21.6953 16.3525C23.6102 17.1457 25.1345 18.6587 25.9463 20.5635C26.4276 20.126 26.9852 19.7703 27.5977 19.5166C28.1837 19.2739 28.799 19.1755 29.4824 19.1289C30.1449 19.0837 30.957 19.083 31.9551 19.083H33.249V20.377C33.249 21.3752 33.2493 22.188 33.2041 22.8506C33.1575 23.5338 33.0581 24.1485 32.8154 24.7344C32.2375 26.1297 31.1287 27.2385 29.7334 27.8164C29.1475 28.0591 28.5328 28.1584 27.8496 28.2051C27.4768 28.2305 27.0561 28.2393 26.582 28.2441V34.083H31.999V36.583H15.332V34.083H24.082V28.2451C23.1154 28.2414 22.2986 28.2313 21.5996 28.1836C20.6064 28.1158 19.7599 27.9747 18.9697 27.6475C17.03 26.844 15.4881 25.303 14.6846 23.3633C14.3572 22.573 14.2162 21.7258 14.1484 20.7324C14.0821 19.7602 14.082 18.5601 14.082 17.0459V15.75H15.3779ZM16.584 18.252C16.5877 19.1945 16.6 19.9386 16.6426 20.5625C16.7017 21.4286 16.815 21.9714 16.9951 22.4062C17.5449 23.7333 18.5987 24.7881 19.9258 25.3379C20.3606 25.518 20.9036 25.6304 21.7695 25.6895C22.3935 25.732 23.1383 25.7443 24.0811 25.748C24.0773 24.8055 24.064 24.0614 24.0215 23.4375C23.9624 22.5714 23.8501 22.0286 23.6699 21.5938C23.1202 20.2666 22.0655 19.2119 20.7383 18.6621C20.3035 18.4821 19.7604 18.3696 18.8945 18.3105C18.2707 18.268 17.5265 18.2557 16.584 18.252ZM30.7451 21.5869C30.316 21.5915 29.9606 21.602 29.6523 21.623C29.0965 21.661 28.7853 21.7307 28.5547 21.8262C27.772 22.1504 27.1494 22.7729 26.8252 23.5557C26.7297 23.7863 26.66 24.0975 26.6221 24.6533C26.601 24.9616 26.5905 25.317 26.5859 25.7461C27.0149 25.7415 27.3705 25.732 27.6787 25.7109C28.2349 25.673 28.5467 25.6024 28.7773 25.5068C29.5599 25.1826 30.1816 24.5608 30.5059 23.7783C30.6014 23.5476 30.672 23.2359 30.71 22.6797C30.731 22.3715 30.7406 22.0158 30.7451 21.5869Z" fill="#00778E"/>
</svg>
