<svg width="64" height="64" viewBox="0 0 64 64" fill="none" xmlns="http://www.w3.org/2000/svg">
<path d="M0 32C0 14.3269 14.3269 0 32 0C49.6731 0 64 14.3269 64 32C64 49.6731 49.6731 64 32 64C14.3269 64 0 49.6731 0 32Z" fill="#F2F2F2"/>
<path fill-rule="evenodd" clip-rule="evenodd" d="M46.8073 17.1926C47.8977 18.283 48.2908 19.7883 48.2467 21.3734C48.2025 22.9549 47.7253 24.7351 46.9323 26.5851C46.1955 28.3046 45.1632 30.1371 43.8758 31.9999C45.1632 33.8628 46.1955 35.6953 46.9323 37.4148C47.7253 39.2648 48.2025 41.0451 48.2467 42.6266C48.2908 44.2116 47.8977 45.7169 46.8073 46.8073C45.717 47.8976 44.2117 48.2908 42.6265 48.2466C41.045 48.2024 39.2648 47.7253 37.4148 46.9324C35.6953 46.1954 33.8628 45.1631 32 43.8759C30.1372 45.1631 28.3047 46.1954 26.5852 46.9324C24.7351 47.7253 22.9549 48.2024 21.3734 48.2466C19.7883 48.2908 18.283 47.8976 17.1926 46.8073C16.1023 45.7169 15.7091 44.2116 15.7533 42.6266C15.7975 41.0451 16.2747 39.2648 17.0675 37.4148C17.8044 35.6953 18.8368 33.8628 20.124 31.9999C18.8368 30.1371 17.8044 28.3046 17.0675 26.5851C16.2747 24.7351 15.7975 22.9549 15.7533 21.3734C15.7091 19.7883 16.1023 18.283 17.1926 17.1926C18.283 16.1023 19.7883 15.7091 21.3734 15.7533C22.9549 15.7974 24.7351 16.2746 26.5852 17.0675C28.3047 17.8044 30.1372 18.8368 32 20.124C33.8628 18.8368 35.6953 17.8044 37.4148 17.0675C39.2648 16.2746 41.045 15.7974 42.6265 15.7533C44.2117 15.7091 45.717 16.1023 46.8073 17.1926ZM42.2992 34.1336C41.155 35.5871 39.8667 37.0398 38.4532 38.4533C37.0398 39.8666 35.587 41.1549 34.1335 42.2993C35.62 43.2754 37.06 44.0604 38.3995 44.6346C40.077 45.3534 41.536 45.7153 42.6962 45.7476C43.8528 45.7799 44.5918 45.4871 45.0395 45.0396C45.4872 44.5919 45.7798 43.8529 45.7475 42.6963C45.7152 41.5359 45.3535 40.0771 44.6345 38.3996C44.0605 37.0601 43.2753 35.6201 42.2992 34.1336ZM21.7007 34.1336C20.7245 35.6201 19.9395 37.0601 19.3654 38.3996C18.6465 40.0771 18.2847 41.5359 18.2524 42.6963C18.2201 43.8529 18.5128 44.5919 18.9604 45.0396C19.408 45.4871 20.147 45.7799 21.3037 45.7476C22.464 45.7153 23.9229 45.3534 25.6004 44.6346C26.9399 44.0604 28.3798 43.2754 29.8663 42.2993C28.4128 41.1549 26.9601 39.8666 25.5467 38.4533C24.1333 37.0398 22.845 35.5871 21.7007 34.1336ZM32 23.2111C30.4408 24.3945 28.8595 25.7694 27.3145 27.3145C25.7694 28.8596 24.3945 30.4408 23.2111 31.9999C24.3945 33.5591 25.7694 35.1404 27.3145 36.6854C28.8595 38.2306 30.4408 39.6054 32 40.7888C33.5592 39.6054 35.1403 38.2306 36.6855 36.6854C38.2305 35.1404 39.6055 33.5591 40.7888 31.9999C39.6055 30.4409 38.2305 28.8596 36.6855 27.3145C35.1403 25.7694 33.559 24.3945 32 23.2111ZM42.6962 18.2523C41.536 18.2847 40.077 18.6465 38.3995 19.3654C37.06 19.9395 35.62 20.7245 34.1335 21.7007C35.587 22.845 37.0398 24.1333 38.4532 25.5467C39.8667 26.9601 41.155 28.4129 42.2992 29.8664C43.2753 28.3799 44.0605 26.9399 44.6345 25.6003C45.3535 23.9229 45.7152 22.4639 45.7475 21.3037C45.7798 20.147 45.4872 19.408 45.0395 18.9604C44.5918 18.5128 43.8528 18.2201 42.6962 18.2523ZM21.3037 18.2523C20.147 18.2201 19.408 18.5128 18.9604 18.9604C18.5128 19.408 18.2201 20.147 18.2524 21.3037C18.2847 22.4639 18.6465 23.9229 19.3654 25.6003C19.9395 26.9399 20.7245 28.3799 21.7007 29.8664C22.845 28.4129 24.1333 26.9601 25.5467 25.5467C26.9601 24.1333 28.4128 22.845 29.8663 21.7007C28.3798 20.7245 26.9399 19.9395 25.6004 19.3654C23.9229 18.6465 22.464 18.2847 21.3037 18.2523ZM32 30.3333C31.0795 30.3333 30.3333 31.0796 30.3333 31.9999C30.3333 32.9204 31.0795 33.6666 32 33.6666H32.015C32.9353 33.6666 33.6817 32.9204 33.6817 31.9999C33.6817 31.0796 32.9353 30.3333 32.015 30.3333H32Z" fill="#00778E"/>
</svg>
