<svg width="64" height="64" viewBox="0 0 64 64" fill="none" xmlns="http://www.w3.org/2000/svg">
<path d="M0 32C0 14.3269 14.3269 0 32 0C49.6731 0 64 14.3269 64 32C64 49.6731 49.6731 64 32 64C14.3269 64 0 49.6731 0 32Z" fill="#F2F2F2"/>
<path d="M36.0524 42.6289C39.1883 40.9316 43.1441 40.9315 46.2799 42.6289C46.3584 42.6714 46.4617 42.7248 46.5836 42.7871C47.1673 43.0854 48.1719 43.5985 48.8571 44.208C49.277 44.5816 49.8018 45.1776 49.9 45.9951C50.01 46.9103 49.5489 47.6746 48.8903 48.2451C47.8463 49.1493 46.5414 49.9169 44.8405 49.917H37.4918C35.7907 49.917 34.4851 49.1494 33.4411 48.2451C32.7825 47.6747 32.3214 46.9102 32.4313 45.9951C32.5296 45.1776 33.0544 44.5816 33.4743 44.208C34.1594 43.5984 35.164 43.0854 35.7477 42.7871C35.8698 42.7247 35.9739 42.6714 36.0524 42.6289ZM18.6657 35.75C19.3559 35.7502 19.9157 36.3098 19.9157 37C19.9157 41.094 22.7163 44.5249 26.5094 45.4834L26.1188 44.7021C25.8101 44.0847 26.06 43.3332 26.6774 43.0244C27.2949 42.7157 28.0464 42.9665 28.3551 43.584L29.7838 46.4414C29.9773 46.8287 29.9567 47.2889 29.7291 47.6572C29.5014 48.0257 29.0988 48.2499 28.6657 48.25C22.4467 48.25 17.4157 43.2189 17.4157 37C17.4157 36.3096 17.9753 35.75 18.6657 35.75ZM45.0895 44.8281C42.6961 43.5325 39.6353 43.5325 37.2418 44.8281C37.0763 44.9177 36.9046 45.0065 36.7321 45.0957C36.149 45.3971 35.5538 45.7047 35.1364 46.0762C35.0543 46.1492 35.0001 46.207 34.9655 46.249C34.992 46.2775 35.0287 46.3129 35.0778 46.3555C35.8731 47.0443 36.6174 47.417 37.4918 47.417H44.8405C45.7148 47.4169 46.4583 47.0442 47.2536 46.3555C47.3027 46.3129 47.3393 46.2776 47.3659 46.249C47.3312 46.207 47.277 46.1492 47.195 46.0762C46.7775 45.7047 46.1824 45.3971 45.5993 45.0957C45.4267 45.0065 45.2551 44.9177 45.0895 44.8281ZM41.1657 30.75C43.9389 30.75 46.1657 33.0176 46.1657 35.7881C46.1656 38.5585 43.9388 40.8262 41.1657 40.8262C38.3926 40.8261 36.1658 38.5584 36.1657 35.7881C36.1657 33.0177 38.3925 30.7501 41.1657 30.75ZM41.1657 33.25C39.7968 33.2501 38.6657 34.3746 38.6657 35.7881C38.6658 37.2014 39.7969 38.3261 41.1657 38.3262C42.5345 38.3262 43.6656 37.2015 43.6657 35.7881C43.6657 34.3746 42.5346 33.25 41.1657 33.25ZM17.7184 25.9629C20.8543 24.2654 24.81 24.2654 27.9459 25.9629C28.0245 26.0054 28.1286 26.0577 28.2506 26.1201C28.8344 26.4185 29.8389 26.9323 30.5241 27.542C30.9439 27.9156 31.4687 28.5108 31.567 29.3281C31.6771 30.2434 31.216 31.0086 30.5573 31.5791C29.5132 32.4833 28.2076 33.25 26.5065 33.25H19.1579C17.457 33.2499 16.152 32.4832 15.1081 31.5791C14.4493 31.0086 13.9882 30.2434 14.0983 29.3281C14.1966 28.5107 14.7214 27.9156 15.1413 27.542C15.8264 26.9323 16.8309 26.4185 17.4147 26.1201C17.5364 26.0579 17.64 26.0053 17.7184 25.9629ZM26.7565 28.1611C24.3631 26.8655 21.3023 26.8655 18.9088 28.1611C18.7432 28.2508 18.5717 28.3395 18.3991 28.4287C17.816 28.7301 17.2209 29.0378 16.8034 29.4092C16.7214 29.4821 16.6671 29.54 16.6325 29.582C16.659 29.6105 16.6956 29.6459 16.7448 29.6885C17.54 30.3772 18.2835 30.7499 19.1579 30.75H26.5065C27.381 30.75 28.1252 30.3773 28.9206 29.6885C28.9696 29.646 29.0063 29.6105 29.0329 29.582C28.9982 29.54 28.944 29.4822 28.862 29.4092C28.4445 29.0378 27.8493 28.7301 27.2663 28.4287C27.0937 28.3395 26.922 28.2507 26.7565 28.1611ZM35.3317 15.75C41.5506 15.75 46.5817 20.7811 46.5817 27C46.5817 27.6904 46.022 28.25 45.3317 28.25C44.6415 28.2498 44.0817 27.6902 44.0817 27C44.0817 22.906 41.281 19.4751 37.4879 18.5166L37.8786 19.2979C38.1873 19.9153 37.9373 20.6668 37.32 20.9756C36.7025 21.2843 35.951 21.0335 35.6422 20.416L34.2135 17.5586C34.0201 17.1712 34.0415 16.7111 34.2692 16.3428C34.4969 15.9745 34.8987 15.7501 35.3317 15.75ZM22.8327 14.083C25.6058 14.0831 27.8326 16.3507 27.8327 19.1211C27.8327 21.8915 25.6058 24.1591 22.8327 24.1592C20.0594 24.1592 17.8327 21.8916 17.8327 19.1211C17.8327 16.3507 20.0595 14.083 22.8327 14.083ZM22.8327 16.583C21.4638 16.583 20.3327 17.7076 20.3327 19.1211C20.3327 20.5346 21.4638 21.6592 22.8327 21.6592C24.2015 21.6591 25.3327 20.5345 25.3327 19.1211C25.3326 17.7077 24.2014 16.5831 22.8327 16.583Z" fill="#00778E"/>
</svg>
