<svg width="64" height="64" viewBox="0 0 64 64" fill="none" xmlns="http://www.w3.org/2000/svg">
<path d="M0 32C0 14.3269 14.3269 0 32 0C49.6731 0 64 14.3269 64 32C64 49.6731 49.6731 64 32 64C14.3269 64 0 49.6731 0 32Z" fill="#F2F2F2"/>
<path d="M32.1084 14.083C34.3903 14.083 36.2295 14.0831 37.6758 14.2773C39.1771 14.479 40.4413 14.9102 41.4453 15.9131C42.9002 17.3664 43.1705 19.3916 43.248 21.9619C43.2689 22.6518 42.727 23.228 42.0371 23.249C41.3472 23.2698 40.771 22.7279 40.75 22.0381C40.6714 19.4309 40.3635 18.3669 39.6787 17.6826C39.2167 17.2211 38.5675 16.9194 37.3428 16.7549C36.0823 16.5856 34.4113 16.583 32.0166 16.583H25.3428C22.9483 16.583 21.278 16.5857 20.0176 16.7549C18.7929 16.9194 18.1437 17.2211 17.6816 17.6826C17.22 18.1439 16.9194 18.7913 16.7549 20.0137C16.5855 21.2724 16.582 22.9408 16.582 25.333V38.667C16.582 41.0592 16.5855 42.7276 16.7549 43.9863C16.9194 45.2087 17.22 45.8561 17.6816 46.3174C18.1437 46.7789 18.7929 47.0806 20.0176 47.2451C21.278 47.4143 22.9483 47.417 25.3428 47.417H32.0166C34.4113 47.417 36.0823 47.4144 37.3428 47.2451C38.5675 47.0806 39.2167 46.7789 39.6787 46.3174C40.3635 45.6331 40.6714 44.5691 40.75 41.9619C40.771 41.2721 41.3472 40.7302 42.0371 40.751C42.727 40.772 43.2689 41.3482 43.248 42.0381C43.1705 44.6084 42.9002 46.6336 41.4453 48.0869C40.4413 49.0898 39.1771 49.521 37.6758 49.7227C36.2294 49.9169 34.3903 49.917 32.1084 49.917H25.252C22.97 49.917 21.1309 49.9169 19.6846 49.7227C18.1833 49.521 16.9191 49.0897 15.915 48.0869C14.9108 47.0838 14.4783 45.8198 14.2764 44.3193C14.0819 42.8744 14.082 41.0368 14.082 38.7578V25.2422C14.082 22.9632 14.0819 21.1256 14.2764 19.6807C14.4783 18.1802 14.9108 16.9162 15.915 15.9131C16.9191 14.9103 18.1833 14.479 19.6846 14.2773C21.1309 14.0831 22.9701 14.083 25.252 14.083H32.1084ZM24.082 38.25C24.5555 38.25 24.9885 38.5179 25.2002 38.9414L26.9385 42.417H27.832C28.5224 42.417 29.082 42.9766 29.082 43.667C29.0819 44.3572 28.5223 44.917 27.832 44.917H26.166C25.6926 44.917 25.2596 44.6491 25.0479 44.2256L24.082 42.2949L23.1172 44.2256C22.9054 44.6491 22.4725 44.917 21.999 44.917H20.332C19.6419 44.9168 19.0822 44.3571 19.082 43.667C19.082 42.9767 19.6418 42.4172 20.332 42.417H21.2266L22.9639 38.9414C23.1756 38.518 23.6087 38.2501 24.082 38.25ZM44.7549 24.3848C45.567 23.9823 46.5208 23.9824 47.333 24.3848C47.7677 24.6002 48.1371 24.9713 48.4883 25.3242C48.5194 25.3555 48.5501 25.3871 48.5811 25.418C48.612 25.4489 48.6435 25.4796 48.6748 25.5107C49.0278 25.8619 49.3989 26.2314 49.6143 26.666C50.0166 27.4782 50.0167 28.432 49.6143 29.2441C49.3989 29.6787 49.0277 30.0473 48.6748 30.3984L37.8428 41.2305C37.7056 41.3677 37.5376 41.4709 37.3535 41.5322L32.3945 43.1855C31.9454 43.3353 31.45 43.2186 31.1152 42.8838C30.7805 42.549 30.6638 42.0537 30.8135 41.6045L32.4668 36.6455C32.5282 36.4614 32.6313 36.2935 32.7686 36.1562L43.6006 25.3242C43.9517 24.9714 44.3203 24.6001 44.7549 24.3848ZM34.7451 37.7158L33.9756 40.0234L36.2832 39.2539L43.9678 31.5703L42.4297 30.0313L34.7451 37.7158ZM31.999 27.417C32.6894 27.417 33.249 27.9766 33.249 28.667C33.2488 29.3572 32.6893 29.917 31.999 29.917H21.999C21.3088 29.917 20.7492 29.3572 20.749 28.667C20.749 27.9766 21.3087 27.417 21.999 27.417H31.999ZM46.2188 26.623C46.1087 26.5703 45.9802 26.5703 45.8701 26.623C45.8613 26.6289 45.8282 26.6517 45.7607 26.7119C45.6502 26.8106 45.5097 26.9502 45.2744 27.1855L44.1973 28.2637L45.7354 29.8018L46.8135 28.7246C47.0488 28.4893 47.1884 28.3488 47.2871 28.2383C47.3474 28.1708 47.3701 28.1378 47.376 28.1289C47.4286 28.0189 47.4285 27.8913 47.376 27.7813C47.3701 27.7724 47.3473 27.7393 47.2871 27.6719C47.1884 27.5613 47.0488 27.4209 46.8135 27.1855C46.5782 26.9502 46.4377 26.8106 46.3271 26.7119C46.2607 26.6526 46.2281 26.6293 46.2188 26.623ZM35.332 20.75C36.0224 20.75 36.582 21.3096 36.582 22C36.582 22.6904 36.0224 23.25 35.332 23.25H21.999C21.3087 23.25 20.749 22.6904 20.749 22C20.749 21.3096 21.3087 20.75 21.999 20.75H35.332Z" fill="#00778E"/>
</svg>
