<svg width="64" height="64" viewBox="0 0 64 64" fill="none" xmlns="http://www.w3.org/2000/svg">
<path d="M0 32C0 14.3269 14.3269 0 32 0C49.6731 0 64 14.3269 64 32C64 49.6731 49.6731 64 32 64C14.3269 64 0 49.6731 0 32Z" fill="#F2F2F2"/>
<path d="M20.3682 35.75C20.7252 35.75 21.0536 35.7498 21.3291 35.7686C21.6252 35.7888 21.9514 35.8346 22.2822 35.9717C22.9968 36.2677 23.5644 36.8362 23.8604 37.5508C23.9973 37.8815 24.0433 38.2069 24.0635 38.5029C24.0823 38.7785 24.0821 39.1067 24.082 39.4639V44.5361C24.0821 44.8933 24.0823 45.2215 24.0635 45.4971C24.0433 45.7931 23.9973 46.1185 23.8604 46.4492C23.5644 47.1638 22.9968 47.7323 22.2822 48.0283C21.9514 48.1654 21.6252 48.2112 21.3291 48.2314C21.0536 48.2502 20.7252 48.25 20.3682 48.25H20.2959C19.9388 48.25 19.6105 48.2502 19.335 48.2314C19.039 48.2112 18.7135 48.1653 18.3828 48.0283C17.6681 47.7323 17.1007 47.1639 16.8047 46.4492C16.6677 46.1185 16.6218 45.7931 16.6016 45.4971C16.5828 45.2215 16.582 44.8933 16.582 44.5361V39.4639C16.582 39.1067 16.5828 38.7785 16.6016 38.5029C16.6218 38.2069 16.6677 37.8815 16.8047 37.5508C17.1007 36.8361 17.6681 36.2677 18.3828 35.9717C18.7135 35.8347 19.039 35.7888 19.335 35.7686C19.6105 35.7498 19.9388 35.75 20.2959 35.75H20.3682ZM32.0352 31.583C32.3923 31.583 32.7206 31.5837 32.9961 31.6025C33.2921 31.6227 33.6175 31.6687 33.9482 31.8057C34.6629 32.1017 35.2313 32.6691 35.5273 33.3838C35.6643 33.7145 35.7103 34.04 35.7305 34.3359C35.7493 34.6114 35.749 34.9398 35.749 35.2969V44.5361C35.749 44.8933 35.7493 45.2215 35.7305 45.4971C35.7103 45.793 35.6643 46.1185 35.5273 46.4492C35.2313 47.1639 34.6629 47.7323 33.9482 48.0283C33.6175 48.1652 33.292 48.2113 32.9961 48.2314C32.7206 48.2502 32.3923 48.25 32.0352 48.25H31.9629C31.6058 48.25 31.2775 48.2502 31.002 48.2314C30.706 48.2113 30.3805 48.1652 30.0498 48.0283C29.3351 47.7323 28.7667 47.1639 28.4707 46.4492C28.3338 46.1185 28.2878 45.793 28.2676 45.4971C28.2488 45.2215 28.249 44.8933 28.249 44.5361V35.2969C28.249 34.9398 28.2488 34.6114 28.2676 34.3359C28.2878 34.04 28.3337 33.7145 28.4707 33.3838C28.7667 32.6691 29.3351 32.1017 30.0498 31.8057C30.3806 31.6687 30.7059 31.6227 31.002 31.6025C31.2775 31.5837 31.6058 31.583 31.9629 31.583H32.0352ZM43.7021 25.75C44.0592 25.75 44.3876 25.7498 44.6631 25.7686C44.959 25.7888 45.2846 25.8347 45.6152 25.9717C46.3299 26.2677 46.8973 26.8361 47.1934 27.5508C47.3303 27.8815 47.3763 28.2069 47.3965 28.5029C47.4153 28.7785 47.416 29.1067 47.416 29.4639V44.5361C47.416 44.8933 47.4153 45.2215 47.3965 45.4971C47.3763 45.7931 47.3303 46.1185 47.1934 46.4492C46.8973 47.1639 46.3299 47.7323 45.6152 48.0283C45.2846 48.1653 44.959 48.2112 44.6631 48.2314C44.3876 48.2502 44.0592 48.25 43.7021 48.25H43.6299C43.2729 48.25 42.9444 48.2502 42.6689 48.2314C42.3729 48.2112 42.0467 48.1654 41.7158 48.0283C41.0013 47.7323 40.4337 47.1638 40.1377 46.4492C40.0007 46.1185 39.9548 45.7931 39.9346 45.4971C39.9158 45.2215 39.916 44.8933 39.916 44.5361V29.4639C39.916 29.1067 39.9158 28.7785 39.9346 28.5029C39.9548 28.2069 40.0007 27.8815 40.1377 27.5508C40.4337 26.8362 41.0013 26.2677 41.7158 25.9717C42.0467 25.8346 42.3729 25.7888 42.6689 25.7686C42.9444 25.7498 43.2729 25.75 43.6299 25.75H43.7021ZM20.332 38.25C19.9271 38.25 19.6858 38.2504 19.5059 38.2627C19.3954 38.2702 19.3477 38.281 19.335 38.2842C19.237 38.3263 19.1584 38.404 19.1162 38.502C19.1131 38.5142 19.1033 38.5617 19.0957 38.6729C19.0834 38.8529 19.082 39.0946 19.082 39.5V44.5C19.082 44.9054 19.0834 45.1471 19.0957 45.3271C19.1033 45.4383 19.1131 45.4858 19.1162 45.498C19.1584 45.596 19.237 45.6737 19.335 45.7158C19.3477 45.719 19.3954 45.7298 19.5059 45.7373C19.6858 45.7496 19.9271 45.75 20.332 45.75C20.7374 45.75 20.9792 45.7496 21.1592 45.7373C21.2705 45.7297 21.3178 45.7189 21.3301 45.7158C21.4281 45.6737 21.5067 45.5961 21.5488 45.498C21.5519 45.4858 21.5617 45.4383 21.5693 45.3271C21.5816 45.1471 21.582 44.9054 21.582 44.5V39.5C21.582 39.0946 21.5816 38.8529 21.5693 38.6729C21.5617 38.5617 21.5519 38.5142 21.5488 38.502C21.5067 38.4039 21.4281 38.3263 21.3301 38.2842C21.3178 38.2811 21.2705 38.2703 21.1592 38.2627C20.9792 38.2504 20.7374 38.25 20.332 38.25ZM31.999 34.083C31.5936 34.083 31.3519 34.0844 31.1719 34.0967C31.0607 34.1043 31.0132 34.1141 31.001 34.1172C30.903 34.1593 30.8253 34.2379 30.7832 34.3359C30.78 34.3487 30.7693 34.3964 30.7617 34.5068C30.7495 34.6868 30.749 34.9281 30.749 35.333V44.5C30.749 44.9054 30.7494 45.1471 30.7617 45.3271C30.7693 45.4383 30.7801 45.4858 30.7832 45.498C30.8253 45.5958 30.9032 45.6737 31.001 45.7158C31.0132 45.7189 31.0607 45.7297 31.1719 45.7373C31.3519 45.7496 31.5936 45.75 31.999 45.75C32.4044 45.75 32.6462 45.7496 32.8262 45.7373C32.9374 45.7297 32.9848 45.7189 32.9971 45.7158C33.0949 45.6737 33.1727 45.5958 33.2148 45.498C33.218 45.4858 33.2287 45.4383 33.2363 45.3271C33.2486 45.1471 33.249 44.9054 33.249 44.5V35.333C33.249 34.9281 33.2486 34.6868 33.2363 34.5068C33.2288 34.3964 33.218 34.3487 33.2148 34.3359C33.1727 34.2379 33.095 34.1593 32.9971 34.1172C32.9848 34.1141 32.9373 34.1043 32.8262 34.0967C32.6462 34.0844 32.4044 34.083 31.999 34.083ZM43.666 28.25C43.2607 28.25 43.0189 28.2504 42.8389 28.2627C42.7275 28.2703 42.6802 28.2811 42.668 28.2842C42.57 28.3263 42.4914 28.404 42.4492 28.502C42.4461 28.5142 42.4363 28.5617 42.4287 28.6729C42.4164 28.8529 42.416 29.0946 42.416 29.5V44.5C42.416 44.9054 42.4164 45.1471 42.4287 45.3271C42.4363 45.4383 42.4461 45.4858 42.4492 45.498C42.4913 45.5961 42.57 45.6737 42.668 45.7158C42.6802 45.7189 42.7275 45.7297 42.8389 45.7373C43.0189 45.7496 43.2607 45.75 43.666 45.75C44.0709 45.75 44.3123 45.7496 44.4922 45.7373C44.6026 45.7298 44.6503 45.719 44.6631 45.7158C44.7611 45.6737 44.8397 45.596 44.8818 45.498C44.8849 45.4858 44.8947 45.4383 44.9023 45.3271C44.9146 45.1471 44.916 44.9054 44.916 44.5V29.5C44.916 29.0946 44.9146 28.8529 44.9023 28.6729C44.8947 28.5617 44.8849 28.5142 44.8818 28.502C44.8397 28.404 44.7611 28.3263 44.6631 28.2842C44.6503 28.281 44.6026 28.2702 44.4922 28.2627C44.3123 28.2504 44.0709 28.25 43.666 28.25ZM44.499 15.75C45.1894 15.75 45.749 16.3096 45.749 17V22C45.749 22.6904 45.1894 23.25 44.499 23.25C43.8087 23.25 43.249 22.6904 43.249 22V20.0947C43.2397 20.1038 43.2311 20.1139 43.2217 20.123C42.2834 21.0342 40.8584 22.2969 38.8818 23.7393C34.9272 26.625 28.7708 30.2268 19.8945 33.1855C19.2397 33.4038 18.5318 33.0503 18.3135 32.3955C18.0952 31.7406 18.4496 31.0328 19.1045 30.8145C27.7277 27.94 33.6545 24.4589 37.4082 21.7197C39.2858 20.3496 40.6219 19.1637 41.4805 18.3301C41.508 18.3034 41.534 18.276 41.5605 18.25H39.499C38.8087 18.25 38.249 17.6904 38.249 17C38.249 16.3096 38.8087 15.75 39.499 15.75H44.499Z" fill="#00778E"/>
</svg>
