<svg width="64" height="64" viewBox="0 0 64 64" fill="none" xmlns="http://www.w3.org/2000/svg">
<path d="M0 32C0 14.3269 14.3269 0 32 0C49.6731 0 64 14.3269 64 32C64 49.6731 49.6731 64 32 64C14.3269 64 0 49.6731 0 32Z" fill="#F2F2F2"/>
<path fill-rule="evenodd" clip-rule="evenodd" d="M29.01 36.5356C29.6738 36.346 30.0582 35.6542 29.8686 34.9904C29.679 34.3265 28.9872 33.9421 28.3234 34.1317L28.2522 34.1521L28.2522 34.1521C25.6095 34.9069 23.5278 35.5014 21.9071 36.162C20.2447 36.8396 18.9511 37.6303 17.9472 38.843C17.7637 39.0647 17.5902 39.2947 17.4273 39.532C15.909 41.7449 15.7727 44.5075 15.75 48.6602C15.7462 49.3505 16.3028 49.9132 16.9932 49.917C17.6835 49.9207 18.2462 49.3642 18.25 48.6738C18.2736 44.3553 18.4795 42.4174 19.4887 40.9464C19.6091 40.771 19.7374 40.601 19.873 40.4371C20.5167 39.6596 21.3982 39.0691 22.8507 38.4771C24.3304 37.874 26.2805 37.3152 29.01 36.5356ZM35.6766 34.1317C35.0128 33.9421 34.321 34.3265 34.1314 34.9904C33.9418 35.6542 34.3262 36.346 34.99 36.5356C37.7195 37.3152 39.6696 37.874 41.1493 38.4771C42.6018 39.0691 43.4833 39.6596 44.127 40.4371C44.2626 40.601 44.3909 40.771 44.5113 40.9464C45.5205 42.4174 45.7264 44.3553 45.75 48.6738C45.7538 49.3642 46.3165 49.9207 47.0068 49.917C47.6972 49.9132 48.2538 49.3505 48.25 48.6602C48.2273 44.5075 48.091 41.7449 46.5727 39.532C46.4098 39.2947 46.2363 39.0647 46.0528 38.843C45.0489 37.6303 43.7553 36.8396 42.0929 36.162C40.4722 35.5014 38.3905 34.9069 35.7478 34.1521L35.7478 34.152L35.6766 34.1317ZM26.7574 20.7504C27.3612 18.3787 29.4628 16.5837 31.9997 16.5837C34.5365 16.5837 36.6382 18.3787 37.242 20.7504L26.7574 20.7504ZM24.0841 22.0439C24.0836 22.0294 24.0833 22.015 24.0833 22.0004C24.0833 21.9669 24.0847 21.9336 24.0872 21.9007C24.2179 17.6791 27.6002 14.0837 31.9997 14.0837C36.395 14.0837 39.7751 17.6723 39.9117 21.8888C39.915 21.9255 39.9167 21.9628 39.9167 22.0004C39.9167 22.019 39.9163 22.0375 39.9155 22.0559C39.9221 22.6109 39.8725 23.176 39.7615 23.7446L39.0607 27.3369C38.394 30.7537 35.4549 33.2504 31.9997 33.2504C28.5444 33.2504 25.6053 30.7537 24.9387 27.3369L24.2378 23.7446C24.1261 23.1719 24.0766 22.6027 24.0841 22.0439ZM26.6886 23.2504C26.6896 23.2556 26.6906 23.2607 26.6916 23.2659L27.3924 26.8581C27.8382 29.1429 29.7828 30.7504 31.9997 30.7504C34.2166 30.7504 36.1612 29.1429 36.6069 26.8581L37.3078 23.2659C37.3088 23.2607 37.3098 23.2556 37.3108 23.2504L26.6886 23.2504ZM32 37.4171C32.6904 37.4171 33.25 37.9767 33.25 38.6671V45.3337C33.25 46.0241 32.6904 46.5837 32 46.5837C31.3096 46.5837 30.75 46.0241 30.75 45.3337V38.6671C30.75 37.9767 31.3096 37.4171 32 37.4171Z" fill="#00778E"/>
</svg>
