<svg width="60" height="60" viewBox="0 0 60 60" fill="none" xmlns="http://www.w3.org/2000/svg">
<rect width="60" height="60" rx="30" fill="#EFF3F5"/>
<path d="M26.25 17.5C22.975 17.5 20.3125 20.1625 20.3125 23.4375C20.3125 26.65 22.825 29.25 26.1 29.3625C26.2 29.35 26.3 29.35 26.375 29.3625C26.4 29.3625 26.4125 29.3625 26.4375 29.3625C26.45 29.3625 26.45 29.3625 26.4625 29.3625C29.6625 29.25 32.175 26.65 32.1875 23.4375C32.1875 20.1625 29.525 17.5 26.25 17.5Z" fill="#00778E"/>
<path d="M32.5992 32.6874C29.1117 30.3624 23.4242 30.3624 19.9117 32.6874C18.3242 33.7499 17.4492 35.1874 17.4492 36.7249C17.4492 38.2624 18.3242 39.6874 19.8992 40.7374C21.6492 41.9124 23.9492 42.4999 26.2492 42.4999C28.5492 42.4999 30.8492 41.9124 32.5992 40.7374C34.1742 39.6749 35.0492 38.2499 35.0492 36.6999C35.0367 35.1624 34.1742 33.7374 32.5992 32.6874Z" fill="#00778E"/>
<path d="M39.9867 24.1749C40.1867 26.5999 38.4617 28.7249 36.0742 29.0124C36.0617 29.0124 36.0617 29.0124 36.0492 29.0124H36.0117C35.9367 29.0124 35.8617 29.0124 35.7992 29.0374C34.5867 29.0999 33.4742 28.7124 32.6367 27.9999C33.9242 26.8499 34.6617 25.1249 34.5117 23.2499C34.4242 22.2374 34.0742 21.3124 33.5492 20.5249C34.0242 20.2874 34.5742 20.1374 35.1367 20.0874C37.5867 19.8749 39.7742 21.6999 39.9867 24.1749Z" fill="#00778E"/>
<path d="M42.4883 35.7373C42.3883 36.9498 41.6133 37.9998 40.3133 38.7123C39.0633 39.3998 37.4883 39.7248 35.9258 39.6873C36.8258 38.8748 37.3508 37.8623 37.4508 36.7873C37.5758 35.2373 36.8383 33.7498 35.3633 32.5623C34.5258 31.8998 33.5508 31.3748 32.4883 30.9873C35.2508 30.1873 38.7258 30.7248 40.8633 32.4498C42.0133 33.3748 42.6008 34.5373 42.4883 35.7373Z" fill="#00778E"/>
</svg>
