<svg width="61" height="60" viewBox="0 0 61 60" fill="none" xmlns="http://www.w3.org/2000/svg">
<path d="M0.5 30C0.5 13.4315 13.9315 0 30.5 0C47.0685 0 60.5 13.4315 60.5 30C60.5 46.5685 47.0685 60 30.5 60C13.9315 60 0.5 46.5685 0.5 30Z" fill="white" fill-opacity="0.1"/>
<path d="M30.5 1.2002C46.4058 1.2002 59.2998 14.0942 59.2998 30C59.2998 45.9058 46.4058 58.7998 30.5 58.7998C14.5942 58.7998 1.7002 45.9058 1.7002 30C1.7002 14.0942 14.5942 1.2002 30.5 1.2002Z" stroke="white" stroke-opacity="0.5" stroke-width="2.4"/>
<path d="M26.75 17.5C23.475 17.5 20.8125 20.1625 20.8125 23.4375C20.8125 26.65 23.325 29.25 26.6 29.3625C26.7 29.35 26.8 29.35 26.875 29.3625C26.9 29.3625 26.9125 29.3625 26.9375 29.3625C26.95 29.3625 26.95 29.3625 26.9625 29.3625C30.1625 29.25 32.675 26.65 32.6875 23.4375C32.6875 20.1625 30.025 17.5 26.75 17.5Z" fill="white"/>
<path d="M33.0992 32.6871C29.6117 30.3621 23.9242 30.3621 20.4117 32.6871C18.8242 33.7496 17.9492 35.1871 17.9492 36.7246C17.9492 38.2621 18.8242 39.6871 20.3992 40.7371C22.1492 41.9121 24.4492 42.4996 26.7492 42.4996C29.0492 42.4996 31.3492 41.9121 33.0992 40.7371C34.6742 39.6746 35.5492 38.2496 35.5492 36.6996C35.5367 35.1621 34.6742 33.7371 33.0992 32.6871Z" fill="white"/>
<path d="M40.4867 24.1746C40.6867 26.5996 38.9617 28.7246 36.5742 29.0121C36.5617 29.0121 36.5617 29.0121 36.5492 29.0121H36.5117C36.4367 29.0121 36.3617 29.0121 36.2992 29.0371C35.0867 29.0996 33.9742 28.7121 33.1367 27.9996C34.4242 26.8496 35.1617 25.1246 35.0117 23.2496C34.9242 22.2371 34.5742 21.3121 34.0492 20.5246C34.5242 20.2871 35.0742 20.1371 35.6367 20.0871C38.0867 19.8746 40.2742 21.6996 40.4867 24.1746Z" fill="white"/>
<path d="M42.9883 35.737C42.8883 36.9495 42.1133 37.9995 40.8133 38.712C39.5633 39.3995 37.9883 39.7245 36.4258 39.687C37.3258 38.8745 37.8508 37.862 37.9508 36.787C38.0758 35.237 37.3383 33.7495 35.8633 32.562C35.0258 31.8995 34.0508 31.3745 32.9883 30.987C35.7508 30.187 39.2258 30.7245 41.3633 32.4495C42.5133 33.3745 43.1008 34.537 42.9883 35.737Z" fill="white"/>
</svg>
