<svg width="20" height="20" viewBox="0 0 20 20" fill="none" xmlns="http://www.w3.org/2000/svg">
<path d="M14.9551 10.0033L7.52441 17.433C7.21464 17.7428 6.79451 17.9174 6.35645 17.9174H2.91211C2.45601 17.9174 2.08595 17.5473 2.08594 17.0912V13.6459C2.08595 13.2079 2.26057 12.7877 2.57031 12.4779L10 5.04826L14.9551 10.0033ZM17.0859 16.2504C17.5461 16.2504 17.9197 16.6233 17.9199 17.0834C17.9199 17.5437 17.5462 17.9174 17.0859 17.9174H11.2529C10.7927 17.9174 10.4199 17.5437 10.4199 17.0834C10.4201 16.6233 10.7928 16.2504 11.2529 16.2504H17.0859ZM12.4805 2.56779C13.1255 1.9227 14.1713 1.92273 14.8164 2.56779L17.4355 5.18693C18.0806 5.83198 18.0806 6.87782 17.4355 7.52287L15.8389 9.11955L10.8838 4.16447L12.4805 2.56779Z" fill="#00778E"/>
</svg>
