<svg width="112" height="121" viewBox="0 0 112 121" fill="none" xmlns="http://www.w3.org/2000/svg">
<g clip-path="url(#clip0_15859_63878)">
<path d="M62.0356 120.134C75.5733 120.134 86.5478 119.152 86.5478 117.939C86.5478 116.727 75.5733 115.744 62.0356 115.744C48.4979 115.744 37.5234 116.727 37.5234 117.939C37.5234 119.152 48.4979 120.134 62.0356 120.134Z" fill="#F8F8F8"/>
<path d="M14.6131 8.50614H11.7724V5.66537C11.7724 5.24184 11.4212 4.89062 10.9976 4.89062C10.5741 4.89062 10.2229 5.24184 10.2229 5.66537V8.50614H7.38217C6.95864 8.50614 6.60742 8.85736 6.60742 9.28087C6.60742 9.70438 6.95864 10.0556 7.38217 10.0556H10.2229V12.8964C10.2229 13.3199 10.5741 13.6711 10.9976 13.6711C11.4212 13.6711 11.7724 13.3199 11.7724 12.8964V10.0556H14.6131C15.0367 10.0556 15.3879 9.70438 15.3879 9.28087C15.3879 8.85736 15.0367 8.50614 14.6131 8.50614Z" fill="#2A2A2A"/>
<path d="M36.9521 94.1372H35.5317V92.7162C35.5317 92.5047 35.3561 92.3291 35.1443 92.3291C34.9326 92.3291 34.757 92.5047 34.757 92.7162V94.1372H33.3366C33.1248 94.1372 32.9492 94.3128 32.9492 94.5242C32.9492 94.7357 33.1248 94.9113 33.3366 94.9113H34.757V96.3323C34.757 96.5437 34.9326 96.7193 35.1443 96.7193C35.3561 96.7193 35.5317 96.5437 35.5317 96.3323V94.9113H36.9521C37.1639 94.9113 37.3395 94.7357 37.3395 94.5242C37.3395 94.3128 37.1639 94.1372 36.9521 94.1372Z" fill="#9C9A9A"/>
<path d="M42.0954 63.4266H38.071V59.4022C38.071 58.8022 37.5734 58.3047 36.9734 58.3047C36.3734 58.3047 35.8759 58.8022 35.8759 59.4022V63.4266H31.8515C31.2515 63.4266 30.7539 63.9242 30.7539 64.5242C30.7539 65.1242 31.2515 65.6218 31.8515 65.6218H35.8759V69.6462C35.8759 70.2462 36.3734 70.7437 36.9734 70.7437C37.5734 70.7437 38.071 70.2462 38.071 69.6462V65.6218H42.0954C42.6954 65.6218 43.1929 65.1242 43.1929 64.5242C43.1929 63.9242 42.6954 63.4266 42.0954 63.4266Z" fill="#2A2A2A"/>
<path d="M100.482 48.2765H98.5872V46.3827C98.5872 46.1004 98.3531 45.8662 98.0714 45.8662C97.7889 45.8662 97.5548 46.1004 97.5548 46.3827V48.2765H95.6604C95.3787 48.2765 95.1445 48.5107 95.1445 48.793C95.1445 49.0754 95.3787 49.3096 95.6604 49.3096H97.5548V51.2034C97.5548 51.4857 97.7889 51.7199 98.0714 51.7199C98.3531 51.7199 98.5872 51.4857 98.5872 51.2034V49.3096H100.482C100.764 49.3096 100.998 49.0754 100.998 48.793C100.998 48.5107 100.764 48.2765 100.482 48.2765Z" fill="#2A2A2A"/>
<path d="M49.3916 12.5519H47.9712V11.1315C47.9712 10.9198 47.7956 10.7441 47.5838 10.7441C47.372 10.7441 47.1964 10.9198 47.1964 11.1315V12.5519H45.776C45.5643 12.5519 45.3887 12.7275 45.3887 12.9393C45.3887 13.151 45.5643 13.3266 45.776 13.3266H47.1964V14.747C47.1964 14.9588 47.372 15.1344 47.5838 15.1344C47.7956 15.1344 47.9712 14.9588 47.9712 14.747V13.3266H49.3916C49.6033 13.3266 49.7789 13.151 49.7789 12.9393C49.7789 12.7275 49.6033 12.5519 49.3916 12.5519Z" fill="#9C9A9A"/>
<path d="M24.561 31.4079L48.285 19.3005C48.4785 19.1928 48.6689 19.0963 48.8546 19.0098L48.285 19.3005C45.1633 21.0375 41.2259 25.6605 42.488 37.2719C43.8283 49.603 32.8823 50.5636 27.2416 49.5025L5.67336 55.135C4.30628 55.522 3.02719 55.8337 1.96282 56.104L0.9375 56.3718C1.24988 56.2865 1.59342 56.1978 1.96282 56.104L5.67336 55.135C11.2117 53.567 18.1944 50.7629 18.1944 44.4763C19.3671 35.764 22.4388 32.3014 24.561 31.4079Z" fill="#54A4B3"/>
<path d="M36.4565 48.8896C33.1057 50.23 28.582 49.785 27.2416 49.3923L0.9375 56.2615C11.3922 59.7464 29.0846 52.799 36.4565 48.8896Z" fill="#00778E"/>
<path d="M52.7074 19.3548C51.8698 19.3079 47.1786 21.4094 43.6602 24.9278C43.8277 23.129 46.8932 19.2908 49.5241 18.7295C51.1996 18.3721 51.8698 19.0095 52.7074 19.3548Z" fill="#00778E"/>
<path d="M34.8253 32.1761L24.6711 36.7526C24.3922 36.8784 24.2129 37.1558 24.2129 37.4617C24.2129 38.0183 24.7806 38.3947 25.2933 38.178L35.553 33.843C35.8896 33.7007 36.1084 33.3708 36.1084 33.0052C36.1084 32.3451 35.4271 31.9048 34.8253 32.1761Z" fill="white"/>
<path d="M33.3175 36.8694L23.1633 41.446C22.8844 41.5717 22.7051 41.8491 22.7051 42.155C22.7051 42.7117 23.2728 43.0881 23.7855 42.8714L34.0452 38.5363C34.3818 38.3941 34.6006 38.0641 34.6006 37.6986C34.6006 37.0384 33.9193 36.5982 33.3175 36.8694Z" fill="white"/>
<path d="M70.8008 24.9805C67.1149 27.5041 63.2056 27.9509 61.5859 27.5041C66.8133 34.8759 78.8425 38.4397 84.2045 39.2216C77.3352 37.3891 72.8113 28.8445 70.8008 24.9805Z" fill="#00778E"/>
<path d="M75.9965 5.04485C71.8078 2.70918 66.8374 1.58231 64.6035 1.694C75.728 -0.986671 84.3175 3.4806 87.2216 6.04932C83.2258 2.8527 78.2377 4.3653 76.0375 5.03232L75.9965 5.04485Z" fill="#00778E"/>
<path d="M61.5863 27.494C65.3392 15.9671 55.5547 8.72926 50.1934 6.55123C61.9884 -1.62509 72.309 2.13918 75.9949 5.04335C92.7488 -1.92641 97.9432 25.4835 98.4459 40.0597C91.0739 40.8639 85.5451 39.7246 83.702 39.0544C77.1342 37.178 72.3648 28.8902 70.8011 24.9809C66.378 28.8679 62.8149 28.2759 61.5863 27.494Z" fill="#54A4B3"/>
<path d="M78.0701 22.9586L68.2109 24.2446C67.8604 24.2904 67.5216 24.1002 67.378 23.7771C67.163 23.2936 67.4694 22.7386 67.9932 22.6626L77.833 21.2366C78.2303 21.179 78.6152 21.4011 78.7645 21.774C78.9752 22.3009 78.6328 22.8853 78.0701 22.9586Z" fill="white"/>
<path d="M85.6267 10.0151L64.8342 12.7671C64.23 12.8471 63.8843 13.4984 64.1569 14.0437C64.3254 14.3805 64.6879 14.5743 65.0616 14.5273L85.8711 11.9068C86.4777 11.8303 86.8574 11.2099 86.6482 10.6347C86.4952 10.2141 86.0701 9.95644 85.6267 10.0151Z" fill="white"/>
<path d="M86.9665 14.7075L66.1741 17.4595C65.5698 17.5394 65.2242 18.1908 65.4968 18.7361C65.6652 19.0729 66.0278 19.2667 66.4014 19.2197L87.2109 16.5993C87.8175 16.5228 88.1972 15.9022 87.988 15.327C87.8351 14.9065 87.4099 14.6488 86.9665 14.7075Z" fill="white"/>
<path d="M111.061 104.405C106.873 114.458 68.3941 111.33 51.584 108.929C57.3474 109.465 63.6471 101.893 65.6576 97.8711L90.6212 101.725L111.061 104.405Z" fill="#00778E"/>
<path d="M50.9108 67.7161C60.0065 52.1995 54.485 42.4173 50.9108 39.0664L93.2981 57.9987C102.279 62.0197 97.9335 76.3168 94.6386 82.9622C90.3501 95.1597 90.2828 100.555 90.7855 101.728L65.8215 98.0412C54.5627 116.672 43.6619 107.424 42.3661 99.5493C41.6401 95.1371 42.3663 82.2927 50.9108 67.7161Z" fill="#54A4B3"/>
<path d="M87.7213 78.274L61.0364 71.0377C60.3693 70.8567 59.9062 70.2513 59.9062 69.5601C59.9062 68.5482 60.8704 67.8147 61.8456 68.0847L88.4918 75.4613C89.124 75.6362 89.5615 76.2113 89.5615 76.867C89.5615 77.8277 88.6484 78.5257 87.7213 78.274Z" fill="white"/>
<path d="M84.7612 86.596L57.3843 80.697C56.7054 80.5507 56.2207 79.9507 56.2207 79.2556C56.2207 78.3168 57.0872 77.6173 58.0053 77.8148L85.3824 83.7138C86.0614 83.8602 86.5458 84.4602 86.5458 85.1546C86.5458 86.0941 85.6795 86.7936 84.7612 86.596Z" fill="white"/>
<path d="M73.0916 91.9309L55.3537 88.2724C54.6622 88.1297 54.166 87.5209 54.166 86.8148C54.166 85.8797 55.0182 85.1765 55.9365 85.3536L73.7196 88.7853C74.4745 88.9309 75.0196 89.5916 75.0196 90.3607C75.0196 91.3763 74.0867 92.1365 73.0916 91.9309Z" fill="white"/>
</g>
<defs>
<clipPath id="clip0_15859_63878">
<rect width="110.488" height="120" fill="white" transform="translate(0.755859 0.5)"/>
</clipPath>
</defs>
</svg>
